<?xml version="1.0" encoding="utf-8"?>
<!-- Generator: Adobe Illustrator 19.2.0, SVG Export Plug-In . SVG Version: 6.00 Build 0)  -->
<svg version="1.1" id="Layer_1" xmlns="http://www.w3.org/2000/svg" xmlns:xlink="http://www.w3.org/1999/xlink" x="0px" y="0px"
	 viewBox="0 0 768 768" style="enable-background:new 0 0 768 768;" xml:space="preserve">
<style type="text/css">
	.st0{fill:#006936;}
	.st1{fill:#006936;stroke:#006936;stroke-miterlimit:10;}
</style>
<g id="circle">
	<g>
		<path class="st0" d="M384,10c50.5,0,99.5,9.9,145.6,29.4c44.5,18.8,84.5,45.8,118.9,80.2c34.4,34.4,61.3,74.3,80.2,118.9
			C748.1,284.5,758,333.5,758,384s-9.9,99.5-29.4,145.6c-18.8,44.5-45.8,84.5-80.2,118.9c-34.4,34.4-74.3,61.3-118.9,80.2
			C483.5,748.1,434.5,758,384,758s-99.5-9.9-145.6-29.4c-44.5-18.8-84.5-45.8-118.9-80.2c-34.4-34.4-61.3-74.3-80.2-118.9
			C19.9,483.5,10,434.5,10,384s9.9-99.5,29.4-145.6c18.8-44.5,45.8-84.5,80.2-118.9c34.4-34.4,74.3-61.3,118.9-80.2
			C284.5,19.9,333.5,10,384,10 M384,0C171.9,0,0,171.9,0,384s171.9,384,384,384s384-171.9,384-384S596.1,0,384,0L384,0z"/>
	</g>
</g>
<g>
	<path class="st1" d="M98,373c1.4-1.2,2.8-2.3,4.1-3.6c90.6-90.6,181.2-181.2,271.9-271.8c4.9-4.9,7.2-4.9,12.3,0.2
		c90.7,90.7,181.5,181.5,272.2,272.2c4.8,4.8,4.8,7.3,0.1,12c-10.2,10.3-20.5,20.5-30.8,30.7c-4.6,4.5-7.1,4.5-11.6,0
		c-11.4-11.4-22.8-22.8-34.8-34.8c-0.2,1.5-0.4,2.3-0.4,3.1c0,4.3-1.8,6.1-6.4,6c-18-0.2-36-0.1-54.3-0.1c0,6.3,0,12.4,0,19
		c1.8,0,3.6,0,5.4,0c16.2,0,32.3,0,48.5,0c5.3,0,6.8,1.5,6.8,6.7c0,15.2,0,30.3,0,45.5c0,5.9-1,6.8-7,6.8c-16.2,0-32.3,0-48.5,0
		c-1.6,0-3.3,0-5.2,0c0,6.3,0,12.3,0,19c1.6,0,3.4,0,5.1,0c16.5,0,33,0.1,49.5-0.1c4.4-0.1,6.1,1.9,6.1,5.8c0,15.8,0.1,31.7,0,47.5
		c0,3.9-1.6,5.9-6,5.9c-16.3-0.2-32.7-0.1-49-0.1c-1.8,0-3.6,0-5.7,0c0,6.3,0,12.3,0,19c1.6,0,3.4,0,5.1,0c16.5,0,33,0.1,49.5-0.1
		c4.4-0.1,6.1,1.9,6.1,5.8c0,15.8,0.1,31.7,0,47.5c0,3.9-1.6,5.9-6,5.9c-130-0.1-260-0.1-390,0c-4.6,0-6.1-1.8-6.1-6.2
		c0.2-15.3,0.1-30.7,0.1-46c0-6.3,0.5-6.8,6.9-6.8c68.5,0,137,0,205.5,0c2,0,4,0,6.3,0c0-6.3,0-12.4,0-19c-2,0-3.9,0-5.9,0
		c-68.5,0-137,0-205.5,0.1c-6.1,0-7.5-1.2-7.4-7.4c0.2-15.2,0.2-30.3,0-45.5c0-4.5,1.6-6.2,6.1-6.2c16,0.2,32,0.1,48,0.1
		c1.8,0,3.6,0,5.7,0c0-6.3,0-12.3,0-19c-1.6,0-3.4,0-5.1,0c-16.2,0-32.3-0.1-48.5,0.1c-4.5,0-6.2-1.6-6.2-6.2
		c0.2-15.3,0.1-30.7,0.1-46c0-6.4,0.5-6.9,6.8-6.9c17.5,0,35,0,53.2,0c0-3.1-0.1-6,0-8.9c0.2-5.1,2.2-7.1,7.3-7.1c36,0,72,0,108,0
		c5.7,0,7.6,1.9,7.7,7.7c0,2.5,0,5,0,7.9c11.9,0,23.6,0,35.7,0c0-5.9,0-12,0-18.6c-2,0-4,0-5.9,0c-67.8,0-135.7,0-203.5,0
		c-8.6,0-8.6,0-9.8-9c-4.8,4.9-9.4,9.4-13.9,14c-7.1,7.1-14.1,14.2-21.2,21.2c-4.1,4.1-6.7,3.9-10.8-0.1c-11.5-11.3-23-22.7-34.5-34
		C98,377,98,375,98,373z M650,374.6c-90.5-89.2-180.9-178.4-270.5-266.7c-89,89-179,179-268.7,268.7c8.7,8.7,17.8,17.8,27.2,27.2
		c1.1-1.1,2.3-2.5,3.5-3.8C214.5,327,287.6,254.1,360.3,181c6.5-6.5,12.8-10,22.1-9.2c4.9,0.4,8.6,1.6,12.2,5.2
		c74.1,74.3,148.4,148.5,222.6,222.8c1.4,1.4,2.6,3,3.6,4.2C630.3,394.3,639.5,385.1,650,374.6z M509.6,611.8
		c0-75.1,0-149.8,0-224.4c-34.1,0-67.8,0-101.4,0c0,75,0,149.6,0,224.4C442.1,611.8,475.7,611.8,509.6,611.8z M570.5,377.8
		c1.8-6.9-0.1-11.7-5.1-16.2c-7.5-6.6-14.1-14.1-21.4-21c-1.5-1.4-3.9-2.5-6-2.5c-105.3-0.1-210.6-0.1-315.9,0
		c-2.1,0-4.7,1.3-6.3,2.8c-8,7.6-15.3,15.8-23.5,23.1c-4.7,4.1-4.6,8.6-3.9,13.8C315.9,377.8,443.1,377.8,570.5,377.8z M397.6,611.8
		c0-13.8,0-27.2,0-40.4c-70.1,0-139.8,0-209.4,0c0,13.7,0,26.9,0,40.4C258.1,611.8,327.7,611.8,397.6,611.8z M503.3,299.9
		c-12.8-12.8-24.8-25-37-36.9c-1.7-1.6-4.5-2.8-6.8-2.9c-53-0.2-105.9-0.2-158.9,0c-2.3,0-5.2,1.2-6.8,2.8
		c-11.5,11.1-22.7,22.5-34,33.8c-0.8,0.8-1.5,1.8-2.6,3.2C339.3,299.9,420.7,299.9,503.3,299.9z M531.4,327.8
		c-5.9-5.9-10.9-11-16.1-15.9c-1.2-1.1-3.1-1.8-4.7-1.8c-87-0.1-174-0.1-260.9,0c-1.4,0-3.2,0.3-4.1,1.1c-5.5,5.2-10.9,10.5-17,16.6
		C329.9,327.8,430.1,327.8,531.4,327.8z M351.7,533.8c0-23.1,0-45.8,0-68.4c-15.7,0-31.1,0-46.4,0c0,23,0,45.6,0,68.4
		C320.8,533.8,336,533.8,351.7,533.8z M249.4,465.2c0,23.1,0,45.8,0,68.4c15.7,0,31.1,0,46.4,0c0-23,0-45.6,0-68.4
		C280.2,465.2,265,465.2,249.4,465.2z M295.6,455.8c0-18.8,0-37.1,0-55.4c-15.7,0-31.1,0-46.4,0c0,18.7,0,36.9,0,55.4
		C264.8,455.8,280,455.8,295.6,455.8z M305.2,455.6c15.9,0,31.3,0,46.5,0c0-18.7,0-36.9,0-55.3c-15.6,0-31,0-46.5,0
		C305.2,418.9,305.2,437.1,305.2,455.6z M306.9,249.5c49.1,0,97.3,0,146.3,0c-5.7-5.6-10.7-10.8-15.9-15.7c-1.2-1.1-3.1-1.8-4.7-1.8
		c-35-0.1-70-0.1-105,0c-1.6,0-3.6,0.7-4.7,1.8C317.5,238.8,312.5,243.9,306.9,249.5z M570.6,611.8c0-13.8,0-27.2,0-40.6
		c-17,0-33.5,0-50.3,0c0,13.6,0,27,0,40.6C537.2,611.8,553.7,611.8,570.6,611.8z M570.7,455.8c0-13.5,0-26.4,0-39.5
		c-17,0-33.7,0-50.4,0c0,13.4,0,26.4,0,39.5C537.3,455.8,553.9,455.8,570.7,455.8z M238.8,416.4c-17.1,0-33.8,0-50.4,0
		c0,13.4,0,26.4,0,39.4c17,0,33.6,0,50.4,0C238.8,442.6,238.8,429.6,238.8,416.4z M238.8,494.4c-17.1,0-33.8,0-50.4,0
		c0,13.4,0,26.4,0,39.4c17,0,33.6,0,50.4,0C238.8,520.6,238.8,507.6,238.8,494.4z M570.7,533.8c0-13.5,0-26.4,0-39.4
		c-17,0-33.7,0-50.4,0c0,13.4,0,26.4,0,39.4C537.3,533.8,553.9,533.8,570.7,533.8z M334.7,221.7c30.7,0,60.2,0,90.7,0
		c-13.2-13.2-25.5-26.1-38.7-37.9c-2.6-2.3-10.5-2.5-13-0.3C360.3,195.4,348,208.4,334.7,221.7z M397.6,455.8c0-13.4,0-26.5,0-39.4
		c-12.1,0-23.8,0-35.4,0c0,13.3,0,26.2,0,39.4C374.1,455.8,385.7,455.8,397.6,455.8z M362.3,494.1c0,13.5,0,26.5,0,39.5
		c12,0,23.7,0,35.3,0c0-13.4,0-26.4,0-39.5C385.7,494.1,374.3,494.1,362.3,494.1z M397.8,465.4c-12.2,0-23.9,0-35.6,0
		c0,6.3,0,12.2,0,18.3c12,0,23.7,0,35.6,0C397.8,477.5,397.8,471.6,397.8,465.4z"/>
	<path class="st1" d="M421,440c0-11.7,0-23.3,0-35c0-6,2-8,8-8c20,0,40,0,60,0c6,0,8,2,8,8c0,23.3,0,46.6,0,70c0,6-2,8-8,8
		c-20,0-40,0-60,0c-6,0-8-2-8-8C421,463.3,421,451.7,421,440z M431.2,472.7c7.8,0,15.1,0,22.5,0c0-9.3,0-18.3,0-27.4
		c-7.7,0-15.1,0-22.5,0C431.2,454.6,431.2,463.5,431.2,472.7z M486.6,472.9c0-9.2,0-18.3,0-27.6c-7.5,0-14.9,0-22.2,0
		c0,9.4,0,18.4,0,27.6C471.9,472.9,479,472.9,486.6,472.9z M486.8,407.4c-7.8,0-15.1,0-22.4,0c0,9.4,0,18.4,0,27.4
		c7.7,0,14.9,0,22.4,0C486.8,425.6,486.8,416.6,486.8,407.4z M453.8,407.4c-7.8,0-15.2,0-22.6,0c0,9.3,0,18.2,0,27.3
		c7.6,0,15,0,22.6,0C453.8,425.5,453.8,416.6,453.8,407.4z"/>
</g>
</svg>
