<?xml version="1.0" encoding="utf-8"?>
<!-- Generator: Adobe Illustrator 19.2.0, SVG Export Plug-In . SVG Version: 6.00 Build 0)  -->
<svg version="1.1" xmlns="http://www.w3.org/2000/svg" xmlns:xlink="http://www.w3.org/1999/xlink" x="0px" y="0px"
	 viewBox="0 0 768 768" style="enable-background:new 0 0 768 768;" xml:space="preserve">
<style type="text/css">
	.st0{fill:#006936;}
	.st1{display:none;}
	.st2{display:inline;}
	.st3{fill:#006936;stroke:#006936;stroke-miterlimit:10;}
	.st4{fill:#FFFFFF;}
	.st5{fill:#006936;stroke:#FFFFFF;stroke-width:3;stroke-miterlimit:10;}
	.st6{fill:#FFFFFF;stroke:#FFFFFF;stroke-width:3;stroke-miterlimit:10;}
	.st7{fill:#006936;stroke:#FFFFFF;stroke-width:5;stroke-miterlimit:10;}
	.st8{fill:#FFFFFF;stroke:#FFFFFF;stroke-width:5;stroke-miterlimit:10;}
</style>
<g id="circle">
	<g>
		<path class="st0" d="M384,10c50.5,0,99.5,9.9,145.6,29.4c44.5,18.8,84.5,45.8,118.9,80.2c34.4,34.4,61.3,74.3,80.2,118.9
			C748.1,284.5,758,333.5,758,384s-9.9,99.5-29.4,145.6c-18.8,44.5-45.8,84.5-80.2,118.9c-34.4,34.4-74.3,61.3-118.9,80.2
			C483.5,748.1,434.5,758,384,758s-99.5-9.9-145.6-29.4c-44.5-18.8-84.5-45.8-118.9-80.2c-34.4-34.4-61.3-74.3-80.2-118.9
			C19.9,483.5,10,434.5,10,384s9.9-99.5,29.4-145.6c18.8-44.5,45.8-84.5,80.2-118.9c34.4-34.4,74.3-61.3,118.9-80.2
			C284.5,19.9,333.5,10,384,10 M384,0C171.9,0,0,171.9,0,384s171.9,384,384,384s384-171.9,384-384S596.1,0,384,0L384,0z"/>
	</g>
</g>
<g id="cabin" class="st1">
	<g class="st2">
		<path class="st3" d="M98,373c1.4-1.2,2.8-2.3,4.1-3.6c90.6-90.6,181.2-181.2,271.9-271.8c4.9-4.9,7.2-4.9,12.3,0.2
			c90.7,90.7,181.5,181.5,272.2,272.2c4.8,4.8,4.8,7.3,0.1,12c-10.2,10.3-20.5,20.5-30.8,30.7c-4.6,4.5-7.1,4.5-11.6,0
			c-11.4-11.4-22.8-22.8-34.8-34.8c-0.2,1.5-0.4,2.3-0.4,3.1c0,4.3-1.8,6.1-6.4,6c-18-0.2-36-0.1-54.3-0.1c0,6.3,0,12.4,0,19
			c1.8,0,3.6,0,5.4,0c16.2,0,32.3,0,48.5,0c5.3,0,6.8,1.5,6.8,6.7c0,15.2,0,30.3,0,45.5c0,5.9-1,6.8-7,6.8c-16.2,0-32.3,0-48.5,0
			c-1.6,0-3.3,0-5.2,0c0,6.3,0,12.3,0,19c1.6,0,3.4,0,5.1,0c16.5,0,33,0.1,49.5-0.1c4.4-0.1,6.1,1.9,6.1,5.8c0,15.8,0.1,31.7,0,47.5
			c0,3.9-1.6,5.9-6,5.9c-16.3-0.2-32.7-0.1-49-0.1c-1.8,0-3.6,0-5.7,0c0,6.3,0,12.3,0,19c1.6,0,3.4,0,5.1,0c16.5,0,33,0.1,49.5-0.1
			c4.4-0.1,6.1,1.9,6.1,5.8c0,15.8,0.1,31.7,0,47.5c0,3.9-1.6,5.9-6,5.9c-130-0.1-260-0.1-390,0c-4.6,0-6.1-1.8-6.1-6.2
			c0.2-15.3,0.1-30.7,0.1-46c0-6.3,0.5-6.8,6.9-6.8c68.5,0,137,0,205.5,0c2,0,4,0,6.3,0c0-6.3,0-12.4,0-19c-2,0-3.9,0-5.9,0
			c-68.5,0-137,0-205.5,0.1c-6.1,0-7.5-1.2-7.4-7.4c0.2-15.2,0.2-30.3,0-45.5c0-4.5,1.6-6.2,6.1-6.2c16,0.2,32,0.1,48,0.1
			c1.8,0,3.6,0,5.7,0c0-6.3,0-12.3,0-19c-1.6,0-3.4,0-5.1,0c-16.2,0-32.3-0.1-48.5,0.1c-4.5,0-6.2-1.6-6.2-6.2
			c0.2-15.3,0.1-30.7,0.1-46c0-6.4,0.5-6.9,6.8-6.9c17.5,0,35,0,53.2,0c0-3.1-0.1-6,0-8.9c0.2-5.1,2.2-7.1,7.3-7.1c36,0,72,0,108,0
			c5.7,0,7.6,1.9,7.7,7.7c0,2.5,0,5,0,7.9c11.9,0,23.6,0,35.7,0c0-5.9,0-12,0-18.6c-2,0-4,0-5.9,0c-67.8,0-135.7,0-203.5,0
			c-8.6,0-8.6,0-9.8-9c-4.8,4.9-9.4,9.4-13.9,14c-7.1,7.1-14.1,14.2-21.2,21.2c-4.1,4.1-6.7,3.9-10.8-0.1
			c-11.5-11.3-23-22.7-34.5-34C98,377,98,375,98,373z M650,374.6c-90.5-89.2-180.9-178.4-270.5-266.7c-89,89-179,179-268.7,268.7
			c8.7,8.7,17.8,17.8,27.2,27.2c1.1-1.1,2.3-2.5,3.5-3.8C214.5,327,287.6,254.1,360.3,181c6.5-6.5,12.8-10,22.1-9.2
			c4.9,0.4,8.6,1.6,12.2,5.2c74.1,74.3,148.4,148.5,222.6,222.8c1.4,1.4,2.6,3,3.6,4.2C630.3,394.3,639.5,385.1,650,374.6z
			 M509.6,611.8c0-75.1,0-149.8,0-224.4c-34.1,0-67.8,0-101.4,0c0,75,0,149.6,0,224.4C442.1,611.8,475.7,611.8,509.6,611.8z
			 M570.5,377.8c1.8-6.9-0.1-11.7-5.1-16.2c-7.5-6.6-14.1-14.1-21.4-21c-1.5-1.4-3.9-2.5-6-2.5c-105.3-0.1-210.6-0.1-315.9,0
			c-2.1,0-4.7,1.3-6.3,2.8c-8,7.6-15.3,15.8-23.5,23.1c-4.7,4.1-4.6,8.6-3.9,13.8C315.9,377.8,443.1,377.8,570.5,377.8z
			 M397.6,611.8c0-13.8,0-27.2,0-40.4c-70.1,0-139.8,0-209.4,0c0,13.7,0,26.9,0,40.4C258.1,611.8,327.7,611.8,397.6,611.8z
			 M503.3,299.9c-12.8-12.8-24.8-25-37-36.9c-1.7-1.6-4.5-2.8-6.8-2.9c-53-0.2-105.9-0.2-158.9,0c-2.3,0-5.2,1.2-6.8,2.8
			c-11.5,11.1-22.7,22.5-34,33.8c-0.8,0.8-1.5,1.8-2.6,3.2C339.3,299.9,420.7,299.9,503.3,299.9z M531.4,327.8
			c-5.9-5.9-10.9-11-16.1-15.9c-1.2-1.1-3.1-1.8-4.7-1.8c-87-0.1-174-0.1-260.9,0c-1.4,0-3.2,0.3-4.1,1.1
			c-5.5,5.2-10.9,10.5-17,16.6C329.9,327.8,430.1,327.8,531.4,327.8z M351.7,533.8c0-23.1,0-45.8,0-68.4c-15.7,0-31.1,0-46.4,0
			c0,23,0,45.6,0,68.4C320.8,533.8,336,533.8,351.7,533.8z M249.4,465.2c0,23.1,0,45.8,0,68.4c15.7,0,31.1,0,46.4,0
			c0-23,0-45.6,0-68.4C280.2,465.2,265,465.2,249.4,465.2z M295.6,455.8c0-18.8,0-37.1,0-55.4c-15.7,0-31.1,0-46.4,0
			c0,18.7,0,36.9,0,55.4C264.8,455.8,280,455.8,295.6,455.8z M305.2,455.6c15.9,0,31.3,0,46.5,0c0-18.7,0-36.9,0-55.3
			c-15.6,0-31,0-46.5,0C305.2,418.9,305.2,437.1,305.2,455.6z M306.9,249.5c49.1,0,97.3,0,146.3,0c-5.7-5.6-10.7-10.8-15.9-15.7
			c-1.2-1.1-3.1-1.8-4.7-1.8c-35-0.1-70-0.1-105,0c-1.6,0-3.6,0.7-4.7,1.8C317.5,238.8,312.5,243.9,306.9,249.5z M570.6,611.8
			c0-13.8,0-27.2,0-40.6c-17,0-33.5,0-50.3,0c0,13.6,0,27,0,40.6C537.2,611.8,553.7,611.8,570.6,611.8z M570.7,455.8
			c0-13.5,0-26.4,0-39.5c-17,0-33.7,0-50.4,0c0,13.4,0,26.4,0,39.5C537.3,455.8,553.9,455.8,570.7,455.8z M238.8,416.4
			c-17.1,0-33.8,0-50.4,0c0,13.4,0,26.4,0,39.4c17,0,33.6,0,50.4,0C238.8,442.6,238.8,429.6,238.8,416.4z M238.8,494.4
			c-17.1,0-33.8,0-50.4,0c0,13.4,0,26.4,0,39.4c17,0,33.6,0,50.4,0C238.8,520.6,238.8,507.6,238.8,494.4z M570.7,533.8
			c0-13.5,0-26.4,0-39.4c-17,0-33.7,0-50.4,0c0,13.4,0,26.4,0,39.4C537.3,533.8,553.9,533.8,570.7,533.8z M334.7,221.7
			c30.7,0,60.2,0,90.7,0c-13.2-13.2-25.5-26.1-38.7-37.9c-2.6-2.3-10.5-2.5-13-0.3C360.3,195.4,348,208.4,334.7,221.7z M397.6,455.8
			c0-13.4,0-26.5,0-39.4c-12.1,0-23.8,0-35.4,0c0,13.3,0,26.2,0,39.4C374.1,455.8,385.7,455.8,397.6,455.8z M362.3,494.1
			c0,13.5,0,26.5,0,39.5c12,0,23.7,0,35.3,0c0-13.4,0-26.4,0-39.5C385.7,494.1,374.3,494.1,362.3,494.1z M397.8,465.4
			c-12.2,0-23.9,0-35.6,0c0,6.3,0,12.2,0,18.3c12,0,23.7,0,35.6,0C397.8,477.5,397.8,471.6,397.8,465.4z"/>
		<path class="st3" d="M421,440c0-11.7,0-23.3,0-35c0-6,2-8,8-8c20,0,40,0,60,0c6,0,8,2,8,8c0,23.3,0,46.6,0,70c0,6-2,8-8,8
			c-20,0-40,0-60,0c-6,0-8-2-8-8C421,463.3,421,451.7,421,440z M431.2,472.7c7.8,0,15.1,0,22.5,0c0-9.3,0-18.3,0-27.4
			c-7.7,0-15.1,0-22.5,0C431.2,454.6,431.2,463.5,431.2,472.7z M486.6,472.9c0-9.2,0-18.3,0-27.6c-7.5,0-14.9,0-22.2,0
			c0,9.4,0,18.4,0,27.6C471.9,472.9,479,472.9,486.6,472.9z M486.8,407.4c-7.8,0-15.1,0-22.4,0c0,9.4,0,18.4,0,27.4
			c7.7,0,14.9,0,22.4,0C486.8,425.6,486.8,416.6,486.8,407.4z M453.8,407.4c-7.8,0-15.2,0-22.6,0c0,9.3,0,18.2,0,27.3
			c7.6,0,15,0,22.6,0C453.8,425.5,453.8,416.6,453.8,407.4z"/>
	</g>
</g>
<g id="Hotel">
	<g>
		<g>
			<path class="st0" d="M144.4,631.1c-6.1,0-10.4-0.8-13.4-4.7v-8.7c3.5-4.4,8.5-4.8,13.6-4.8c0.7,0,1.4,0,2.1,0c0.7,0,1.5,0,2.2,0
				c0.4,0,0.7,0,1.1,0l2,0l0-316.1c0-0.2,0-0.5,0-0.8c0.1-0.9,0.2-2-0.3-3c-0.5-1.1-1.6-3.1-3.4-3.8c-7.1-2.6-8.9-5.7-7.2-12.1
				c2.7-9.9,5.6-19.9,8.4-29.6c2.1-7.2,4.1-14.4,6.2-21.6c3.2-11.2,6.3-22.6,9.4-33.6c2.3-8.2,4.6-16.5,6.9-24.7
				c1.7-6.2,5-8.8,11.3-8.8l0.1,0c12.9,0.1,26.5,0.1,44.2,0.1c8.5,0,16.9,0,25.4,0c8.5,0,16.9,0,25.4,0h7.6v-2c0-0.8,0-1.5,0-2.1
				c0-1.4,0.1-2.6-0.1-3.8c-1-6.2,1.6-10.1,8.5-13.1c5.4-2.3,10.7-4.7,16.1-7.1c3.6-1.6,7.2-3.2,10.8-4.8c5.8-2.6,11.6-5.1,17.4-7.7
				c14.1-6.2,28.7-12.6,43-19c2.2-1,4.2-1.5,6.1-1.5c1.4,0,2.8,0.3,4.2,0.9c5,2,9.8,4.1,13.5,5.7l5.7,2.5c9,3.9,18.3,8,27.5,12
				c14.7,6.6,30.6,13.6,46.4,20.9c3.4,1.6,5.2,4.4,5.1,8.5c0,1.9,0,3.8,0,5.8l0,4.9l42.7,0c20.1,0,40.2,0,60.2,0
				c1.5,0,3.2,0.3,5.2,0.8c3.4,1,4.3,3.6,5.5,7.8c0.1,0.5,0.3,1.1,0.4,1.6c9.5,32.9,19.5,68.2,30.8,107.9c0.9,3.1,0.5,6.5-1,8.9
				c-0.6,1-1.7,2.2-3.5,2.5c-6.4,1-6.4,5.1-6.4,8.4l0,0.4c0,88.7,0,177.5,0,266.2V613h2c1.2,0,2.3,0,3.4,0c1,0,2,0,2.9,0
				c1.2,0,2.4,0,3.6,0c3.8,0.1,7.9,2.8,8.9,5.9c1.1,3.1,0.5,7.6-3.2,9.9c-2,1.3-5.1,2-8.2,2c-80.9,0.1-161.8,0.1-242.8,0.1
				C308.6,631,226.6,631,144.4,631.1L144.4,631.1z M169.3,612.8h126.4V290.4H169.3V612.8z M387.9,158.8c-0.9,0-1.7,0.1-2.3,0.4
				c-9.2,3.8-18.3,7.9-26.1,11.3c-4.1,1.8-8.2,3.7-12.3,5.6c-8.7,4-17.6,8.1-26.6,11.7c-5.7,2.3-6.8,5.4-6.8,10
				c0.1,117.5,0.1,236.9,0.1,352.4l0,62.6h24l0-42.3c0-34,0-68,0-102c0-7,3.5-10.5,10.4-10.5c10.5,0,21,0,31.5,0c16,0,32,0,48,0
				c1.1,0,2.5,0.2,4.2,0.8c4.9,1.5,5.9,5.3,5.9,11.7c0.1,34.3,0.1,69.3,0.1,103l0,39.1h22.8V189.7l-1.6-0.3
				c-0.3-0.1-0.6-0.1-0.9-0.2c-0.3-0.1-0.7-0.1-0.8-0.2c-6.5-2.9-12.9-5.8-19.4-8.7c-15.3-6.9-31.1-13.9-46.7-20.8
				C390.4,159,389.1,158.8,387.9,158.8z M356,478.1c0,4.2,0,8.3,0,12.5c0,11.1,0.1,21.6-0.1,32.4c-0.1,3.7,0.6,7.8,5.8,9.8
				c3,1.1,4.3,3.6,4.2,7.6c-0.1,2.8-1.1,6.4-5,7.6c-4.6,1.3-5,4.5-5,7.3c0.1,11.9,0.1,24.1,0.1,35.8c0,5.4,0,10.8,0,16.2
				c0,0.8,0.1,1.7,0.1,2.4c0,0.4,0.1,0.7,0.1,1.1l0.1,1.9h63.3V476.1H356V478.1z M479.4,612.6h126.4V290.2H479.4V612.6z
				 M193.8,176.9c-5.8,0-6.9,4-7.6,6.6c-3,10.7-6,21.5-9,32.2c-2.5,8.8-4.9,17.7-7.4,26.5c-1.7,6.2-3.5,12.3-5.3,18.6
				c-0.8,2.8-3.2,11.2-3.2,11.2h134.6v-73.2l-1.6-0.3c-8-1.5-8.3-6.2-8.2-13.7c0-1.9,0.1-3.8-0.1-5.7l-0.2-1.7l-1.7-0.1
				c-0.5,0-0.8-0.1-1.1-0.1c-0.7-0.1-1.1-0.1-1.6-0.1l-2.8,0c-6.4,0-12.9,0-19.3,0c-6.4,0-12.9,0-19.3,0c-12.6,0-29.2,0-45.9-0.2
				L193.8,176.9z M581.9,177c-18.1,0-36.3,0-54.4,0c-10.5,0-21,0-31.5,0c-1,0-1.9,0.1-2.8,0.2c-0.4,0-0.9,0.1-1.3,0.1l-1.8,0.2
				l-0.1,1.8c0,1.5,0,3,0,4.4c0.2,8.6-0.2,13.6-9.1,14.7l-1.8,0.2v73.1h135.5l-0.7-2.6c-2-6.9-4-13.8-5.9-20.6
				c-6.3-21.7-12.8-44.2-18.8-66.2C587.9,177.9,585.6,177,581.9,177L581.9,177L581.9,177z M388,139.2c0.9,0,1.7,0.1,2.3,0.4
				c13.7,5.8,27.5,11.9,40.8,17.9c4.3,1.9,8.6,3.8,12.9,5.7l28.1,12.4v-3.1c0-1.6,0-3.1,0-4.6c0-3.8,0.1-7.2-0.2-10.6
				c-0.1-2.1-2-4.3-3.7-5.1c-28.1-12.7-53-23.7-76-33.8c-1.2-0.5-2.7-0.8-4.2-0.8c-1.3,0-2.5,0.2-3.6,0.6c-3.8,1.3-7.4,3-11,4.6
				c-1.3,0.6-2.7,1.2-4,1.8l-8.4,3.7c-7.5,3.3-15.3,6.7-23,10.1c-8.2,3.6-19,8.5-29.9,13.5c-1.6,0.7-3.9,2.8-4,5
				c-0.2,3.6-0.2,7.2-0.2,11.1c0,1.4,0,2.9,0,4.4v3.1l15.2-6.7c9.2-4.1,18.2-8,27.1-12c4.1-1.8,8.1-3.6,12.2-5.5
				c8.1-3.7,16.5-7.5,24.9-11C384.8,139.6,386.5,139.2,388,139.2z"/>
			<path class="st4" d="M387.7,99.9c1.2,0,2.3,0.2,3.5,0.7c4.9,2,9.8,4.1,13.4,5.7l5.6,2.5c9,3.9,18.3,8,27.5,12
				c14.8,6.6,30.6,13.6,46.3,20.9c2.7,1.3,4,3.4,4,6.6c0,1.9,0,3.8,0,5.8c0,0.9,0,1.9,0,2.9v4h4h6l17.4,0l17.4,0c18,0,39.3,0,60.2,0
				c1.3,0,2.9,0.3,4.7,0.8c2.3,0.7,3,2.3,4.1,6.4c0.1,0.5,0.3,1.1,0.4,1.6c9.5,32.9,19.5,68.2,30.8,107.9c0.7,2.5,0.4,5.4-0.8,7.3
				c-0.6,0.9-1.3,1.5-2.1,1.6c-8.1,1.3-8.1,7.2-8.1,10.4l0,0.4c0,88.6,0,178.7,0,265.8l0,42.1v5.7v4h4c1.2,0,2.3,0,3.4,0
				c1,0,2,0,2.9,0c1.4,0,2.5,0,3.5,0c3.2,0.1,6.4,2.5,7.1,4.6c0.8,2.4,0.4,5.8-2.4,7.6c-1.7,1.1-4.4,1.7-7.1,1.7
				c-80.9,0.1-163.1,0.1-242.6,0.1c-80.7,0-164.2,0-246.3,0.1h-0.1c-5.5,0-8.9-0.6-11.4-3.5v-7.2c2.7-2.9,6.2-3.5,11.6-3.5
				c0.7,0,1.4,0,2.1,0c0.7,0,1.5,0,2.2,0c0.4,0,0.7,0,1.1,0l3.9-0.1v-3.9v-4.7l0-309.5c0-0.1,0-0.4,0-0.6c0.1-1,0.2-2.4-0.5-4
				c-0.8-1.8-2.2-4-4.5-4.9c-6.7-2.4-7.2-5-5.9-9.7c2.7-9.9,5.6-19.9,8.4-29.5c2-7.1,4.1-14.4,6.2-21.6c3.1-11.2,6.3-22.6,9.4-33.6
				c2.3-8.2,4.6-16.5,6.9-24.7c1.5-5.4,4-7.3,9.4-7.3l0.1,0c12.9,0.1,26.5,0.1,44.2,0.1c8.5,0,16.9,0,25.4,0c8.5,0,16.9,0,25.4,0
				h5.6h4v-4c0-0.7,0-1.4,0-2c0-1.4,0.1-2.8-0.1-4.2c-0.7-4.4,0.3-7.9,7.3-11c5.4-2.4,10.8-4.8,16.1-7.1c3.6-1.6,7.2-3.2,10.8-4.8
				c5.8-2.6,11.6-5.1,17.4-7.6c14.1-6.2,28.7-12.6,43-19C384.4,100.3,386.1,99.9,387.7,99.9 M302,178.4l5.6-2.5
				c4.2-1.8,8.3-3.7,12.4-5.5c9.3-4.1,18.2-8,27.1-12c4.1-1.8,8.2-3.7,12.2-5.5c8.1-3.7,16.5-7.5,24.8-11c1.2-0.5,2.6-0.8,3.9-0.8
				c0.9,0,1.3,0.2,1.5,0.2c13.7,5.8,27.4,11.9,40.8,17.8c4.3,1.9,8.6,3.8,12.9,5.7c5.6,2.5,11.1,4.9,17,7.5l8.3,3.7l5.6,2.5v-6.1
				c0-1.6,0-3.1,0-4.6c0-3.7,0.1-7.2-0.2-10.7c-0.2-3-2.6-5.8-4.9-6.8c-28.1-12.7-53-23.7-76-33.8c-1.5-0.6-3.2-1-5.1-1
				c-1.5,0-3,0.2-4.3,0.7c-3.8,1.4-7.5,3-11.1,4.6c-1.3,0.6-2.6,1.2-4,1.8c-2.8,1.2-5.6,2.5-8.4,3.7c-7.5,3.3-15.3,6.7-22.9,10
				c-8.2,3.7-19.1,8.5-29.9,13.6c-2,0.9-4.9,3.5-5.2,6.7c-0.2,3.7-0.2,7.4-0.2,11.2c0,1.4,0,2.9,0,4.4V178.4 M312,614.8h4h20h4v-4
				v-6.3l0-34.4c0-33.8,0-67.7,0-101.5c0-5.9,2.6-8.5,8.4-8.5c10.5,0,21.1,0,31.6,0c17.7,0,33.3,0,47.8,0c1.2,0,2.6,0.4,3.6,0.7
				c3.5,1.1,4.5,3.3,4.5,9.8c0.1,34.3,0.1,69.2,0.1,102.9c0,10.5,0,21,0,31.5v5.7v4h4h18.8h4v-4V191.3v-3.2l-3.2-0.7
				c-0.3-0.1-0.6-0.1-1-0.2c-0.1,0-0.3-0.1-0.4-0.1c-6.4-2.9-12.8-5.7-19.2-8.6c-15.3-6.9-31.2-14-46.8-20.9c-1.3-0.6-3-0.9-4.4-0.9
				c-1.1,0-2.2,0.2-3.1,0.6c-9.2,3.8-18.4,7.9-26.1,11.3c-4.1,1.8-8.3,3.7-12.3,5.6c-8.6,4-17.6,8.1-26.5,11.6
				c-6.7,2.6-8,6.7-8,11.9c0.1,117.6,0.1,237.1,0.1,352.8l0,54.1v6.1V614.8 M158.6,273.9h5.3h129.9h4v-4v-69.5V197l-3.3-0.6
				c-6.5-1.2-6.7-4.3-6.6-11.7c0-1.9,0.1-3.9-0.1-5.9l-0.3-3.4l-3.4-0.2c-0.4,0-0.8-0.1-1.1-0.1c-0.7-0.1-1.2-0.1-1.7-0.1l-2.9,0
				c-6.4,0-12.9,0-19.3,0c-6.4,0-12.9,0-19.3,0c-12.6,0-29.2,0-45.9-0.2l-0.1,0c-7.3,0-8.8,5.2-9.5,8c-3,10.8-6.1,21.7-9,32.3
				c-2.5,8.8-4.9,17.6-7.4,26.4c-1.7,6.1-3.4,12.2-5.3,18.5c-0.8,2.9-1.6,5.7-2.5,8.6L158.6,273.9 M477.2,273.7h4H612h5.3l-1.5-5.1
				c-2-6.9-4-13.7-5.9-20.6c-6.6-22.7-12.8-44.2-18.8-66.2c-1.7-6.1-5.4-6.9-9.1-6.9l-0.1,0h0c-18.1,0-36.5,0-54.3,0
				c-10.5,0-21,0-31.6,0c-1.1,0-2.1,0.1-3.1,0.2c-0.4,0-0.8,0.1-1.3,0.1l-3.5,0.3l-0.1,3.5c0,1.5,0,3,0,4.5
				c0.2,8.9-0.3,11.8-7.3,12.7l-3.5,0.4v3.5v69.3V273.7 M477.4,614.6h4h122.4h4v-4V292.2v-4h-4H481.4h-4v4v318.4V614.6 M167.3,614.8
				h4h122.4h4v-4V292.4v-4h-4H171.3h-4v4v318.4V614.8 M354.5,614.7h3.8h59.4h4v-4V478.1v-4h-4H358h-4v4c0,4.2,0,8.3,0,12.5
				c0,11.1,0.1,21.6-0.1,32.3c-0.1,4.2,0.7,9.3,7.1,11.7c1.5,0.6,3,1.7,2.9,5.6c-0.2,4.8-2.7,5.5-3.6,5.8c-6.4,1.9-6.4,7-6.4,9.2
				c0.1,11.9,0.1,24.1,0.1,35.8c0,5.4,0,10.8,0,16.1c0,0.9,0.1,1.8,0.1,2.6c0,0.3,0.1,0.7,0.1,1L354.5,614.7 M387.7,95.9
				c-2.3,0-4.6,0.6-6.9,1.6c-20.1,9-40.2,17.8-60.4,26.7c-8.9,3.9-17.9,7.9-26.8,11.9c-6.7,2.9-10.9,7.3-9.6,15.3
				c0.2,1.6,0,3.3,0,5.6c-2,0-3.8,0-5.6,0c-16.9,0-33.9,0-50.8,0c-14.7,0-29.4,0-44.1-0.1c-0.1,0-0.1,0-0.2,0
				c-7.4,0-11.3,3.3-13.2,10.2c-5.4,19.4-10.8,38.9-16.2,58.3c-4.8,17.1-9.8,34.1-14.6,51.1c-2.1,7.6,0.6,11.7,8.4,14.5
				c1,0.4,1.8,1.7,2.2,2.7c0.4,0.8,0.1,2,0.1,3c0,103.2,0,206.3,0,309.5c0,1.3,0,2.6,0,4.7c-0.4,0-0.7,0-1.1,0c-1.4,0-2.9,0-4.3,0
				c-5.9,0-11.6,0.5-15.6,6.1c0,3.3,0,6.7,0,10c3.8,5.4,9.3,6.1,15.4,6.1c0,0,0,0,0.1,0c163-0.1,326-0.1,488.9-0.2
				c3.1,0,6.7-0.7,9.2-2.3c4.3-2.7,5.6-7.9,4.1-12.3c-1.3-3.9-6.1-7.1-10.8-7.3c-1.2,0-2.4,0-3.6,0c-2,0-4.1,0-6.3,0
				c0-2.2,0-3.9,0-5.7c0-102.7,0-205.3,0-308c0-3.5-0.2-6.1,4.7-6.9c5.2-0.8,7.8-7.7,6.1-13.9c-10.2-36-20.5-72-30.8-107.9
				c-1.2-4.3-1.9-9.2-7.3-10.7c-1.9-0.5-3.8-0.9-5.7-0.9c-20.1,0-40.1,0-60.2,0c-11.6,0-23.2,0-34.8,0c-1.8,0-3.6,0-6,0
				c0-3.2,0-5.9,0-8.7c0-4.7-2.1-8.4-6.3-10.3c-15.4-7.1-30.9-14-46.4-20.9c-11-4.9-22.1-9.7-33.1-14.5c-4.5-1.9-9-3.9-13.5-5.7
				C391,96.2,389.3,95.9,387.7,95.9L387.7,95.9z M306,172.3c0-5.5-0.2-10.4,0.1-15.3c0.1-1.2,1.6-2.8,2.9-3.4
				c9.9-4.6,19.9-9.1,29.8-13.5c10.4-4.6,20.9-9.1,31.3-13.7c4.9-2.1,9.8-4.5,14.8-6.3c0.9-0.3,1.9-0.5,2.9-0.5
				c1.2,0,2.5,0.2,3.4,0.7c25.4,11.1,50.7,22.4,75.9,33.8c1.2,0.5,2.5,2.2,2.5,3.4c0.3,4.6,0.1,9.3,0.1,15
				c-8.9-3.9-17.1-7.6-25.2-11.2c-17.9-7.9-35.7-16-53.7-23.6c-0.9-0.4-1.9-0.5-3-0.5c-1.9,0-3.9,0.5-5.4,1.1
				c-12.5,5.3-24.7,11-37.1,16.5C332.6,160.6,319.6,166.3,306,172.3L306,172.3z M316,610.8c0-2.2,0-4.1,0-6.1
				c0-135.6,0-271.3-0.1-406.9c0-4.4,1-6.4,5.5-8.2c13.2-5.2,25.9-11.5,38.9-17.3c8.6-3.9,17.3-7.7,26-11.3c0.5-0.2,1-0.3,1.6-0.3
				c1,0,2,0.2,2.8,0.6c22.1,9.8,44.1,19.7,66.1,29.5c0.6,0.3,1.3,0.3,2,0.5c0,139.7,0,279.3,0,419.3c-6,0-12.1,0-18.8,0
				c0-1.8,0-3.7,0-5.7c0-44.8,0.1-89.6-0.1-134.5c0-5.6-0.5-11.4-7.3-13.6c-1.5-0.5-3.2-0.9-4.7-0.9c-15.9,0-31.9,0-47.8,0
				c-10.5,0-21.1,0-31.6,0c-8,0-12.4,4.5-12.4,12.5c0,45.3,0,90.6,0,136c0,2,0,3.9,0,6.3C329,610.8,322.7,610.8,316,610.8L316,610.8
				z M163.9,269.9c2.6-9.3,5.2-18.2,7.8-27.2c5.5-19.6,10.9-39.1,16.4-58.7c0.8-2.8,1.6-5.1,5.7-5.1c0,0,0.1,0,0.1,0
				c15.3,0.1,30.6,0.2,45.9,0.2c12.9,0,25.7,0,38.6,0c1,0,1.9,0,2.9,0c0.7,0,1.3,0.1,2.6,0.2c0.8,8.2-2.8,18.8,10,21.1
				c0,23.2,0,46.1,0,69.5C250.4,269.9,207.5,269.9,163.9,269.9L163.9,269.9z M481.2,269.7c0-23.2,0-46.1,0-69.3
				c13.2-1.6,10.5-12,10.8-21c1.5-0.1,2.7-0.4,4-0.4c28.6,0,57.3,0,85.9,0c0,0,0,0,0.1,0c2.9,0,4.3,0.4,5.3,4
				c7.9,28.8,16.4,57.5,24.8,86.8C568.2,269.7,524.9,269.7,481.2,269.7L481.2,269.7z M481.4,610.6c0-105.9,0-211.9,0-318.4
				c40.9,0,81.5,0,122.4,0c0,106.1,0,212.1,0,318.4C563.1,610.6,522.4,610.6,481.4,610.6L481.4,610.6z M171.3,610.8
				c0-106.1,0-212,0-318.4c40.6,0,81.3,0,122.4,0c0,105.9,0,211.9,0,318.4C252.7,610.8,212.1,610.8,171.3,610.8L171.3,610.8z
				 M358.2,610.7c-0.1-1.2-0.2-2.3-0.2-3.4c0-17.3,0-34.7-0.1-52c0-2.7,0.4-4.5,3.5-5.4c4.4-1.3,6.3-5.1,6.5-9.5
				c0.1-4.2-1.2-7.9-5.5-9.5c-3.8-1.5-4.6-4-4.6-7.9c0.3-14.8,0.1-29.6,0.1-44.9c20.2,0,39.7,0,59.6,0c0,44.1,0,88.1,0,132.5
				C398,610.7,378.3,610.7,358.2,610.7L358.2,610.7z"/>
		</g>
		<g>
			<path class="st0" d="M388.4,414.1c-13,0-26.6-0.1-40.4-0.2c-6.5,0-10.1-3.8-10-10.5c0-17.2,0-34.8,0-51.7c0-9.4,0-18.8,0-28.3
				c0-6.4,3-9.5,9.5-9.5c5.5,0,11.1,0,16.6,0l61.8,0c9.1,0,12,3,12,12.4c0,11.3,0,22.5,0,33.8l0,14.2c0,2.8,0,5.7,0,8.5
				c0,6.4,0,13,0,19.5c0.1,7.6-3.7,11.5-11.1,11.5C414.5,414,401.5,414.1,388.4,414.1z M356.3,395.8h63.3v-23.6h-63.3V395.8z
				 M356.2,354.6h63.4v-23.4h-63.4V354.6z"/>
			<path class="st4" d="M364.1,316l11.9,0l11.9,0h0.1l21.8,0l16.2,0c4,0,6.7,0.7,8,2c1.4,1.4,2,4.1,2,8.3c0,11.2,0,22.5,0,33.7
				l0,14.3c0,2.8,0,5.7,0,8.5c0,6.4,0,13,0,19.5c0.1,6.5-2.7,9.5-9.1,9.5c-12.5,0.1-25.4,0.2-38.5,0.2c-13,0-26.6-0.1-40.4-0.2
				c-5.4,0-8.1-2.8-8.1-8.5c0-17.3,0-34.8,0-51.8c0-9.4,0-18.8,0-28.2c0-5.3,2.2-7.5,7.5-7.5C353,316,358.6,316,364.1,316
				 M354.2,356.6h4h59.4h4v-4v-19.4v-4h-4h-59.4h-4v4v19.4V356.6 M354.3,397.8h4h59.3h4v-4v-19.6v-4h-4h-59.3h-4v4v19.6V397.8
				 M364.1,312c-5.5,0-11.1,0-16.6,0c-7.5,0-11.5,3.9-11.5,11.5c0,26.7,0,53.3,0,80c0,8.4,4.9,12.4,12,12.5
				c13.5,0.1,26.9,0.2,40.4,0.2c12.8,0,25.7-0.1,38.5-0.2c8.5-0.1,13.1-4.8,13.1-13.6c-0.1-9.3,0-18.7,0-28c0-16,0-32,0-48
				c0-10.5-3.8-14.4-14-14.4c-5.4,0-10.8,0-16.2,0c-7.3,0-14.5,0-21.8,0c0,0,0,0-0.1,0C380,312,372.1,312,364.1,312L364.1,312z
				 M358.2,352.6c0-6.6,0-12.9,0-19.4c19.8,0,39.4,0,59.4,0c0,6.3,0,12.6,0,19.4C398,352.6,378.3,352.6,358.2,352.6L358.2,352.6z
				 M358.3,393.8c0-6.6,0-12.9,0-19.6c19.7,0,39.3,0,59.3,0c0,6.3,0,12.7,0,19.6C397.8,393.8,378.2,393.8,358.3,393.8L358.3,393.8z"
				/>
		</g>
		<g>
			<path class="st0" d="M390.8,279.1c-0.9,0-1.8,0-2.7-0.1l-0.2,0l-0.2,0c-0.8,0.1-1.5,0.1-2.3,0.1c0,0,0,0,0,0
				c-9.6,0-19.2-4.3-26.4-11.8c-7.9-8.2-11.9-19.1-11.4-30.7c0.8-17.8,17.5-37.7,40.3-37.7c0.4,0,0.9,0,1.3,0
				c19.1,0.7,39.4,16.7,38.9,41.5C427.7,260.6,409.9,279.1,390.8,279.1z M386.5,217c-11.2,0-21.2,10.4-21.3,22.3
				c-0.1,12,10.1,22.3,22.2,22.5l0.3,0c11.8,0,22.1-10.1,22.5-22c0.2-5.8-2.2-11.7-6.6-16.2c-4.1-4.2-9.4-6.7-14.6-6.7
				c-0.5,0-1,0-1.5,0.1C387.1,217,386.8,217,386.5,217z"/>
			<path class="st4" d="M387.9,200.8L387.9,200.8c0.4,0,0.8,0,1.3,0c9.5,0.3,18.9,4.6,25.9,11.6c7.4,7.5,11.3,17.3,11.1,27.8
				c-0.2,8.9-4.1,18.2-10.9,25.4c-6.8,7.3-15.8,11.5-24.5,11.5c-0.8,0-1.7,0-2.6-0.1l-0.3,0l-0.3,0c-0.7,0.1-1.4,0.1-2.2,0.1
				c-9,0-18.1-4.1-24.9-11.2c-7.5-7.8-11.3-18.2-10.8-29.3c0.4-8.3,4.6-17.4,11.4-24.2C368.5,205,378,200.8,387.9,200.8 M387.4,215
				c-0.3,0-0.6,0-1,0c-12.3,0-23.2,11.4-23.3,24.3c-0.1,6.3,2.4,12.4,7,17.1c4.6,4.7,10.7,7.3,17.2,7.4l0.3,0
				c12.8,0,24-10.9,24.5-23.9c0.2-6.3-2.4-12.7-7.2-17.7c-4.5-4.6-10.3-7.3-16-7.3C388.5,214.9,388,214.9,387.4,215 M387.9,196.8
				c-23.7,0-41.4,20.9-42.3,39.6c-1.2,25.3,18.8,44.7,39.7,44.7c0.8,0,1.6,0,2.4-0.1c1,0.1,1.9,0.1,2.9,0.1c21,0,39-20.4,39.4-40.8
				c0.5-24.7-19.5-42.8-40.8-43.5C388.9,196.8,388.4,196.8,387.9,196.8L387.9,196.8z M387.5,219c0.5-0.1,1-0.1,1.5-0.1
				c10.1,0,19.5,10.3,19.2,20.8c-0.3,10.2-9.3,20-20.5,20c-0.1,0-0.2,0-0.3,0c-11.3-0.2-20.3-9.6-20.2-20.5
				c0.1-11.1,9.4-20.3,19.3-20.3C386.8,219,387.2,219,387.5,219L387.5,219z"/>
		</g>
		<g>
			<path class="st0" d="M231.4,558c-9.8,0-19.5,0-29.3,0c-6,0-9.1-3.2-9.1-9.3c0-9.5,0-19.1,0-28.6l0-23.8c0-9.7,0-19.4,0-29.1
				c0-5.4,3.5-9.1,8.6-9.2c10.5-0.1,21.1-0.1,31.4-0.1c10.5,0,21.1,0,31.5,0.1c4.9,0,8.4,4.2,8.4,10.1c0.1,28.8,0.1,55.3,0,81
				c0,5.4-3.7,8.9-9.3,8.9C252.9,558,242.2,558,231.4,558z M211.2,539.6h43.4v-22.4h-43.4V539.6z M211.2,498.7h43.4v-22.4h-43.4
				V498.7z"/>
			<path class="st4" d="M233,459.9c10.5,0,21.1,0,31.5,0.1c3.8,0,6.4,3.3,6.5,8.1c0.1,28.9,0.1,55.4,0,80.9c0,4.3-2.8,6.9-7.3,6.9
				c-10.6,0-21.3,0-31.9,0c-9.9,0-19.7,0-29.6,0c-4.9,0-7.1-2.3-7.1-7.3c0-9.5,0-19.1,0-28.6l0-11.9l0-11.9c0-9.7,0-19.4,0-29.1
				c0-5.2,3.4-7.1,6.6-7.2C212.1,460,222.7,459.9,233,459.9 M209.2,500.7h4h39.4h4v-4v-18.4v-4h-4h-39.4h-4v4v18.4V500.7
				 M209.2,541.6h4h39.4h4v-4v-18.4v-4h-4h-39.4h-4v4v18.4V541.6 M233,455.9c-10.5,0-21,0-31.4,0.1c-6.4,0-10.6,4.8-10.6,11.2
				c0,13.7,0,27.3,0,41c0,13.5,0,27,0,40.5c0,7.2,4.1,11.3,11.1,11.3c9.9,0,19.7,0,29.6,0c10.6,0,21.3,0,31.9,0
				c6.6,0,11.3-4.3,11.3-10.9c0.1-27,0.1-54,0-81c0-6.9-4.3-12-10.4-12.1C254,456,243.5,455.9,233,455.9L233,455.9z M213.2,496.7
				c0-6.3,0-12.3,0-18.4c13.2,0,26.1,0,39.4,0c0,6,0,12,0,18.4C239.7,496.7,226.6,496.7,213.2,496.7L213.2,496.7z M213.2,537.6
				c0-6.3,0-12.2,0-18.4c13.1,0,26.1,0,39.4,0c0,5.9,0,12,0,18.4C239.7,537.6,226.7,537.6,213.2,537.6L213.2,537.6z"/>
		</g>
		<g>
			<path class="st0" d="M231.2,414.1c-10.4,0-19.6-0.1-28.3-0.2c-3.2,0-6-1.1-7.7-2.9c-1.7-1.8-2.5-4.3-2.4-7.4
				c0.4-9.4,0.3-19,0.2-28.2c0-4-0.1-7.9-0.1-11.8l0-11.8c0-9.4,0-18.8,0-28.1c0-6.9,2.5-9.5,9.3-9.5l32.6,0c9.5,0,18.9,0,28.4,0
				c6.2,0,9.7,3.4,9.7,9.6c0.1,29.9,0.1,56,0,79.9c0,7.1-3.6,10.4-11.1,10.4C252.2,414,241.8,414.1,231.2,414.1z M211.3,395.7h43.5
				v-23.3h-43.5V395.7z M211.2,354.8h43.5v-23.4h-43.5V354.8z"/>
			<path class="st4" d="M234.7,316c9.5,0,19,0,28.6,0c5.2,0,7.7,2.5,7.7,7.6c0.1,29.8,0.1,56,0,79.9c0,6-2.7,8.4-9.1,8.4
				c-9.7,0.1-20.1,0.1-30.6,0.1c-10.3,0-19.6-0.1-28.2-0.2c-2.7,0-4.9-0.9-6.3-2.3c-1.3-1.4-1.9-3.4-1.8-5.9
				c0.4-9.5,0.3-19,0.2-28.3c0-3.9-0.1-7.9-0.1-11.8l0-11.9c0-9.4,0-18.7,0-28.1c0-5.8,1.6-7.5,7.3-7.5l0.4,0
				C213.3,316,224,316,234.7,316 M209.2,356.8h4h39.5h4v-4v-19.4v-4h-4h-39.5h-4v4v19.4V356.8 M209.3,397.7h4h39.5h4v-4v-19.3v-4h-4
				h-39.5h-4v4v19.3V397.7 M234.7,312c-10.8,0-21.6,0-32.4,0c-7.8,0-11.3,3.5-11.3,11.5c0,13.3,0,26.7,0,40c0,13.3,0.4,26.7-0.1,40
				c-0.3,8.1,5.1,12.3,12.1,12.4c9.4,0.1,18.9,0.2,28.3,0.2c10.2,0,20.4-0.1,30.7-0.1c8.7-0.1,13.1-4.3,13.1-12.4
				c0.1-26.7,0.1-53.3,0-80c0-7.3-4.4-11.6-11.7-11.6C253.7,312,244.2,312,234.7,312L234.7,312z M213.2,352.8c0-6.6,0-12.8,0-19.4
				c13.1,0,26.2,0,39.5,0c0,6.4,0,12.8,0,19.4C239.6,352.8,226.7,352.8,213.2,352.8L213.2,352.8z M213.3,393.7c0-6.3,0-12.6,0-19.3
				c12.9,0,25.9,0,39.5,0c0,6.4,0,12.7,0,19.3C239.6,393.7,226.6,393.7,213.3,393.7L213.3,393.7z"/>
		</g>
		<g>
			<path class="st0" d="M543.4,558c-11.1,0-22.2,0-33.2-0.1c-4.4,0-8.1-3.9-8.1-8.6c-0.1-26-0.1-53,0-82.4c0-5.1,3.8-8.9,9-8.9
				c10.8-0.1,21.4-0.1,31.6-0.1c10.3,0,20.5,0,30.3,0.1c5.9,0,9.1,3.2,9.1,9.3l0,53c0,9.8,0,19.6,0,29.4c0,5.5-2.6,8.2-8,8.2
				C564.4,558,554.4,558,543.4,558z M520.4,539.7h44.4v-22.4h-44.4V539.7z M520.3,498.8h44.3v-22.6h-44.3V498.8z"/>
			<path class="st4" d="M542.6,460c10.3,0,20.5,0,30.3,0.1c4.8,0,7.1,2.3,7.1,7.3c0,9.8,0,19.5,0,29.3l0,11.7l0,12.1
				c0,9.8,0,19.6,0,29.4c0,4.4-1.7,6.2-6,6.2c-9.6,0-19.7,0.1-30.7,0.1c-9.9,0-20.4,0-33.2-0.1c-3.3,0-6.1-3-6.1-6.7
				c-0.1-26.1-0.1-53,0-82.4c0-4,2.9-6.9,7-6.9C521.8,460,532.4,460,542.6,460 M518.3,500.8h4h40.3h4v-4v-18.6v-4h-4h-40.3h-4v4
				v18.6V500.8 M518.4,541.7h4h40.4h4v-4v-18.4v-4h-4h-40.4h-4v4v18.4V541.7 M542.6,456c-10.5,0-21.1,0-31.6,0.1
				c-6.2,0-10.9,4.7-11,10.9c-0.1,27.5-0.1,54.9,0,82.4c0,6,4.6,10.6,10.1,10.6c11.1,0,22.1,0.1,33.2,0.1c10.2,0,20.5,0,30.7-0.1
				c6.5,0,9.9-3.7,9.9-10.2c0-13.8,0-27.6,0-41.5c0-13.7,0-27.3,0-41c0-7-3.9-11.3-11.1-11.3C562.8,456,552.7,456,542.6,456
				L542.6,456z M522.3,496.8c0-6.2,0-12.3,0-18.6c13.4,0,26.7,0,40.3,0c0,6,0,12,0,18.6C549.1,496.8,535.8,496.8,522.3,496.8
				L522.3,496.8z M522.4,537.7c0-5.9,0-12,0-18.4c13.2,0,26.6,0,40.4,0c0,6.3,0,12.2,0,18.4C549.3,537.7,536.1,537.7,522.4,537.7
				L522.4,537.7z"/>
		</g>
		<g>
			<path class="st0" d="M540.5,414.1c-10.5,0-19.9-0.1-28.6-0.2c-4.5-0.1-9.9-1.9-9.9-10.1c0-26.8,0-53.6,0-80.5
				c0-6,3.3-9.3,9.2-9.3c10.2,0,20.3,0,30.5,0c10.7,0,21.3,0,32,0c5.7,0,8.3,2.6,8.3,8.4c0,9.7,0,19.4,0,29l0,12
				c0,3.9,0,7.8-0.1,11.7c-0.1,9.3-0.2,18.9,0.2,28.3c0.1,3.2-0.7,5.8-2.5,7.7c-1.8,1.9-4.5,2.9-7.8,2.9
				C561.9,414,551.2,414.1,540.5,414.1z M520.2,395.6h44.4v-23.4h-44.4V395.6z M520.2,354.6h44.4v-23.4h-44.4V354.6z"/>
			<path class="st4" d="M541.8,316c10.6,0,21.2,0,31.8,0c4.6,0,6.3,1.7,6.3,6.4c0,9.6,0,19.3,0,28.9l0,12c0,3.9,0,7.9-0.1,11.7
				c-0.1,9.3-0.2,18.9,0.2,28.4c0.1,1.8-0.2,4.4-2,6.2c-1.4,1.5-3.6,2.2-6.4,2.3c-10,0.1-20.6,0.1-31.3,0.1
				c-10.5,0-19.9-0.1-28.6-0.2c-5.4-0.1-7.9-2.7-7.9-8.1c0-31.2,0-56.8,0-80.5c0-4.9,2.4-7.3,7.2-7.3C521.4,316,531.6,316,541.8,316
				 M518.2,356.6h4h40.4h4v-4v-19.4v-4h-4h-40.4h-4v4v19.4V356.6 M518.2,397.6h4h40.4h4v-4v-19.4v-4h-4h-40.4h-4v4v19.4V397.6
				 M541.8,312c-10.2,0-20.4,0-30.6,0c-7.1,0-11.2,4.2-11.2,11.3c0,26.8,0,53.7,0,80.5c0,8.3,5,12,11.9,12.1
				c9.5,0.1,19.1,0.2,28.6,0.2c10.4,0,20.9-0.1,31.3-0.1c8.5-0.1,12.6-5.6,12.3-12.6c-0.5-13.3-0.2-26.7-0.2-40c0-13.7,0-27.3,0-41
				c0-6.8-3.5-10.4-10.3-10.4C563.1,312,552.5,312,541.8,312L541.8,312z M522.2,352.6c0-6.6,0-12.9,0-19.4c13.5,0,26.7,0,40.4,0
				c0,6.3,0,12.6,0,19.4C549.4,352.6,536,352.6,522.2,352.6L522.2,352.6z M522.2,393.6c0-6.6,0-12.9,0-19.4c13.5,0,26.7,0,40.4,0
				c0,6.3,0,12.6,0,19.4C549.4,393.6,536,393.6,522.2,393.6L522.2,393.6z"/>
		</g>
	</g>
</g>
<g id="airbnb" class="st1">
	<g class="st2">
		<g>
			<path class="st0" d="M390,621c-89,0-178,0-267,0c-5.7,0-8-2.3-8-7.9c0-22.9,0-100.1,0-100.1l-5,0c-0.7,0-1.4,0-2.1,0
				c-3,0-5.1-0.7-6.4-2.1c-1.2-1.3-1.7-3.2-1.5-5.9c0.7-9.5,1.9-19,3.1-28.3c0.8-6.1,1.7-12.3,2.6-18.3c0.4-2.6,0.8-5.3,1.2-7.9
				l1.4-9.8c1.1-7.7,2.3-15.5,3.4-23.2l0.1-0.7c0.4-3,0.9-6.1,1.1-9.1c0.4-6,3.3-8.7,9.3-8.7c12.2,0,24.4,0,36.5,0l49.6,0l0.9-7.8
				c0.6-5.1,1.1-10.1,1.7-15.1c0.5-4.1,1-8.2,1.5-12.3c0.8-6.7,1.6-13.6,2.4-20.4c0.5-4.6,0.9-9.3,1.1-13.8c0.3-5.1,2.6-7.5,7.5-7.5
				c23.9,0,133,0,133,0h7.2v-57.5l-1.8-2.2l-0.8,0.8c-0.8,0.9-1.6,1.8-2.3,2.6c-1.8,2-3.6,4-5.2,6.1c-1.6,2-4.3,3.3-6.9,3.3
				c-1.5,0-2.8-0.4-3.7-1.2c-1.8-1.5-2.8-3.4-2.9-5.4c-0.1-2,0.6-4,2.2-5.8c2.7-3,5.5-6,8.3-8.9c1.4-1.5,2.8-3,4.2-4.5
				c2-2.2,4-4.3,6-6.5c6.3-6.8,12.9-13.9,19.2-20.9c1.5-1.7,2.1-4.5,2.1-6.4c0.1-24.4,0.1-49.3,0.1-73.3l0-20.2c0-7,2-9,9.1-9
				c6.6,0,13.1,0,19.7,0c5.8,0,11.5,0,17.3,0c7.2,0,9.9,2.7,9.9,10.1c0,7.6,0,15.3,0,23.3l0,13.4l46.1-49.4l-0.6-0.7
				c-2.7-2.9-5.5-5.8-8.3-8.8c-7.6-8.1-15.5-16.4-23-24.9c-2.1-2.3-3.9-6.5-3.4-8.9c0.8-3.4,3.2-5.5,6.5-5.5c2.4,0,4.9,1.2,6.8,3.3
				c8.2,9,16.5,17.9,24.2,26.3c7.1,7.7,14.2,15.3,21.4,22.9c6.8,7.2,13.5,14.5,20.3,21.7c4.2,4.5,8.3,9,12.5,13.5
				c4,4.4,8.1,8.7,12.1,13.1c7.1,7.6,14.2,15.3,21.3,22.9c6.7,7.1,13.3,14.3,20,21.4c5.2,5.6,10.3,11.1,15.5,16.7
				c3.3,3.5,6.6,7.1,9.8,10.6l6.3,6.8c6.3,6.8,12.9,13.9,19.4,20.8c2.2,2.3,3.2,4.7,3.1,7c-0.1,2-1.2,3.8-2.9,5.2
				c-0.9,0.7-2.2,1.1-3.7,1.1c-3,0-6.2-1.5-8-3.8c-2.1-2.5-4.2-4.9-6.6-7.6c-1.1-1.3-2.3-2.6-3.5-4l-1.6-1.8l-0.2,2.4
				c-0.1,0.9-0.1,1.7-0.2,2.3c-0.1,1.2-0.2,2.1-0.2,3.1c0,12.8,0,25.7,0,38.5c0,35.1,0,71.3-0.1,107c0,4.3,1.4,6,5.8,6.9
				c19.2,4.2,32.4,17,37.2,36c0.7,2.6,1,5.6,1,9c0.1,42.9,0,86.5,0,128.7l0,21.3c0,5.6-2.3,7.9-8,7.9C568,621,479,621,390,621z
				 M446.5,607.8l1.6-1.2c1.4-1.1,2.3-2.3,2.8-3.8c9.2-32.6,28.8-58.5,58.3-77c1.9-1.2,3.6-4.2,3.6-6.6c0.2-7.7,0.2-15.5,0.2-23
				c0-2.7,0-5.3,0-8v-14h-66.5V607.8z M208.4,606.9h11.3v-93.6h-11.3V606.9z M410.4,606.7H432l0-38.7c0-33.1,0-66.3,0-99.4
				c0-6.3,2.2-8.6,8.4-8.6h0.4c7.1,0,14.1,0,21.2,0c7.1,0,14.1,0,21.2,0c11.2,0,20.3-0.1,28.8-0.2c1,0,1.9,0,2.8,0
				c5.4,0,8.8,0.3,10.5,2c1.9,2,2,6.4,1.9,13.4c-0.1,9.1-0.1,18-0.1,27.4c0,4.1,0,8.3,0,12.6v1.5l1.4-0.6
				c26.9-11.6,54.4-14.3,77.7-15.4l1,0l0-137.4c0-38.2,0-77.7-0.1-116.5c0-1.3-0.2-4.6-1.9-6.5c-11.4-12.6-23.7-25.8-39.8-43
				c-7.2-7.7-14.6-15.5-21.8-23c-4.7-5-9.4-9.9-14.1-14.9c-5.3-5.6-9.9-10.6-14.2-15.3c-4.6-5.1-9.2-10.2-14-15.5
				c-2.1-2.3-7.2-8-7.2-8l-0.7,0.9c-1.2,1.3-2.2,2.6-3.3,3.8c-2.1,2.4-4,4.8-6,6.9c-8.3,9-16.6,17.9-25,26.8
				c-5.3,5.7-10.6,11.4-16,17.1c-3.3,3.6-6.6,7.2-10,10.8c-4.9,5.3-10,10.8-15,16.2c-11.2,11.9-23.2,24.7-35.2,37.1
				c-2.7,2.8-3.8,5.4-3.8,8.9C379,285.8,379,323,379,359l0,34l23.5,0c5.5,0,10.9,0,16.3,0c5.8,0,9.1,3,9.1,8.5
				c0.2,18.2,0.2,34.5,0,50c-0.1,5.9-2.9,8.5-9.3,8.5h-8.2V606.7z M129.2,606.7h10.4v-93.4h-10.4V606.7z M649.3,504.8
				c-2.3,1-4.7,2.1-6.9,3.1c-5,2.4-10.2,4.8-15.6,5.8c-6.2,1.2-12.6,1.4-18.9,1.6c-4.3,0.2-8.7,0.3-13,0.8l-2.1,0.2
				c-11.4,1.2-23.1,2.4-34.4,4.9c-24.1,5.3-45.1,16.3-62.1,32.6c-9.5,9.1-17.3,19.5-23.1,30.9c-2.3,4.5-4.1,9-6.1,13.9
				c-0.9,2.2-1.8,4.4-2.7,6.7l-0.6,1.4h186.9V504.2L649.3,504.8z M181.3,606.6h12.3v-93.5h-12.3V606.6z M234.3,606.6h161.4V460.2
				H346l0,26.1c0,17.2,0,34.4,0,51.6c0,6-3,9-8.9,9c-10.2,0-20.4,0-30.5,0c-9.6,0-19.3,0-28.9,0c-2.8,0-5-0.8-6.6-2.4
				c-1.5-1.5-2.2-3.7-2.2-6.2c0.3-17.5,0.2-35.3,0.2-52.6c0-6.5,0-12.9,0-19.4v-6.1h-34.7V606.6z M154.3,606.6h12.4v-93.4h-12.4
				V606.6z M283.3,532.8h16.4v-72.4h-16.4V532.8z M314.3,532.6h17.4v-72.4h-17.4V532.6z M621.2,500.8l1.2-0.3
				c5.7-1.4,13.1-3.9,19.3-10.6l1.6-1.7h-22.1V500.8z M114.7,498.7h105V460l-6.6,0c-1.1,0-2.1,0-3.2,0c-2.5,0-4.4-0.8-5.7-2.2
				c-1.3-1.5-1.8-3.7-1.4-6.4c0.4-2.6,0.6-5.2,0.7-7.8c0.1-1.8,0.3-3.7,0.5-5.5c0.6-5.5,1.2-10.9,1.9-16.6c0.3-2.3,0.9-8.2,0.9-8.2
				h-80.3L114.7,498.7z M621.3,473.8h29.4v-11.4h-29.4V473.8z M621.3,447.8h25l-1.3-1.6c-6.7-8.3-13.6-12.8-22.5-14.4l-1.2-0.2
				V447.8z M217.5,445.7h195.2V407h-1c-3.8,0-7.5,0-11.3,0c-3.7,0-7.4,0-11,0c-6.8,0-12.4,0-17.5,0.1l-0.1,0c-4,0-6.1-1.5-6.7-4.9
				c-0.1-0.5-0.2-0.9-0.3-1.4c-0.3-1.6-0.7-3.2-0.7-4.7c-0.1-15.1-0.1-30.5,0-45.4l0-14.3H229.5L217.5,445.7z M396.4,204.7l1.7-1.9
				c1.6-1.7,3-3.3,4.4-4.9c3-3.4,5.8-6.6,8.9-9.4c9.3-8.4,12.9-17,11.7-28c-0.8-7.3-0.6-14.9-0.4-22.3c0.1-3.3,0.2-6.7,0.2-10.1v-1
				h-26.6V204.7z"/>
			<path class="st4" d="M455.3,62.7c2.1,0,4.3,1.1,6.1,3c8.2,9,16.5,17.9,24.2,26.3c7.1,7.7,14.3,15.3,21.4,22.9
				c6.8,7.2,13.5,14.5,20.3,21.7c4.2,4.5,8.4,9.1,12.5,13.5c4,4.4,8.1,8.7,12.1,13.1c7.1,7.7,14.3,15.4,21.5,23
				c6.6,7.1,13.2,14.2,19.8,21.3c5.2,5.5,10.3,11.1,15.4,16.7c3.3,3.5,6.6,7.1,9.9,10.6c2.1,2.3,4.2,4.5,6.3,6.8
				c6.3,6.8,12.9,13.9,19.4,20.8c2,2.1,2.9,4.2,2.8,6.3c-0.2,2.3-1.7,3.8-2.5,4.5c-0.8,0.6-1.8,0.9-3.1,0.9c-2.7,0-5.6-1.4-7.3-3.4
				c-2.1-2.5-4.3-5-6.6-7.7c-1.1-1.3-2.3-2.6-3.5-4l-3.2-3.6l-0.3,4.8c-0.1,0.9-0.1,1.7-0.2,2.3c-0.1,1.2-0.2,2.2-0.2,3.1
				c0,12.8,0,25.6,0,38.5c0,35.1,0,71.3-0.1,107c0,4.8,1.7,6.9,6.6,7.9c18.8,4.1,31.8,16.6,36.5,35.2c0.6,2.5,1,5.4,1,8.8
				c0.1,42.8,0,86.4,0,128.5l0,21.4c0,5-1.9,6.9-7,6.9c-88.5,0-177,0-265.6,0c-89.5,0-178.9,0-268.4,0c-5.1,0-7-1.9-7-6.9
				c0-23,0-46.1,0-69.1l0-23.8V514v-2h-2c-0.8,0-1.6,0-2.3,0c-0.6,0-1.2,0-1.8,0c-0.7,0-1.4,0-2,0c-2.7,0-4.6-0.6-5.7-1.8
				c-1-1.1-1.4-2.8-1.2-5.1c0.7-9.4,1.9-19,3.1-28.3c0.8-6.1,1.7-12.3,2.6-18.3c0.4-2.6,0.8-5.3,1.2-7.9c0.5-3.3,1-6.6,1.4-9.9
				c1.1-7.6,2.2-15.4,3.4-23.1l0.1-0.7c0.4-3,0.9-6.1,1.1-9.2c0.4-5.5,2.8-7.8,8.3-7.8c12.2,0,24.4,0,36.6,0l21.4,0l21.4,0h5.7h1.8
				l0.2-1.8c0.3-2.3,0.5-4.6,0.8-6.9c0.6-5.1,1.1-10.1,1.7-15.1c0.5-4.1,1-8.2,1.5-12.3c0.8-6.7,1.6-13.6,2.4-20.4
				c0.5-4.6,0.9-9.3,1.1-13.9c0.2-4.6,2.2-6.5,6.5-6.5c23.6,0,47.2,0,70.9,0l31.1,0l31.1,0h6.2h2v-2v-56.1v-0.7l-0.5-0.6l-0.4-0.5
				l-0.4-0.5l-1.5-1.8l-1.5,1.8c-0.8,0.9-1.6,1.8-2.3,2.6c-1.8,2-3.6,4-5.3,6.2c-1.4,1.8-3.8,2.9-6.1,2.9c-0.9,0-2.1-0.2-3.1-1
				c-1.6-1.3-2.5-3-2.6-4.7c-0.1-1.8,0.6-3.5,2-5c2.7-3,5.5-6,8.2-8.9c1.4-1.5,2.8-3,4.2-4.5c2-2.1,4-4.3,6-6.4
				c6.4-6.8,12.9-13.9,19.2-21c1.7-1.9,2.4-4.9,2.4-7.1c0.1-24.4,0.1-49.3,0.1-73.3c0-6.7,0-13.4,0-20.2c0-6.4,1.7-8,8.1-8
				c6.4,0,12.9,0,19.3,0c5.9,0,11.8,0,17.7,0c6.6,0,8.9,2.3,8.9,9.1c0,7.6,0,15.2,0,23.3c0,3.5,0,7.2,0,10.9v5.1l3.5-3.7l43.8-46.9
				l1.3-1.4l-1.3-1.4c-2.7-2.9-5.5-5.8-8.3-8.8c-7.6-8.1-15.5-16.4-23-24.8c-2.1-2.4-3.6-6.1-3.1-8
				C450.5,64.5,452.6,62.7,455.3,62.7 M378,394h2l11.6,0l11.2,0c5.4,0,10.7,0,16,0c3.7,0,8.1,1.3,8.1,7.6c0.2,18.2,0.2,34.5,0,49.9
				c-0.1,5.4-2.4,7.5-8.3,7.5l-2.7,0l-2.3,0l-2.2,0h-2v2v144.7v2h2H431h2v-2v-6.1l0-32.3c0-32.9,0-65.8,0-98.7
				c0-5.8,1.7-7.6,7.4-7.6h0.3c7.1,0,14.2,0,21.2,0c6.9,0,14.1,0,21.2,0c11.2,0,20.3-0.1,28.8-0.2c1,0,1.9,0,2.8,0
				c5.9,0,8.6,0.5,9.8,1.7c1.6,1.6,1.7,5.9,1.6,12.7c-0.1,9.1-0.1,18-0.1,27.4c0,4.1,0,8.3,0,12.6v3l2.8-1.2
				c26.8-11.5,54.1-14.2,77.3-15.3l1.9-0.1v-1.9v-6v-109l0-21.5c0-38.2,0-77.7-0.1-116.5c0-1.4-0.2-5-2.2-7.2
				c-11.5-12.6-23.7-25.8-39.8-43c-7.2-7.7-14.6-15.5-21.8-23c-4.7-5-9.4-9.9-14.1-14.9c-5.3-5.6-9.9-10.6-14.2-15.3
				c-4.6-5.1-9.2-10.1-14-15.5c-2.1-2.3-4.2-4.7-6.4-7.2l-1.5-1.7l-1.5,1.7c-1.2,1.3-2.2,2.6-3.3,3.8c-2.1,2.4-4,4.7-6,6.9
				c-8.3,8.9-16.7,18-24.9,26.8c-5.3,5.7-10.7,11.5-16,17.2c-3.3,3.6-6.7,7.2-10,10.8c-4.9,5.3-10,10.8-15,16.1
				c-11.2,11.9-23.2,24.6-35.2,37.1c-2.9,3-4.1,5.8-4.1,9.6c0.1,36.6,0.1,73.9,0.1,109.9c0,9.2,0,18.4,0,27.5v5.4V394 M395.4,207.3
				l3.5-3.8c1.6-1.7,3-3.3,4.4-4.9c3-3.4,5.8-6.5,8.9-9.3c9.5-8.6,13.2-17.5,12-28.8c-0.8-7.2-0.6-14.5-0.4-22.1
				c0.1-3.3,0.2-6.7,0.2-10.1v-2h-2h-24.6h-2v2v73.9V207.3 M216.4,446.7h2.2h193h2v-2V408v-2h-2c-3.8,0-7.6,0-11.3,0
				c-3.7,0-7.4,0-11.1,0c-6.8,0-12.4,0-17.5,0.1l-0.1,0c-3.6,0-5.2-1.2-5.7-4.1c-0.1-0.5-0.2-0.9-0.3-1.4c-0.3-1.6-0.6-3.1-0.6-4.5
				c-0.1-15.1-0.1-30.5,0-45.4l0-13.3v-2h-2H230.4h-1.8l-0.2,1.8l-11.8,107.3L216.4,446.7 M113.5,499.7h2.3h102.8h2v-2V461v-2h-2
				c-1,0-2,0-2.9,0c-0.9,0-1.8,0-2.7,0c-1.1,0-2.1,0-3.2,0c-1.5,0-3.6-0.4-4.9-1.9c-1.1-1.3-1.5-3.2-1.2-5.6
				c0.4-2.6,0.6-5.3,0.7-7.9c0.1-1.8,0.3-3.7,0.5-5.5c0.6-5.5,1.2-10.8,1.9-16.5c0.3-2.4,0.5-4.7,0.8-7.1l0.3-2.2h-2.2h-78.3h-1.7
				l-0.2,1.7l-11.5,83.4L113.5,499.7 M620.3,448.8h2h21.9h4.2l-2.6-3.3c-6.9-8.5-14-13.1-23.1-14.8l-2.4-0.4v2.4v14V448.8
				 M313.3,533.6h2h15.4h2v-2v-70.4v-2h-2h-15.4h-2v2v70.4V533.6 M306.5,546c-10.4,0-19.9,0-28.9,0c-2.5,0-4.5-0.7-5.9-2.1
				c-1.3-1.3-1.9-3.2-1.9-5.5c0.3-17.5,0.2-35.4,0.2-52.6c0-6.5,0-12.9,0-19.4v-5.1v-2h-2h-32.7h-2v2v144.3v2h2h159.4h2v-2V461.2v-2
				h-2H347h-2v2v5.8l0,19.5c0,16.9,0,34.3,0,51.5c0,5.4-2.6,8-7.9,8C326.9,546,316.7,546,306.5,546 M282.3,533.8h2h14.4h2v-2v-70.4
				v-2h-2h-14.4h-2v2v70.4V533.8 M620.3,474.8h2h27.4h2v-2v-9.4v-2h-2h-27.4h-2v2v9.4V474.8 M445.5,609.8l3.2-2.3
				c1.6-1.2,2.7-2.6,3.1-4.4c4.6-16.3,11.9-31.1,21.6-43.8c9.6-12.5,21.8-23.5,36.3-32.7c2.2-1.4,4-4.7,4.1-7.4
				c0.2-7.7,0.2-15.5,0.2-23c0-2.7,0-5.3,0-8v-13v-2h-2h-64.5h-2v2v130.6V609.8 M620.2,502.1l2.5-0.6c5.9-1.5,13.4-4,19.8-10.8
				l3.1-3.4H641h-18.8h-2v2v10.3V502.1 M462.3,607.6h3h184.4h2v-2v-99.9v-3l-2.8,1.1c-2.3,1-4.7,2.1-7,3.1c-5,2.3-10.1,4.8-15.4,5.7
				c-6.1,1.1-12.5,1.4-18.8,1.6c-4.3,0.2-8.7,0.3-13.1,0.8l-2.1,0.2c-11.4,1.2-23.2,2.4-34.6,4.9c-24.3,5.4-45.4,16.4-62.6,32.9
				c-9.6,9.2-17.5,19.7-23.3,31.1c-2.3,4.5-4.1,9.1-6.1,14c-0.9,2.2-1.8,4.4-2.7,6.6L462.3,607.6 M180.3,607.6h2h10.3h2v-2v-91.5v-2
				h-2h-10.3h-2v2v91.5V607.6 M153.3,607.6h2h10.4h2v-2v-91.4v-2h-2h-10.4h-2v2v91.4V607.6 M128.2,607.7h2h8.4h2v-2v-91.4v-2h-2
				h-8.4h-2v2v91.4V607.7 M207.4,607.9h2h9.3h2v-2v-91.6v-2h-2h-9.3h-2v2v91.6V607.9 M455.3,60.7c-3.4,0-6.5,2.1-7.4,6.2
				c-0.7,2.9,1.4,7.3,3.6,9.8c10.2,11.5,20.9,22.5,31.3,33.6c-14.5,15.5-28.8,30.8-43.8,46.9c0-12.2,0-23.2,0-34.2
				c0-7.9-3.2-11.1-10.9-11.1c-5.9,0-11.8,0-17.7,0c-6.4,0-12.9,0-19.3,0c-7.6,0-10.1,2.5-10.1,10c0,31.2,0,62.3-0.1,93.5
				c0,1.9-0.6,4.3-1.9,5.7c-8.3,9.3-16.8,18.3-25.2,27.4c-4.2,4.5-8.4,8.9-12.5,13.5c-3.6,4-3.2,9.2,0.8,12.6c1.2,1,2.7,1.5,4.4,1.5
				c2.8,0,5.8-1.3,7.7-3.7c2.4-3,5-5.8,7.6-8.7c0.3,0.4,0.6,0.7,0.9,1.1c0,18.6,0,37.2,0,56.1c-2.3,0-4.2,0-6.2,0
				c-20.7,0-41.4,0-62.1,0c-23.6,0-47.2,0-70.9,0c-5.5,0-8.3,2.8-8.5,8.5c-0.2,4.6-0.6,9.2-1.1,13.8c-1.2,10.9-2.6,21.8-3.9,32.7
				c-0.9,7.3-1.7,14.6-2.5,22.1c-2.1,0-3.9,0-5.7,0c-14.3,0-28.6,0-42.9,0c-12.2,0-24.4,0-36.6,0c-6.7,0-9.9,3.1-10.3,9.6
				c-0.2,3.3-0.7,6.5-1.2,9.8c-1.6,11-3.2,22-4.8,33c-1.3,8.7-2.7,17.5-3.8,26.2c-1.2,9.4-2.4,18.9-3.1,28.4c-0.5,6.2,2.6,9,8.8,9
				c0.7,0,1.3,0,2.1,0c1.2,0,2.5,0,4,0c0,2.5,0,4.3,0,6.1c0,31,0,62,0,93c0,6.1,2.8,8.9,9,8.9c89.5,0,178.9,0,268.4,0
				c88.5,0,177,0,265.6,0c6.3,0,9-2.8,9-8.9c0-50,0-100,0-150c0-3.1-0.3-6.3-1-9.3c-5.1-20.1-19.4-32.6-38-36.7c-4-0.9-5.1-2.1-5-6
				c0.1-48.5,0.1-97,0.1-145.5c0-1.4,0.2-2.8,0.4-5.3c3.9,4.4,7.1,7.9,10.1,11.6c2.1,2.6,5.7,4.2,8.8,4.2c1.7,0,3.2-0.4,4.4-1.4
				c3.5-2.8,5.3-8.1-0.1-13.7c-8.6-9.2-17.1-18.4-25.7-27.6c-8.4-9.1-16.8-18.2-25.3-27.3c-13.8-14.8-27.5-29.5-41.3-44.3
				c-8.2-8.8-16.4-17.7-24.6-26.6c-13.9-14.9-27.8-29.8-41.7-44.7c-8.1-8.7-16.2-17.4-24.2-26.3C460.7,61.9,457.9,60.7,455.3,60.7
				L455.3,60.7z M380,392c0-2.1,0-3.7,0-5.4c0-45.8,0-91.7-0.1-137.5c0-3.5,1.2-5.8,3.5-8.2c11.9-12.3,23.6-24.7,35.3-37.2
				c8.4-8.9,16.6-18,25-26.9c13.6-14.7,27.3-29.3,40.9-44c3-3.3,5.8-6.7,9.3-10.8c7.2,8,13.8,15.4,20.5,22.7
				c4.7,5.1,9.4,10.2,14.2,15.3c12,12.7,24,25.2,35.9,37.9c13.4,14.2,26.7,28.5,39.8,43c1.2,1.3,1.6,3.9,1.6,5.8
				c0.1,46,0.1,92,0.1,138c0,36.3,0,72.7,0,109c0,1.8,0,3.6,0,6c-26.7,1.3-52.8,4.6-78,15.5c0-13.7-0.1-26.8,0-39.9
				c0.2-14.3-0.3-16.5-13.4-16.5c-0.9,0-1.8,0-2.8,0c-9.6,0.2-19.2,0.2-28.8,0.2c-14.1,0-28.3-0.1-42.4-0.1c-0.1,0-0.2,0-0.3,0
				c-6.7,0-9.4,2.7-9.4,9.6c0,43.7,0,87.3,0,131c0,2,0,3.9,0,6.1c-6.7,0-13,0-19.6,0c0-48,0-96,0-144.7c1.5,0,3,0,4.5,0
				c0.9,0,1.8,0,2.7,0c6.8,0,10.2-2.8,10.3-9.5c0.2-16.7,0.2-33.3,0-50c-0.1-6.2-3.9-9.5-10.1-9.5c-5.3,0-10.7,0-16,0
				C395.3,392,387.7,392,380,392L380,392z M422,128.2c0,11-0.9,21.8,0.2,32.4c1.2,11.6-3.2,19.8-11.4,27.1
				c-4.6,4.2-8.6,9.1-13.4,14.4c0-25,0-49.2,0-73.9C405.6,128.2,413.5,128.2,422,128.2L422,128.2z M363,337.3c0,19.8,0,39.3,0,58.7
				c0,2.1,0.6,4.2,1,6.2c0.8,4.3,3.6,5.7,7.7,5.7c0,0,0.1,0,0.1,0c5.8,0,11.6-0.1,17.4-0.1c7.4,0,14.8,0,22.4,0
				c0,12.3,0,24.3,0,36.7c-64,0-128,0-193,0c3.9-35.8,7.9-71.4,11.8-107.3C274.3,337.3,318.3,337.3,363,337.3L363,337.3z
				 M205.7,414.3c-0.9,8.1-1.8,15.8-2.7,23.6c-0.5,4.4-0.6,8.9-1.2,13.3c-0.8,5.9,2.2,9.7,8.1,9.8c1.1,0,2.1,0,3.2,0
				c1.8,0,3.6,0,5.6,0c0,12.3,0,24.4,0,36.7c-34.1,0-68.1,0-102.8,0c3.9-27.8,7.7-55.4,11.5-83.4
				C153.3,414.3,179.4,414.3,205.7,414.3L205.7,414.3z M622.3,446.8c0-4.5,0-8.9,0-14c9.3,1.7,15.9,6.5,21.9,14
				C636.4,446.8,629.5,446.8,622.3,446.8L622.3,446.8z M315.3,531.6c0-23.2,0-46.6,0-70.4c5.3,0,10.2,0,15.4,0c0,23.5,0,46.7,0,70.4
				C325.8,531.6,320.8,531.6,315.3,531.6L315.3,531.6z M306.5,548c10.2,0,20.4,0,30.6,0c6.5,0,9.9-3.5,9.9-10c0-23.7,0-47.3,0-71
				c0-1.8,0-3.6,0-5.8c16.3,0,31.9,0,47.8,0c0,48.2,0,96.1,0,144.4c-53,0-106,0-159.4,0c0-48,0-96,0-144.3c10.6,0,21.2,0,32.7,0
				c0,1.6,0,3.3,0,5.1c0,24,0.2,48-0.1,72c-0.1,5.9,3.6,9.6,9.7,9.6C287.2,548,296.9,548,306.5,548L306.5,548z M284.3,531.8
				c0-23.5,0-46.7,0-70.4c4.6,0,9.3,0,14.4,0c0,23.2,0,46.6,0,70.4C293.7,531.8,289.1,531.8,284.3,531.8L284.3,531.8z M622.3,472.8
				c0-3.1,0-6.1,0-9.4c8.9,0,17.9,0,27.4,0c0,2.9,0,5.9,0,9.4C640.4,472.8,631.5,472.8,622.3,472.8L622.3,472.8z M447.5,605.8
				c0-43.4,0-86.8,0-130.6c21.4,0,42.6,0,64.5,0c0,4.4,0,8.7,0,13c0,10.3,0.2,20.7-0.1,31c-0.1,2-1.5,4.7-3.2,5.8
				c-29.4,18.5-49.3,44.1-58.7,77.6C449.6,603.7,448.9,604.8,447.5,605.8L447.5,605.8z M641,489.3c-5.4,5.9-11.8,8.5-18.8,10.3
				c0-3.4,0-6.7,0-10.3C628.3,489.3,634.2,489.3,641,489.3L641,489.3z M465.3,605.6c3-7.2,5.5-14,8.8-20.5
				c5.8-11.5,13.6-21.7,22.9-30.6c17.4-16.7,38.3-27.2,61.7-32.4c11.9-2.6,24.2-3.8,36.4-5.1c10.6-1.1,21.6-0.4,32-2.4
				c7.9-1.5,15.2-5.9,22.7-9c0,32.5,0,66.1,0,99.9C588.6,605.6,527.4,605.6,465.3,605.6L465.3,605.6z M182.3,605.6
				c0-30.3,0-60.7,0-91.5c3.6,0,6.7,0,10.3,0c0,30.4,0,60.8,0,91.5C189.4,605.6,186,605.6,182.3,605.6L182.3,605.6z M155.3,605.6
				c0-30.3,0-60.6,0-91.4c3.6,0,6.9,0,10.4,0c0,30.5,0,60.7,0,91.4C162.4,605.6,159.1,605.6,155.3,605.6L155.3,605.6z M130.2,605.7
				c0-30.7,0-60.9,0-91.4c2.8,0,5.4,0,8.4,0c0,30.3,0,60.7,0,91.4C136,605.7,133.3,605.7,130.2,605.7L130.2,605.7z M209.4,605.9
				c0-30.5,0-60.8,0-91.6c3,0,6,0,9.3,0c0,30.4,0,60.8,0,91.6C215.4,605.9,212.6,605.9,209.4,605.9L209.4,605.9z"/>
		</g>
		<g>
			<path class="st0" d="M518.9,383.2c-6.5,0-7.9-4.8-7.9-8.9c0-8.8,0-17.6,0-26.3l0-26.2c0-12.6,0-25.3,0-37.9c0-8,1.8-9.9,9.8-9.9
				l31.7,0c8.2,0,16.5,0,24.7,0c6.6,0,8.7,2.2,8.8,8.9c0,10.9,0,21.8,0,32.6l0,13.3l0,13.2c0,10.9,0,21.8,0,32.8
				c0,5.9-2.3,8.2-8.2,8.2h-0.3c-5.5,0-10.9,0-16.4,0c-5.5,0-10.9,0-16.4,0c-10,0-18,0.1-25.5,0.3L518.9,383.2z M556.3,368.8h15.3
				v-32.6h-15.3V368.8z M525.4,368.6h16.4v-32.4h-16.4V368.6z M556.3,321.8h15.4v-33.5h-15.4V321.8z M525.3,321.8h16.4v-33.4h-16.4
				V321.8z"/>
			<path class="st4" d="M551.8,275c8.5,0,16.9,0,25.4,0c6.1,0,7.7,1.7,7.8,7.9c0,10.9,0,21.9,0,32.6c0,4.5,0,8.9,0,13.4l0,13.2
				c0,10.9,0,21.8,0,32.8c0,5.4-1.8,7.2-7.2,7.2h-0.3c-5.5,0-11,0-16.4,0c-5.4,0-10.9,0-16.4,0c-10,0-18.1,0.1-25.5,0.3
				c-0.1,0-0.2,0-0.3,0c-4.6,0-6.9-2.7-6.9-7.9c0-8.8,0-17.7,0-26.3c0-3.6,0-7.1,0-10.7l0-15.4c0-12.7,0-25.4,0-38
				c0-7.5,1.4-8.9,8.8-8.9l10.8,0L551.8,275 M555.3,322.8h2h13.4h2v-2v-31.5v-2h-2h-13.4h-2v2v31.5V322.8 M524.3,322.8h2h14.4h2v-2
				v-31.4v-2h-2h-14.4h-2v2v31.4V322.8 M524.4,369.6h2h14.4h2v-2v-30.4v-2h-2h-14.4h-2v2v30.4V369.6 M555.3,369.8h2h13.3h2v-2v-30.6
				v-2h-2h-13.3h-2v2v30.6V369.8 M551.8,273c-10.4,0-20.7,0-31.1,0c-8.5,0-10.8,2.3-10.8,10.9c0,17.8,0,35.6,0,53.5
				c0,12.3,0,24.6,0,37c0,5.5,2.4,9.9,8.9,9.9c0.1,0,0.2,0,0.4,0c8.5-0.2,17-0.3,25.4-0.3c10.9,0,21.8,0.1,32.7,0.1
				c0.1,0,0.2,0,0.3,0c6.5,0,9.2-2.7,9.2-9.2c0-15.3,0-30.6,0-46c0-15.3,0-30.6,0-46c0-7.3-2.6-9.9-9.8-9.9
				C568.8,273,560.3,273,551.8,273L551.8,273z M557.3,320.8c0-10.4,0-20.8,0-31.5c4.4,0,8.7,0,13.4,0c0,10.4,0,20.6,0,31.5
				C566.2,320.8,562,320.8,557.3,320.8L557.3,320.8z M526.3,320.8c0-10.5,0-20.7,0-31.4c4.6,0,9.3,0,14.4,0c0,10.2,0,20.6,0,31.4
				C535.7,320.8,531.1,320.8,526.3,320.8L526.3,320.8z M526.4,367.6c0-9.9,0-19.9,0-30.4c4.9,0,9.5,0,14.4,0c0,10.1,0,20.1,0,30.4
				C536.1,367.6,531.4,367.6,526.4,367.6L526.4,367.6z M557.3,367.8c0-10.2,0-20.3,0-30.6c4.4,0,8.7,0,13.3,0c0,10,0,20,0,30.6
				C566.1,367.8,561.9,367.8,557.3,367.8L557.3,367.8z"/>
		</g>
		<g>
			<path class="st0" d="M407.6,383c-6.1,0-7.6-1.4-7.6-7.5c0-11.2,0-22.3,0-33.5l0-26.9c0-11.2,0-22.4,0-33.6c0-6.1,1.4-7.5,7.5-7.5
				c9.5,0,19.1,0,28.6,0c10.1,0,20.3,0,30.4,0c5,0,7.5,2.4,7.5,7.5c0,30.4,0,62,0,94c0,5.1-2.4,7.5-7.4,7.5c-10,0-20.1,0-30.1,0
				C426.8,383,417.2,383,407.6,383z M414.2,368.7h15.6v-32.3h-15.6V368.7z M444.3,368.6h15.4v-32.4h-15.4V368.6z M414.3,321.8h15.4
				v-33.4h-15.4V321.8z M444.3,321.8h15.4v-33.4h-15.4V321.8z"/>
			<path class="st4" d="M436,275c10.2,0,20.3,0,30.5,0c4.5,0,6.5,2,6.5,6.5c0,30.2,0,61.9,0,94c0,4.5-2,6.5-6.4,6.5
				c-10.1,0-20.1,0-30.2,0c-9.6,0-19.2,0-28.8,0c-5.6,0-6.6-1-6.6-6.5c0-11.2,0-22.3,0-33.5l0-13.5l0-13.5c0-11.2,0-22.3,0-33.5
				c0-5.6,1-6.5,6.5-6.5C417,275,426.5,275,436,275 M443.3,322.8h2h13.4h2v-2v-31.4v-2h-2h-13.4h-2v2v31.4V322.8 M413.3,322.8h2
				h13.4h2v-2v-31.4v-2h-2h-13.4h-2v2v31.4V322.8 M443.3,369.6h2h13.4h2v-2v-30.4v-2h-2h-13.4h-2v2v30.4V369.6 M413.2,369.7h2h13.6
				h2v-2v-30.3v-2h-2h-13.6h-2v2v30.3V369.7 M436,273c-9.5,0-19,0-28.5,0c-6.6,0-8.5,1.9-8.5,8.5c0,15.7,0,31.3,0,47s0,31.3,0,47
				c0,6.6,1.9,8.5,8.6,8.5c9.6,0,19.2,0,28.8,0c10.1,0,20.1,0,30.2,0c5.5,0,8.4-2.9,8.4-8.5c0-31.3,0-62.7,0-94c0-5.6-3-8.5-8.5-8.5
				C456.3,273,446.2,273,436,273L436,273z M445.3,320.8c0-10.5,0-20.7,0-31.4c4.3,0,8.6,0,13.4,0c0,10.2,0,20.6,0,31.4
				C454,320.8,449.8,320.8,445.3,320.8L445.3,320.8z M415.3,320.8c0-10.5,0-20.7,0-31.4c4.3,0,8.6,0,13.4,0c0,10.2,0,20.6,0,31.4
				C424.1,320.8,419.8,320.8,415.3,320.8L415.3,320.8z M445.3,367.6c0-9.9,0-19.9,0-30.4c4.6,0,8.9,0,13.4,0c0,10.1,0,20.1,0,30.4
				C454.5,367.6,450.1,367.6,445.3,367.6L445.3,367.6z M415.2,367.7c0-10.1,0-20,0-30.3c4.3,0,8.7,0,13.6,0c0,10.2,0,20.1,0,30.3
				C424.2,367.7,419.9,367.7,415.2,367.7L415.2,367.7z"/>
		</g>
		<g>
			<path class="st0" d="M493.7,211.4c-0.4,0-0.8,0-1.2,0c-7.4-0.3-15.6-4.7-20.9-11c-4.4-5.3-6.4-11.4-5.6-17.2l0-0.1V183
				c0-17.3,11-27.5,30-28.1c0.2,0,0.3,0,0.5,0c5.8,0,12.5,3.2,17.5,8.5c5.6,5.8,8.6,13.1,8.3,20.7c-0.2,6.2-3.3,13.1-8.3,18.3
				C508.5,208.1,501.3,211.4,493.7,211.4z M494,169c-8.2,0-14,5.6-14,13.7c0,3.9,1.4,7.6,4,10.2c2.5,2.6,6,4,9.8,4.1l0.1,0
				c8,0,14.1-5.9,14.1-13.8c0-3.9-1.4-7.5-4-10.1C501.4,170.5,497.9,169,494,169L494,169z"/>
			<path class="st4" d="M496.5,153.8l0,2h0c5.5,0,11.9,3.1,16.8,8.2c5.4,5.6,8.3,12.7,8,20c-0.2,6-3.2,12.6-8,17.7
				c-5.4,5.6-12.3,8.7-19.7,8.7c-0.4,0-0.8,0-1.2,0c-7.1-0.3-15-4.5-20.2-10.7c-4.2-5.1-6.2-10.9-5.4-16.4l0-0.1V183
				c0-16.9,10.3-26.6,29.1-27.1c0.1,0,0.3,0,0.4,0L496.5,153.8 M493.9,198c8.4,0,15.1-6.5,15.1-14.8c0-4.2-1.5-8-4.3-10.8
				c-2.8-2.8-6.5-4.3-10.6-4.4l-0.1,0c-8.8,0-15,6-15.1,14.7c0,4.2,1.5,8.1,4.3,10.9c2.7,2.8,6.5,4.3,10.5,4.4L493.9,198
				 M496.5,153.8c-0.2,0-0.3,0-0.5,0c-19.5,0.6-31,10.9-31,29.1c-2.1,15,13.6,28.8,27.4,29.4c0.4,0,0.8,0,1.3,0
				c17.2,0,29.2-15.5,29.6-28.3C523.9,166.9,508.6,153.8,496.5,153.8L496.5,153.8z M493.9,196c0,0-0.1,0-0.1,0
				c-7.3-0.1-12.8-5.8-12.8-13.3c0.1-7.5,5.4-12.7,13.1-12.7c0,0,0,0,0.1,0c7.3,0,12.9,5.8,12.9,13.2C507,190.5,501.3,196,493.9,196
				L493.9,196z"/>
		</g>
	</g>
</g>
<g id="BYO" class="st1">
	<g class="st2">
		<path class="st5" d="M376.2,210.7c3.6-8.5,7.2-17,10.7-25.5c4.3-10.4,8.7-20.9,13-31.3c4-9.7,7.9-19.4,11.9-29.1
			c4.3-10.4,8.7-20.9,13-31.3c3.6-8.7,7.2-17.5,10.7-26.3c2.4-5.9,4.8-11.7,7.3-17.5c0.2-0.5,0.5-0.9,1-1.7
			c2.2,5.4,4.3,10.5,6.3,15.6c5.7,14.3,11.3,28.7,17,43c7.3,18.6,8.9,22.6,19.7,49.9c6,15.1,12,30.2,18.1,45.3c1.2,3,2.6,6,3.9,9
			c0,0.6,0,1.1,0,1.7c-16.9,0-33.8,0-50.5,0c0,12.1,0,23.7,0,35.4c-10.4,0-20.7,0-31.3,0c0-11.8,0-23.5,0-35.4
			c-17.1,0-33.9,0-50.7,0C376.2,211.8,376.2,211.2,376.2,210.7z M494.9,202.6c-17.1-43.2-34.2-86.1-51.5-129.7
			c-18,43.7-35.6,86.6-53.4,129.7c12.6,0,24.6,0,36.9,0c0-4-0.1-7.9,0-11.7c0.1-1.8-0.3-2.8-2.1-3.6c-2.8-1.3-5.4-3.2-8-4.8
			c-3.4-2.1-6.8-4.2-10.3-6.3c1.7-2.9,3.3-5.4,4.9-8.1c5,2.9,9.8,5.8,15.1,8.9c0-7.9,0-15.3,0-22.6c10.6,0,20.9,0,31.5,0
			c0,4.9,0,9.6,0,14.7c4-1.9,7.6-3.7,11.3-5.5c1.1,2.2,2,4.2,3.2,6.1c1.1,1.8,0.7,2.8-1.2,3.7c-4.5,2.1-8.9,4.4-13.2,6.5
			c0,3.8,0,7.3,0,11.3c6.7-3.4,13.2-6.6,20-10c1.4,2.8,2.8,5.6,4.3,8.5c-8.3,4.2-16.4,8.3-24.5,12.3c0.1,0.2,0.1,0.4,0.2,0.6
			C470.3,202.6,482.4,202.6,494.9,202.6z M436.2,164c0,24.9,0,49.6,0,74.2c4.3,0,8.4,0,12.6,0c0-24.8,0-49.4,0-74.2
			C444.6,164,440.5,164,436.2,164z"/>
		<path class="st6" d="M494.9,202.6c-12.5,0-24.6,0-36.8,0c-0.1-0.2-0.1-0.4-0.2-0.6c8.1-4.1,16.2-8.1,24.5-12.3
			c-1.5-2.9-2.9-5.7-4.3-8.5c-6.8,3.4-13.3,6.6-20,10c0-3.9,0-7.5,0-11.3c4.3-2.1,8.7-4.4,13.2-6.5c1.9-0.9,2.3-1.9,1.2-3.7
			c-1.1-1.9-2-3.9-3.2-6.1c-3.8,1.8-7.4,3.6-11.3,5.5c0-5.1,0-9.8,0-14.7c-10.6,0-20.9,0-31.5,0c0,7.3,0,14.6,0,22.6
			c-5.3-3.1-10.1-5.9-15.1-8.9c-1.6,2.7-3.2,5.2-4.9,8.1c3.5,2.1,6.9,4.2,10.3,6.3c2.7,1.6,5.2,3.5,8,4.8c1.8,0.8,2.1,1.9,2.1,3.6
			c-0.1,3.8,0,7.7,0,11.7c-12.3,0-24.4,0-36.9,0c17.7-43.1,35.4-86,53.4-129.7C460.7,116.4,477.8,159.4,494.9,202.6z"/>
		<path class="st6" d="M436.2,164c4.3,0,8.4,0,12.6,0c0,24.8,0,49.4,0,74.2c-4.2,0-8.3,0-12.6,0C436.2,213.5,436.2,188.9,436.2,164z
			"/>
	</g>
	<g class="st2">
		<path class="st7" d="M64.4,465.8c5.6-13.5,11.3-26.9,16.9-40.4c6.9-16.5,13.7-33,20.5-49.5c6.3-15.3,12.5-30.7,18.8-46
			c6.8-16.5,13.7-33,20.5-49.5c5.7-13.8,11.3-27.7,17-41.5c3.8-9.3,7.7-18.5,11.5-27.8c0.3-0.8,0.9-1.5,1.6-2.7
			c3.5,8.5,6.8,16.5,10,24.6c9,22.7,17.9,45.4,26.9,68.1c11.6,29.4,14.1,35.8,31.2,79c9.5,23.9,19,47.8,28.6,71.6
			c1.9,4.8,4.1,9.5,6.2,14.2c0,0.9,0,1.8,0,2.7c-26.7,0-53.4,0-79.9,0c0,19.1,0,37.5,0,56c-16.5,0-32.8,0-49.6,0c0-18.7,0-37.2,0-56
			c-27.1,0-53.7,0-80.3,0C64.4,467.6,64.4,466.7,64.4,465.8z M252.2,453c-27.1-68.3-54.1-136.3-81.5-205.2
			C142.3,317,114.3,384.9,86.3,453c19.9,0,39,0,58.4,0c0-6.3-0.1-12.4,0.1-18.5c0.1-2.8-0.5-4.4-3.3-5.7c-4.4-2.1-8.5-5-12.7-7.6
			c-5.4-3.3-10.8-6.6-16.3-10c2.8-4.5,5.2-8.5,7.8-12.8c7.9,4.7,15.5,9.1,23.9,14.1c0-12.6,0-24.2,0-35.7c16.8,0,33.1,0,49.8,0
			c0,7.7,0,15.2,0,23.3c6.3-3.1,12-5.9,17.9-8.7c1.8,3.5,3.2,6.6,5,9.6c1.7,2.9,1.1,4.4-1.9,5.8c-7.1,3.3-14.1,6.9-20.9,10.3
			c0,6,0,11.6,0,17.8c10.7-5.3,20.9-10.4,31.7-15.8c2.3,4.5,4.5,8.8,6.8,13.5c-13.2,6.6-26,13.1-38.8,19.5c0.1,0.3,0.2,0.6,0.3,0.9
			C213.2,453,232.4,453,252.2,453z M159.3,391.9c0,39.4,0,78.4,0,117.4c6.8,0,13.3,0,20,0c0-39.2,0-78.2,0-117.4
			C172.6,391.9,166.1,391.9,159.3,391.9z"/>
		<path class="st8" d="M252.2,453c-19.8,0-39,0-58.2,0c-0.1-0.3-0.2-0.6-0.3-0.9c12.8-6.4,25.6-12.9,38.8-19.5
			c-2.4-4.7-4.6-9-6.8-13.5c-10.8,5.4-21,10.5-31.7,15.8c0-6.2,0-11.8,0-17.8c6.8-3.4,13.8-7,20.9-10.3c3-1.4,3.6-2.9,1.9-5.8
			c-1.8-3-3.2-6.2-5-9.6c-5.9,2.9-11.6,5.7-17.9,8.7c0-8,0-15.5,0-23.3c-16.7,0-33,0-49.8,0c0,11.5,0,23.2,0,35.7
			c-8.4-4.9-16-9.4-23.9-14.1c-2.6,4.3-5,8.2-7.8,12.8c5.5,3.4,10.9,6.7,16.3,10c4.2,2.6,8.3,5.5,12.7,7.6c2.8,1.3,3.4,3,3.3,5.7
			c-0.2,6.1-0.1,12.1-0.1,18.5c-19.4,0-38.5,0-58.4,0c28-68.2,56-136.1,84.4-205.3C198.1,316.7,225.1,384.7,252.2,453z"/>
		<path class="st8" d="M159.3,391.9c6.8,0,13.3,0,20,0c0,39.2,0,78.2,0,117.4c-6.7,0-13.2,0-20,0
			C159.3,470.3,159.3,431.3,159.3,391.9z"/>
	</g>
	<g class="st2">
		<g>
			<path class="st0" d="M506.7,378.3c6.5,2.8,13.5,4.8,19.5,8.4c12.1,7.4,18.1,19.4,21.6,32.8c9.2,36,18.4,71.9,27.5,107.9
				c0.5,1.9,0.6,3.9,0.6,5.8c0,18.4,0,36.7,1.3,54.4c1.7,2.4,4.7,4.7,4.8,7.1c0.1,2.1-3.1,4.4-4.8,6.6c-0.4-0.3-0.7-0.5-1.1-0.8
				c0,3.5,0,7.1,0,11.2c13.5,0,26.8,0.1,40,0c3.8,0,7,1.1,6,5.3c-0.5,2.2-3.4,4-5.5,5.4c-1,0.7-2.8,0.1-4.2,0.1
				c-42.3,0-84.7,0-127,0c-1.3,0-2.5,0.1-3.8,0c-4.1-0.6-6.6-2-6.3-7.1c0.6-9.4-0.6-18.6-9.4-24.4c-3.5-2.3-7.7-3.5-12.4-4.4
				c9.8,10,15,21.9,15.2,35.2c0.2,13.5-4.8,26-15.3,34.9c-20.7,17.5-46.2,12.5-60,1.3c-18.9-15.2-24.5-47.1-1.9-70.7
				c-11.3-1.7-21.5,8.8-22,19.4c-0.1,2.3,0,4.7,0,7c0,6.9-1.9,8.9-8.8,8.9c-27,0-54,0-81.1,0c-13.9,0-27.7,0-41.6,0
				c-8.5,0-10.1-1.6-10.1-9.8c0-4,0-7.9,0-12.2c-1.8-0.9-3.6-1.9-5.4-2.9c0-2.2,0-4.3,0-6.5c1.8-1,3.5-2.1,5.4-3.2
				c0-51.6,0-103.2,0-154.9c0-5,0.2-10,1.1-14.9c2.3-11.6,7.2-22,17.3-28.6c7.1-4.6,15-7.7,22.6-11.5
				C348.2,378.3,427.5,378.3,506.7,378.3z M566.2,589.2c0-18.8,0-37,0-55.1c0-0.8-0.5-1.7-0.7-2.5c-8.1-31.5-16.1-63.1-24.2-94.6
				c-2.3-8.8-4.8-17.5-7.2-25.9c-98,0-194.9,0-293.3,0c-0.7,7.7-2,15.4-2.1,23.1c-0.2,49.5-0.1,99.1-0.1,148.6c0,2.1,0,4.2,0,6.2
				c5.4,0,10,0,15.1,0c0-2.2,0-4.1,0-6.1c0-43.8,0-87.6,0-131.3c0-10.8,7.8-18.9,18.7-19c16.8-0.2,33.5-0.2,50.3,0
				c7.5,0.1,13.9,3.1,16.8,10.6c1.6,4.2,2.8,8.8,2.8,13.3c0.2,42.2,0.1,84.3,0.1,126.5c0,1.9,0,3.9,0,6.3c6.6,0,12.7,0.2,18.7-0.1
				c2.1-0.1,4.6-1.1,6-2.6c7-7.3,15.6-10.2,25.3-10.3c19.8-0.1,39.6-0.1,59.5,0c8.1,0,15.7,1.8,22,7.6c2.3,2.1,5.2,5.1,7.8,5.2
				C509.6,589.3,537.5,589.2,566.2,589.2z M331.6,611.6c0-53.4,0-106.1,0-158.9c0-5.9-4.1-9.5-10.2-9.5c-15.3,0-30.6,0-45.9,0
				c-8.4,0-11.9,3.5-11.9,11.9c0,50.2,0,100.5,0,150.7c0,1.9,0,3.8,0,5.8C286.5,611.6,308.7,611.6,331.6,611.6z M526.7,400.8
				c-9.5-8.5-19.4-12.7-30.8-12.7c-71.8-0.1-143.7-0.1-215.5,0c-11.6,0-22,3.7-30.7,12.7C341.9,400.8,433.6,400.8,526.7,400.8z
				 M422.5,587c-20-0.1-35.8,16.1-35.5,35.9c0.2,19.7,15.7,35.2,35.4,35.1c19.6,0,35.1-14.1,35.7-35.7
				C458.6,603.5,441.7,586.6,422.5,587z M566,600.3c-27.3,0-54.4,0-81.1,0c0.2,3.9,0.4,7.6,0.6,11.2c27.1,0,53.8,0,80.6,0
				C566,607.6,566,604.1,566,600.3z M342.6,611.5c5.7,0,10.8,0,15.7,0c0.5-4,0.9-7.6,1.3-11.1c-6,0-11.5,0-17,0
				C342.6,604.2,342.6,607.7,342.6,611.5z M238.7,611.6c5.2,0,9.9,0,14.7,0c0-4,0-7.6,0-11.2c-5.1,0-9.8,0-14.7,0
				C238.7,604.2,238.7,607.6,238.7,611.6z"/>
		</g>
		<g>
			<path class="st4" d="M566.2,589.2c-28.7,0-56.6,0.1-84.5-0.2c-2.6,0-5.5-3.1-7.8-5.2c-6.3-5.7-13.9-7.5-22-7.6
				c-19.8-0.1-39.6-0.1-59.5,0c-9.8,0-18.4,3-25.3,10.3c-1.4,1.5-3.9,2.4-6,2.6c-6.1,0.3-12.1,0.1-18.7,0.1c0-2.5,0-4.4,0-6.3
				c0-42.2,0.1-84.3-0.1-126.5c0-4.4-1.2-9.1-2.8-13.3c-2.8-7.5-9.3-10.5-16.8-10.6c-16.8-0.3-33.5-0.2-50.3,0
				c-10.9,0.1-18.7,8.3-18.7,19c0,43.8,0,87.6,0,131.3c0,1.9,0,3.9,0,6.1c-5.1,0-9.7,0-15.1,0c0-2.1,0-4.1,0-6.2
				c0-49.5-0.1-99.1,0.1-148.6c0-7.7,1.3-15.3,2.1-23.1c98.4,0,195.3,0,293.3,0c2.3,8.5,4.9,17.2,7.2,25.9
				c8.1,31.5,16.1,63.1,24.2,94.6c0.2,0.9,0.7,1.7,0.7,2.5C566.2,552.2,566.2,570.4,566.2,589.2z M467.8,529.7
				c17.3,0,34.6,0.2,51.8-0.1c14.4-0.3,26.4-14.5,22.9-29.7c-3.6-15.4-7.2-30.8-11-46.2c-3.6-14.1-10.7-20.8-23.7-21.1
				c-34.5-0.8-69.1-0.3-103.7-0.2c-4.3,0-6.6,2.3-6.6,6.6c0,24.1-0.2,48.2,0.1,72.4c0.1,9.1,7.7,18.6,18.9,18.4
				C433.6,529.5,450.8,529.7,467.8,529.7z"/>
		</g>
		<g>
			<path class="st4" d="M331.6,611.6c-22.8,0-45.1,0-68.1,0c0-2,0-3.9,0-5.8c0-50.2,0-100.5,0-150.7c0-8.4,3.5-11.9,11.9-11.9
				c15.3,0,30.6,0,45.9,0c6.1,0,10.2,3.6,10.2,9.5C331.6,505.5,331.6,558.3,331.6,611.6z M285.1,544.2c0-2.9,0.6-5.9-0.2-8.5
				c-0.6-1.9-3-4.2-4.9-4.5c-1.3-0.2-4.2,2.7-4.4,4.4c-0.6,5.1-0.6,10.4,0,15.5c0.2,1.7,3.1,4,5.1,4.4c3.1,0.7,4.8-1.4,4.4-4.8
				C284.9,548.5,285.1,546.3,285.1,544.2z"/>
		</g>
		<g>
			<path class="st4" d="M526.7,400.8c-93.1,0-184.8,0-277,0c8.7-8.9,19.1-12.7,30.7-12.7c71.8-0.1,143.7-0.1,215.5,0
				C507.3,388.1,517.2,392.3,526.7,400.8z"/>
		</g>
		<g>
			<path class="st4" d="M422.5,587c19.2-0.4,36.1,16.4,35.5,35.3c-0.7,21.6-16.1,35.6-35.7,35.7c-19.6,0-35.1-15.4-35.4-35.1
				C386.7,603.2,402.5,586.9,422.5,587z M422.5,597.8c-13.7-1.5-25.6,11.9-25,24.9c0.7,14.5,10.8,24.4,24.7,24.7
				c13.1,0.3,25.4-10.7,25.3-24.6C447.4,609.4,436.6,596.1,422.5,597.8z"/>
		</g>
		<g>
			<path class="st4" d="M566,600.3c0,3.8,0,7.3,0,11.2c-26.8,0-53.5,0-80.6,0c-0.2-3.7-0.4-7.4-0.6-11.2
				C511.6,600.3,538.6,600.3,566,600.3z"/>
		</g>
		<g>
			<path class="st4" d="M342.6,611.5c0-3.7,0-7.2,0-11.1c5.5,0,11,0,17,0c-0.4,3.6-0.8,7.1-1.3,11.1
				C353.4,611.5,348.3,611.5,342.6,611.5z"/>
		</g>
		<g>
			<path class="st4" d="M238.7,611.6c0-4,0-7.4,0-11.2c4.8,0,9.6,0,14.7,0c0,3.5,0,7.2,0,11.2C248.6,611.6,243.9,611.6,238.7,611.6z
				"/>
		</g>
		<g>
			<path class="st0" d="M467.8,529.7c-17.1,0-34.2-0.2-51.3,0.1c-11.2,0.2-18.8-9.3-18.9-18.4c-0.4-24.1-0.1-48.2-0.1-72.4
				c0-4.3,2.3-6.6,6.6-6.6c34.6,0,69.1-0.5,103.7,0.2c13,0.3,20.2,7,23.7,21.1c3.9,15.3,7.4,30.8,11,46.2
				c3.5,15.2-8.5,29.4-22.9,29.7C502.4,530,485.1,529.7,467.8,529.7z M408.4,443.2c0,22.9-0.1,45.1,0,67.2c0,5.5,3.5,8.5,9.2,8.5
				c33.5,0,66.9-0.2,100.4,0.1c9.6,0.1,16.2-9.3,14.5-17c-3.6-15.9-7.7-31.7-11.8-47.6c-1.9-7.3-7.8-11.5-15.8-11.4
				c-27,0.3-54,0.1-81,0.1C419,443.2,414,443.2,408.4,443.2z"/>
		</g>
		<g>
			<path class="st0" d="M285.1,544.2c0,2.1-0.2,4.3,0,6.4c0.3,3.4-1.4,5.5-4.4,4.8c-2-0.4-4.9-2.7-5.1-4.4c-0.7-5.1-0.6-10.4,0-15.5
				c0.2-1.7,3.1-4.6,4.4-4.4c1.9,0.3,4.3,2.6,4.9,4.5C285.7,538.2,285.1,541.3,285.1,544.2z"/>
		</g>
		<g>
			<path class="st0" d="M422.5,597.8c14.1-1.7,24.9,11.6,25,25c0.1,13.9-12.2,24.9-25.3,24.6c-13.9-0.3-24-10.2-24.7-24.7
				C396.9,609.8,408.8,596.3,422.5,597.8z M408.4,621.8c-0.1,8.7,5.7,14.9,13.8,15c8,0.1,15.4-6.9,15.4-14.6c0-6.7-8-14.5-14.9-14.6
				C415.5,607.5,408.4,614.5,408.4,621.8z"/>
		</g>
		<g>
			<path class="st4" d="M408.4,443.2c5.6,0,10.6,0,15.6,0c27,0,54,0.2,81-0.1c8-0.1,13.9,4.1,15.8,11.4c4.1,15.8,8.2,31.6,11.8,47.6
				c1.7,7.7-4.9,17-14.5,17c-33.5-0.3-66.9-0.1-100.4-0.1c-5.7,0-9.2-3-9.2-8.5C408.3,488.3,408.4,466.2,408.4,443.2z"/>
		</g>
		<g>
			<path class="st4" d="M408.4,621.8c0-7.2,7.1-14.3,14.2-14.2c7,0.1,15,7.9,14.9,14.6c0,7.6-7.4,14.6-15.4,14.6
				C414,636.7,408.3,630.5,408.4,621.8z"/>
		</g>
	</g>
	<g class="st2">
		<g>
			<path class="st0" d="M219.8,240.6c2.1-0.9,4.2-1.8,7.2-3.1c4-14.2,8.2-29.4,12.5-44.6c2.5-8.8,4.8-17.6,7.4-26.4
				c0.3-0.9,1.4-1.9,2.4-2.3c14.1-6.4,28.2-12.8,42.2-19.2c6.3-2.9,12.5-6,18.9-8.8c1.9-0.8,2.6-1.8,2.4-3.9c-0.2-1.4-0.4-3,0.1-4.2
				c0.5-1.1,1.9-2.3,3-2.5c0.8-0.1,1.8,1.5,2.8,2.4c0.1,0.1,0,0.2,0,0.3c-2.1,7.1,3.5,8.5,8,10.6c7.9,3.7,16,7.1,23.9,10.7
				c10.1,4.6,20.3,9.1,30.2,13.9c1.7,0.8,3.3,2.8,3.8,4.6c4.5,15.3,8.8,30.7,13.1,46c2.3,8.1,4.5,16.2,6.8,24.4
				c2.8-0.1,5.5-0.3,7,2.6c0,1.3,0,2.6,0,3.9c-63.9,0-127.7,0-191.6,0C219.8,243.6,219.8,242.1,219.8,240.6z M312.7,142.3
				c-13.5,6.2-26.6,12.1-39.7,18c-5.8,2.6-11.7,5.2-17.5,7.8c-1.8,0.8-3,1.9-3.6,4c-4.7,17-9.6,34-14.3,51
				c-1.4,5.1-2.7,10.2-4.1,15.5c11.2,0,22.1,0,33.3,0c-0.5-0.9-0.8-1.7-1.3-2.3c-4.8-6.2-9.7-12.3-14.5-18.5
				c-2.1-2.7-1.4-4.7,1.9-6.1c15.7-6.8,28.6-17.6,40.6-29.5c5-5,9.5-10.5,14.1-16c1.9-2.3,4.4-4.9,4.9-7.6
				C313.3,153.4,312.7,148.1,312.7,142.3z M318.6,142.3c0,5.7-0.1,11.1,0.1,16.4c0,1,0.5,2.1,1.1,2.9c5.8,6.8,11.5,13.7,17.6,20.2
				c4.4,4.6,9.3,8.7,14.1,12.9c8.1,7.1,17.3,12.5,27,17c3,1.4,3.8,3.4,1.9,5.9c-3.4,4.4-7,8.7-10.4,13.1c-1.9,2.5-3.8,5-5.9,7.8
				c11.5,0,22.5,0,33.4,0c0.1-0.3,0.2-0.6,0.2-0.8c-6.2-22.2-12.4-44.4-18.8-66.6c-0.3-0.9-1.2-2-2.1-2.4
				c-8.4-3.9-16.9-7.6-25.4-11.4C340.7,152.4,329.9,147.5,318.6,142.3z M312.5,238.5c0-21.3,0-42.3,0-64.3
				c-11.3,21.9-22.3,42.9-33.3,64.3C290.5,238.5,301.4,238.5,312.5,238.5z M318.8,174.5c0,21.8,0,42.9,0,64c11,0,21.8,0,33.2,0
				C340.9,217.1,330,196.1,318.8,174.5z M332.9,187.5c8.3,16,16.5,31.9,25,48.3c5.2-6.7,10.2-13.1,15.1-19.5
				C357.6,209.2,345.2,198.6,332.9,187.5z M298.3,187.5c-12.4,10.8-24.6,21.9-40.3,28.6c5.2,6.6,10,12.9,15.2,19.5
				C281.8,219.3,290.1,203.4,298.3,187.5z"/>
		</g>
		<g>
			<path class="st4" d="M312.7,142.3c0,5.8,0.6,11.1-0.2,16.2c-0.4,2.7-2.9,5.3-4.9,7.6c-4.6,5.5-9,11-14.1,16
				c-12,11.9-24.9,22.7-40.6,29.5c-3.3,1.4-4,3.4-1.9,6.1c4.8,6.2,9.6,12.3,14.5,18.5c0.5,0.6,0.8,1.4,1.3,2.3
				c-11.2,0-22.1,0-33.3,0c1.4-5.3,2.6-10.4,4.1-15.5c4.8-17,9.6-34,14.3-51c0.6-2.1,1.8-3.2,3.6-4c5.9-2.6,11.7-5.1,17.5-7.8
				C286.1,154.4,299.2,148.4,312.7,142.3z"/>
		</g>
		<g>
			<path class="st4" d="M318.6,142.3c11.3,5.2,22.1,10.1,32.8,15c8.4,3.8,16.9,7.6,25.4,11.4c0.9,0.4,1.8,1.4,2.1,2.4
				c6.3,22.2,12.5,44.4,18.8,66.6c0.1,0.2-0.1,0.4-0.2,0.8c-10.9,0-21.9,0-33.4,0c2.1-2.8,4-5.3,5.9-7.8c3.4-4.4,7-8.7,10.4-13.1
				c1.9-2.5,1.1-4.5-1.9-5.9c-9.7-4.5-19-9.9-27-17c-4.8-4.2-9.7-8.3-14.1-12.9c-6.1-6.5-11.8-13.4-17.6-20.2
				c-0.6-0.8-1.1-1.9-1.1-2.9C318.5,153.4,318.6,148,318.6,142.3z"/>
		</g>
		<g>
			<path class="st4" d="M312.5,238.5c-11.1,0-22,0-33.3,0c11.1-21.3,22-42.4,33.3-64.3C312.5,196.2,312.5,217.2,312.5,238.5z"/>
		</g>
		<g>
			<path class="st4" d="M318.8,174.5c11.2,21.6,22.1,42.6,33.2,64c-11.3,0-22.1,0-33.2,0C318.8,217.4,318.8,196.3,318.8,174.5z"/>
		</g>
		<g>
			<path class="st4" d="M332.9,187.5c12.4,11.1,24.7,21.7,40.1,28.8c-4.9,6.4-9.9,12.8-15.1,19.5
				C349.4,219.4,341.1,203.5,332.9,187.5z"/>
		</g>
		<g>
			<path class="st4" d="M298.3,187.5c-8.3,15.9-16.5,31.8-25,48.2c-5.2-6.6-10.1-12.9-15.2-19.5C273.7,209.4,286,198.4,298.3,187.5z
				"/>
		</g>
	</g>
	<g class="st2">
		<g>
			<path class="st0" d="M436.2,350.7c2.7-1.2,5.5-2.3,9.2-4c5.1-18.3,10.6-37.9,16.1-57.6c3.2-11.4,6.2-22.8,9.5-34.1
				c0.4-1.2,1.8-2.4,3.1-3c18.1-8.3,36.3-16.5,54.5-24.7c8.1-3.7,16.2-7.7,24.4-11.3c2.4-1.1,3.4-2.4,3.1-5
				c-0.2-1.8-0.6-3.9,0.1-5.4c0.6-1.4,2.4-3,3.8-3.2c1.1-0.1,2.4,1.9,3.6,3c0.1,0.1,0,0.3,0,0.4c-2.8,9.2,4.5,11,10.3,13.7
				c10.2,4.7,20.6,9.2,30.9,13.8c13,5.9,26.1,11.7,39,17.9c2.1,1,4.3,3.7,4.9,6c5.8,19.7,11.4,39.6,16.9,59.4
				c2.9,10.4,5.8,20.9,8.7,31.5c3.6-0.2,7.1-0.4,9,3.4c0,1.7,0,3.4,0,5.1c-82.4,0-164.8,0-247.2,0
				C436.2,354.6,436.2,352.7,436.2,350.7z M555.9,223.9c-17.5,7.9-34.3,15.6-51.2,23.3c-7.5,3.4-15.1,6.7-22.6,10
				c-2.4,1-3.9,2.5-4.7,5.1c-6.1,21.9-12.3,43.8-18.5,65.7c-1.8,6.5-3.5,13.1-5.2,20c14.5,0,28.5,0,43,0c-0.7-1.2-1.1-2.2-1.7-3
				c-6.2-7.9-12.5-15.8-18.6-23.8c-2.7-3.5-1.7-6,2.5-7.9c20.3-8.8,36.9-22.7,52.4-38.1c6.5-6.4,12.3-13.6,18.2-20.6
				c2.5-3,5.7-6.3,6.3-9.8C556.7,238.2,555.9,231.4,555.9,223.9z M563.5,223.9c0,7.4-0.1,14.3,0.1,21.1c0,1.3,0.6,2.8,1.5,3.7
				c7.5,8.8,14.8,17.7,22.7,26.1c5.6,6,12,11.2,18.2,16.6c10.4,9.2,22.3,16.2,34.9,22c3.8,1.8,4.9,4.4,2.4,7.6
				c-4.4,5.7-9,11.2-13.4,16.9c-2.5,3.2-4.9,6.4-7.6,10c14.9,0,29,0,43.1,0c0.1-0.4,0.3-0.7,0.2-1c-8-28.7-16.1-57.3-24.2-85.9
				c-0.3-1.2-1.6-2.5-2.7-3.1c-10.9-5-21.8-9.8-32.7-14.8C592,237,578.2,230.6,563.5,223.9z M555.7,348.1c0-27.5,0-54.6,0-82.9
				c-14.6,28.2-28.7,55.4-43,82.9C527.3,348.1,541.4,348.1,555.7,348.1z M563.8,265.5c0,28.1,0,55.3,0,82.5c14.2,0,28.2,0,42.8,0
				C592.3,320.5,578.3,293.4,563.8,265.5z M582,282.3c10.7,20.6,21.3,41.2,32.3,62.3c6.7-8.7,13.1-16.9,19.5-25.1
				C613.9,310.3,597.9,296.5,582,282.3z M537.4,282.3c-16,14-31.8,28.2-51.9,36.9c6.7,8.6,13,16.6,19.6,25.2
				C516.1,323.3,526.8,302.8,537.4,282.3z"/>
		</g>
		<g>
			<path class="st4" d="M555.9,223.9c0,7.5,0.7,14.3-0.3,20.9c-0.5,3.5-3.8,6.8-6.3,9.8c-5.9,7-11.7,14.2-18.2,20.6
				c-15.5,15.3-32.1,29.3-52.4,38.1c-4.2,1.8-5.2,4.4-2.5,7.9c6.2,8,12.4,15.9,18.6,23.8c0.6,0.8,1.1,1.8,1.7,3c-14.5,0-28.5,0-43,0
				c1.8-6.8,3.4-13.4,5.2-20c6.1-21.9,12.4-43.8,18.5-65.7c0.7-2.6,2.3-4.1,4.7-5.1c7.6-3.3,15.1-6.6,22.6-10
				C521.6,239.5,538.5,231.8,555.9,223.9z"/>
		</g>
		<g>
			<path class="st4" d="M563.5,223.9c14.6,6.7,28.5,13,42.4,19.3c10.9,4.9,21.8,9.8,32.7,14.8c1.2,0.5,2.4,1.9,2.7,3.1
				c8.1,28.6,16.2,57.3,24.2,85.9c0.1,0.2-0.1,0.5-0.2,1c-14.1,0-28.3,0-43.1,0c2.7-3.6,5.1-6.9,7.6-10c4.4-5.6,9-11.2,13.4-16.9
				c2.5-3.2,1.4-5.9-2.4-7.6c-12.6-5.8-24.5-12.8-34.9-22c-6.2-5.4-12.6-10.7-18.2-16.6c-7.9-8.4-15.2-17.3-22.7-26.1
				c-0.8-1-1.5-2.5-1.5-3.7C563.5,238.2,563.5,231.3,563.5,223.9z"/>
		</g>
		<g>
			<path class="st4" d="M555.7,348.1c-14.3,0-28.3,0-43,0c14.3-27.5,28.4-54.7,43-82.9C555.7,293.5,555.7,320.6,555.7,348.1z"/>
		</g>
		<g>
			<path class="st4" d="M563.8,265.5c14.5,27.9,28.5,55,42.8,82.5c-14.6,0-28.5,0-42.8,0C563.8,320.8,563.8,293.6,563.8,265.5z"/>
		</g>
		<g>
			<path class="st4" d="M582,282.3c15.9,14.3,31.9,28,51.8,37.2c-6.4,8.2-12.8,16.5-19.5,25.1C603.3,323.4,592.6,302.8,582,282.3z"
				/>
		</g>
		<g>
			<path class="st4" d="M537.4,282.3c-10.7,20.5-21.3,41-32.3,62.1c-6.7-8.6-13-16.7-19.6-25.2C505.7,310.5,521.4,296.3,537.4,282.3
				z"/>
		</g>
	</g>
</g>
</svg>
