<?xml version="1.0" encoding="utf-8"?>
<!-- Generator: Adobe Illustrator 19.2.0, SVG Export Plug-In . SVG Version: 6.00 Build 0)  -->
<svg version="1.1" xmlns="http://www.w3.org/2000/svg" xmlns:xlink="http://www.w3.org/1999/xlink" x="0px" y="0px"
	 viewBox="0 0 888 888" style="enable-background:new 0 0 888 888;" xml:space="preserve">
<style type="text/css">
	.st0{fill:none;}
	.st1{font-family:'HighwayGothicExpanded';}
	.st2{font-size:48px;}
	.st3{font-size:14px;}
</style>
<g id="Camp_Schwartzelrod_xA0_Image_1_">
	<g>
		<path d="M51.8,672c0.2-1.3,0.3-2.5,0.6-3.8c0.8-4.1,2.6-7.8,5.4-11c5-5.9,11.2-9.9,18.3-12.9c7-3,14.3-5.4,21.9-6.3
			c5.1-0.6,10.2-0.6,15.3,0.4c3.8,0.8,7.2,2.3,10.3,4.6c8,6.1,14.1,13.8,17.4,23.4c1.8,5.2,1.2,10.3-1.7,15.1
			c-4.1,6.7-9.9,11.4-17.1,14.3c-4.2,1.7-7.2-1.2-8.3-4.9c-0.9-3.4-0.3-4.8,2.7-6.6c1.6-0.9,3.3-1.5,4.8-2.4
			c2.2-1.2,4.6-2.3,6.5-3.9c3.6-3,5.7-6.9,5-11.8c-0.4-2.6-1.5-5-2.9-7.2c-3.3-5-7.5-8.8-13.8-9.4c-7.1-0.8-14.1-0.3-21,2
			c-8.6,2.8-16.7,6.5-23.6,12.4c-1.6,1.4-3.1,2.9-4.6,4.4c-6.3,6.6-7.2,14.2-4.1,22.4c2.9,7.6,8.2,13.4,14.9,17.8
			c2.8,1.8,5.9,2.8,9.3,2.6c2-0.1,4.1,0.1,6.1,0.4c2.2,0.3,3.6,1.8,4.6,3.7c1.3,2.4,0.1,4.8-2.6,4.9c-2.7,0.1-5.4-0.2-8.1-0.6
			c-6-1-11.1-3.8-15.7-7.8c-8.8-7.6-15.4-16.8-18.3-28.2c-0.6-2.2-0.8-4.4-1.2-6.6c-0.1-0.3-0.1-0.6-0.2-0.9
			C51.8,674.9,51.8,673.4,51.8,672z"/>
		<path d="M677.5,821.4c0.8,0.9,1.5,1.8,2.3,2.7c7.7,8.1,6.9,18.7,2.4,26.4c-3.6,6.2-9.1,10.3-15.6,13.2c-6.2,2.7-12.6,4.5-19.4,4.1
			c-2.6-0.1-5.2-0.5-7.7-1.2c-5.4-1.7-7.4-5.9-5.7-11.3c1.3-3.8,3.7-7,6.3-10c5.3-6.1,11.4-11.3,17.7-16.4c1.9-1.5,3.7-3,5.7-4.6
			c-1.9-1.4-4.1-1.8-6.3-2c0,0-0.1,0-0.1,0c-2.3-0.2-4.1,0.1-5.8,2c-2.8,3.1-6.6,4.5-10.8,4.8c-1.6,0.1-3.3-0.1-4-1.9
			c-0.7-1.8,0.5-3.1,1.8-4c1.9-1.3,4-2.4,5.9-3.6c0.6-0.3,1.1-0.8,1.5-1.3c2.5-3.9,4.8-7.9,5.8-12.4c1.3-6.4-0.2-12.2-3.5-17.7
			c-1.5-2.4-3.7-3-6.3-1.9c-4,1.7-6.1,4.9-7.5,8.9c-0.1,0.3-0.1,0.6,0,0.9c1.1,5,0.7,10,0.2,14.9c-0.4,4.3-1.2,8.5-2.8,12.5
			c-1.7,4.3-4.4,7.7-9,9.1c-5.4,1.6-9.9-0.1-13.8-3.9c-0.3-0.2-0.5-0.5-0.8-0.8c-0.2-0.2-0.4-0.5-0.7-0.8c-0.6,2-1.2,3.9-1.8,5.8
			c-0.4,1.2-0.9,2.3-1.4,3.4c-1.6,3.5-4.3,5.5-8.1,6.2c-3.6,0.6-7.1,0.4-10.4-1.4c-1.1-0.6-2.2-1.5-2.9-2.6
			c-0.9-1.5-1.6-3.1-2.2-4.8c-1.5-4.5-2.8-9.1-4.2-13.6c-0.3-1.2-1-1.9-2.2-2.1c-1-0.2-2.1-0.4-3.1-0.6c-0.5,3.4-0.9,6.8-1.6,10
			c-1.5,6.1-2.7,12.3-6.2,17.8c-0.2,0.3-0.4,0.7-0.6,1c-4.2,7.1-11.9,8.9-18.9,4.5c-0.3-0.2-0.7-0.4-1.1-0.7
			c-0.2,0.3-0.3,0.6-0.5,0.9c-3.9,8.7-13.7,9.7-19.3,7.8c-2.5-0.9-4.2-2.7-5.5-5c-1.6-2.8-2.3-5.9-2.6-9c0-0.4-0.1-0.8-0.1-1.2
			c-2.4,0-4.7,0-7.1,0c-0.5,3.1-1.1,6.3-1.6,9.4c-0.6,3.1-2.3,5.3-5.1,6.7c-5.5,2.7-12.5,3.1-18.3-2.5c-3.1,6.6-8.3,9.1-15.4,7.9
			c-5.6-1-8-4.9-9.3-10.1c-0.2,0.3-0.4,0.6-0.5,0.8c-0.4,0.7-0.7,1.4-1.1,2.1c-2.4,4.2-6,6.5-10.8,6.7c-2.1,0-4.3-0.2-6.3-0.7
			c-5.7-1.6-8.4-5.8-9.4-11.3c-0.2-1.3-0.2-2.7-0.2-4.1c0-1.8,0-3.6,0-5.5c-0.2,0.4-0.4,0.7-0.6,1.1c-3.2,6.8-6.4,13.6-9.6,20.4
			c-0.2,0.5-0.8,1-1.2,1.1c-1.6,0.3-3.3,0.5-5,0.4c-3.3-0.2-5.7-2.1-6.8-5.3c-0.8-2.3-1-4.8-1.4-7.2c-0.2-1,0-2.1,0-3.4
			c-0.4,0.6-0.7,0.9-0.9,1.2c-1.4,1.7-2.6,3.5-4.1,5c-6.6,6.8-13.9,8.2-23.5,4.1c-4.4-1.9-7.2-5.4-8.2-10.1
			c-0.7-3.2-0.3-6.5,0.6-9.6c2.1-7,5.9-12.9,11.6-17.5c3.1-2.6,6.7-3.5,10.7-2.5c2.5,0.6,4.3,2.1,5.6,4.1c0.8,1.3,0.8,2.6-0.1,3.9
			c-1.9,2.8-5.4,3.8-8.3,2.2c-0.6-0.3-1-0.3-1.4,0.2c-1.3,1.7-2.8,3.3-3.8,5.2c-2.2,4.1-3.2,8.7-3.6,13.3c-0.1,1.2,0.2,2.6,0.6,3.7
			c0.8,2.1,2.3,2.9,4.6,2.8c4.1-0.2,7.4-2.2,10.4-4.7c4.9-4.1,8-9.4,11-14.9c2.6-4.7,3.6-9.9,4.9-15c1.9-7.4,3.6-14.9,5.2-22.4
			c0.5-2.2,0.5-4.4,0.7-6.7c0.1-0.8,0.4-1.4,1.1-1.9c3.4-2,6.9-1.8,10.4-0.4c1.3,0.5,1.8,1.7,1.5,3.1c-0.2,0.9-0.3,1.9-0.8,2.6
			c-2.2,3.6-3.2,7.7-4.2,11.7c-2.6,9.6-5.1,19.3-7.4,29c-0.8,3.3-1,6.7-1.4,10.1c-0.1,0.9,0.1,1.9,0.4,2.8c1.7-3.1,3.5-6.2,5-9.4
			c2.6-5.2,5-10.5,7.4-15.8c1.3-2.8,4.2-4.2,7.7-3.2c2.9,0.8,5.7,2.1,8.7,3.3c-0.7,2.4-1.3,4.6-1.9,6.7c-1.7,6.3-3.2,12.6-3.3,19.1
			c0,1.8,0.2,3.6,0.7,5.3c0.9,2.8,2.9,3.2,5,1.2c2.9-2.8,5.4-6.1,7.3-9.7c1.7-3.2,3.2-6.5,4.8-9.8c1.2-2.4,1.4-5.1,1.9-7.6
			c0.4-2.1,1.6-3.3,3.6-3.8c3.9-1.1,7.3,0.2,10.7,2.1c-0.3,0.6-0.6,1.2-0.9,1.8c-4.1,7.6-5.6,15.7-4.7,24.2c0.2,2.1,0.6,4.1,2.7,5.5
			c0.3-0.3,0.6-0.6,0.9-1c3.1-4.1,4.7-8.7,4.7-13.9c0-2.4,0.4-4.9,0.5-7.3c0.2-4.9,0.9-3.6-1.1-7.7c1.2-1.3,2.7-2,4.4-2.2
			c1.9-0.3,3.8-0.5,5.7-0.4c3.1,0.1,4.3,2.2,3.4,5c-1.8,5.2-1.8,10.7-0.9,16c0.4,2.7,2.1,5.1,3.2,7.7c0.4,0.9,1.4,0.9,1.9,0.1
			c0.7-1.1,1.6-2.3,1.9-3.6c1-3.3,1.7-6.6,2.5-10c0.5-1.8,0.2-3.6-0.7-5.2c-1.8-3.8-2.6-7.8-3-11.9c-0.3-3.2,1.6-5.5,4.7-6.3
			c2.8-0.7,6.3,1.7,6.9,4.5c0.9,4.5,1.9,9.1,2.7,13.6c0.2,1.1,0.7,1.4,1.7,1.3c0.7-0.1,1.5-0.2,2.2-0.4c1.4-0.5,2.4-1.4,2.9-3
			c1.5-4.4,3-8.8,4.8-13.1c0.7-1.7,2-3.2,3.3-4.5c0.9-0.9,2.4-1.6,3.7-1.8c4.2-0.7,8.2,0,12.1,2c2.3,1.2,4.4,5.6,3.1,7.8
			c-0.8,1.5-1.9,2.3-3.5,2.5c-0.5,0.1-1.1-0.4-1.5-0.8c-0.8-1-1.3-2.1-2.1-3.1c-0.3-0.5-0.9-0.9-1.4-1.2c-1.8-1.1-2.9-0.8-3.5,1.2
			c-2.3,6.9-4.8,13.8-4.6,21.2c0.1,2,0.3,4,0.7,5.9c0.3,1.8,1.7,2.8,3.5,2.9c1,0.1,1.7-0.4,2.2-1.2c2.3-3.4,4-7,4.5-11.1
			c0.4-2.9,0.5-5.9,0.7-8.8c0-0.4,0-0.7-0.1-1.1c-0.3-1.1-0.1-1.7,1.1-1.8c2.1-0.2,4.2-0.2,6.3-0.2c0.8,0,1.7,0.1,2.5,0.2
			c0.7,0.1,1.1,0.4,0.8,1.3c-1.1,3.5-0.8,7.1-0.4,10.6c0.2,2.2,1.5,4,3.3,5.4c0.7,0.5,1.3,0.5,1.8-0.3c3.5-5.4,6.6-10.9,7.6-17.4
			c0.5-2.9,0.9-5.8,1.2-8.8c0.3-2.9-0.5-5.4-2.9-7.3c-1.4-1.1-2.2-2.7-2.4-4.5c-0.4-3.9,2.1-6.6,6.4-7.1c3.7-0.4,6,1.6,6.5,5.4
			c0.1,1.1,0.3,2.3,0.5,3.4c0.1,0.8,0.6,1.2,1.4,1.2c2.1,0.1,4.2,0.1,6.3,0.3c2.3,0.2,4.5,0.4,6.7,0.9c2.2,0.5,3.6,1.9,3.9,4.3
			c0.6,5.3,1.4,10.5,2.1,15.8c0.2,1.1,0.5,2.3,1.1,3.3c0.9,1.6,2.9,1.6,3.6,0c1.1-2.6,2.2-5.3,2.9-8.1c1.1-4.7,1.7-9.5,2.6-14.2
			c0.5-2.7-0.3-5.2-0.8-7.8c-0.9-4.9-1.8-9.7-2.7-14.6c-0.1-0.3-0.2-0.6-0.3-1c-3,1.5-6.2,0.7-9.2,0.7c-0.7,0-1.6-0.7-2-1.4
			c-0.4-0.8,0.2-1.7,1-2.1c2.4-1.2,4.8-2.3,7.3-3.4c1-0.4,1.2-0.9,0.9-1.9c-0.4-1.1-0.5-2.3-1-3.3c-0.3-0.9-0.8-1.8-1.4-2.5
			c-0.6-0.7-0.6-1.3-0.2-2.1c1-1.6,2.6-2.2,4.4-2.4c2.2-0.3,4.5-0.3,6.7-0.4c0.8,0,1.3,0.4,1.6,1.2c0.8,1.6,1,3.3,1.1,5.1
			c0,0.6,0,1.2,0,1.9c1.3-0.4,2.4-0.7,3.5-1.1c5.1-1.9,10.2-3.8,15.2-5.7c0.6-0.2,1.2-0.4,1.8-0.5c0.8-0.1,1.4,0.2,1.8,0.9
			c0.4,0.7,0.4,1.4-0.2,2c-0.8,0.7-1.6,1.3-2.5,1.9c-5.7,3.6-11.7,6.5-17.9,8.8c-1,0.4-1.1,0.8-0.9,1.8c1.7,7.5,3.1,15,5.2,22.4
			c1.3,4.5,3.6,8.7,5.7,12.9c0.5,1,1.5,1.7,2.4,2.4c0.9,0.7,1.8,0.4,2.4-0.6c1.5-2.3,2.4-4.8,2.7-7.5c0.4-3.6,0.7-7.2,0.9-10.9
			c0.1-1.1-0.3-2.2-0.4-3.3c-0.1-1.9-0.1-3.9,0-5.8c0.2-2.9,0.8-5.7,2.1-8.3c1.1-2.1,2.4-4.1,4.4-5.4c5.5-3.7,11.4-5.5,18.1-4.1
			c3.7,0.7,6.4,2.8,8.1,6.2c4,8,3.9,16.2,1.1,24.4c-0.7,2-1.6,4-2.4,6.1c1.1-0.1,2.1-0.1,3.2-0.3c4-0.6,7.9,0.2,11.6,1.7
			c0.8,0.3,1.3,0.2,2-0.2c4.6-2.5,9.1-5.1,13.8-7.5c1.7-0.9,3.5-1.5,5.5-0.9c1.6,0.5,2.1,1.6,1.3,3.1c-0.7,1.4-1.7,2.4-3.3,2.9
			C686.3,816.5,681.9,818.8,677.5,821.4z M669,827.2c-8.6,5.9-15.8,13.1-20.7,22.3c-0.8,1.5-1.3,3.1-1.6,4.7
			c-0.8,3.9,1.3,6.7,5.2,7.2c0.9,0.1,1.8,0.2,2.6,0.1c5.4-0.5,10.1-2.8,14-6.4c6-5.6,7.9-13.3,5.1-20.7
			C672.6,831.9,671.2,829.3,669,827.2z"/>
		<path d="M830.5,672.6c-0.2-1.1-0.3-2.3-0.6-3.4c-2.3-9.2-4.9-18.2-9.2-26.7c-0.4-0.9-0.9-1.8-1.3-2.7c-0.6-1.7-0.1-3.5,1.4-4.8
			c1.4,1.3,3.2,2.5,4.3,4.1c5.7,8.3,10.1,17.3,12.2,27.1c1.5,7.1-3,13.7-9.9,14.8c-1.5,0.2-3,0-4.5,0c0.2,1.7,0.5,3.5,0.7,5.3
			c1.2,9.7-8,17.7-16.1,16.6c-2.5-0.3-4.6-1.4-6.5-3.1c-0.7-0.6-1.3-1.2-2-1.8c-1,1.2-1.9,2.5-2.9,3.6c-1,1-2.3,1.8-3.5,2.8
			c1.7,3.1,2.8,6.3,3.5,9.8c0.7,4,0.1,7.7-2.1,11c-3,4.6-6.9,8-12.5,9c-2.6,0.5-5.1-0.1-7.5-1.2c-0.5-0.3-1.1-0.5-1.7-0.9
			c0.1,1.7,0.3,3.2,0.4,4.7c0,1.6,0,3.3-0.1,4.9c-0.3,2.8-1.6,5-3.8,6.8c-3.5,2.7-7.4,4-11.7,3.6c-1.1-0.1-2.2-0.6-3-1.2
			c-1.6-1.3-3.2-2.8-4.6-4.4c-2.9-3.2-5.7-6.5-8.4-9.9c-1.1-1.3-2.2-1.7-3.8-1.3c-0.6,0.2-1.2,0.3-1.5,0.4c0.9,3.6,2,7,2.6,10.5
			c1.1,5.7,2,11.4,1.6,17.3c-0.7,10.4-7,16.3-17.3,17.8c-5.9,0.8-11.3-0.7-16.1-4.6c0,0.6,0,1,0,1.4c0.1,3.5-0.1,6.9-0.8,10.4
			c-1.1,5.3-4.2,9.3-8.8,12c-5.8,3.4-11.8,4.5-18.3,2.3c-2.9-1-5.4-2.8-6.9-5.4c-4.7-8-6.9-16.7-6.3-25.9c0.2-3.9,2.1-6.9,5.9-8.5
			c3.3-1.5,6.6-2.4,10.2-1.7c2.4,0.5,4.2,1.8,5.1,4.2c1.9,5.2,3.1,10.5,1.6,16.1c-0.7,2.7-2.3,5-4.5,6.8c-1,0.8-2.3,1.2-3.6,1.9
			c0-0.1,0,0.1,0,0.2c1.8,3,4.1,5.4,7.7,6.2c2,0.4,4,0,5.9-0.7c1.3-0.5,1.9-1.6,2.4-2.9c3.1-8.1,4-16.5,3.3-25.1
			c0-0.6-0.4-1.3-0.7-1.9c-6.1-12-10.8-24.5-13.8-37.7c-0.4-1.5-0.8-3.1-1.4-4.5c-1.7-4.4-0.7-7.6,3.3-10c3.7-2.2,7.5-3.3,11.7-1.5
			c2.3,1,4,2.7,5.5,4.7c4.3,5.7,6.7,12.2,8.2,19.1c1.4,6.2,2.2,12.5,1.5,18.8c-0.3,3-1,6.1-1.8,9c-0.4,1.6-0.4,2.8,0.8,4
			c4.1,4.6,9.2,5.6,14.9,4.5c1.5-0.3,2.3-1.2,2.8-2.7c1.1-3.4,1-6.9,0.8-10.3c-0.3-5.6-1.6-11-3.3-16.4c-0.2-0.6-0.4-1.1-0.7-1.7
			c-0.9-2.4-2.5-3.9-5-4.6c-2-0.6-3.5-1.8-4.5-3.6c-1.3-2.3-1.1-4.8,0.7-6.8c0.8-0.9,1.9-1.8,3-2.4c2.5-1.4,5.3-0.8,7,1.6
			c0.9,1.3,1.7,2.8,2.6,4.2c0.4,0.6,0.8,0.8,1.5,0.5c2-0.8,4.1-1.6,6.2-2.3c2.2-0.7,4.4-1.4,6.7-1.9c2.1-0.4,3.8,0.3,5,2.3
			c2.7,4.6,5.5,9.2,8.3,13.8c0.6,0.9,1.3,1.8,2.1,2.6c0.7,0.8,1.6,0.9,2.6,0.5c1.1-0.4,1.2-1.3,1.2-2.1c-0.2-2.7-0.3-5.5-0.7-8.2
			c-0.8-5.3-1.9-10.6-3.9-15.7c-0.8-1.9-2-3.7-2.9-5.6c-0.2-0.4-0.4-0.8-0.5-1.2c-0.5-1.7-0.9-3.4-1.6-5c-1.4-3.1-0.6-5.7,1.3-8.2
			c1-1.2,2.1-2.3,3.4-3.2c3.8-2.9,8.2-4.8,12.9-5.9c2.5-0.6,4.9-0.2,7,1.5c2.8,2.3,5.7,4.6,8.5,7c0.9,0.8,1.5,0.8,2.3-0.1
			c1.9-2,3.4-4.2,3.1-7.1c-0.1-0.6-0.2-1.3-0.4-1.8c-1.2-2.7-2.7-5.2-3.5-8c-1.6-4.9-2.9-9.9-1.4-15c1-3.7,3.4-6.4,6.6-8.3
			c0.8-0.5,1.6-0.9,2.5-1.4c-1-1.2-2-2.3-2.9-3.4c-5.6-6.4-11.1-12.9-16.7-19.3c-0.5-0.6-1.2-1-1.8-1.5c-1.5-1.3-1.8-2.7-0.8-4.4
			c1-1.6,2.1-3.1,3.3-4.4c1.6-1.8,4.3-2,6-0.7c0.4,0.3,0.7,0.8,1.1,1.3c4.1,5.4,8.1,10.9,12.3,16.2c3.5,4.3,7.2,8.3,10.9,12.5
			c4.4,5,8.7,10,13.2,14.9c1.4,1.5,3.2,2.6,5,3.7c1,0.6,2.2,0.7,3.4,1C830.3,672.8,830.4,672.7,830.5,672.6z M797.4,669.3
			c0.1,1,0.2,2,0.5,2.9c0.7,2.3,1.5,4.5,2.4,6.8c2.3,5.7,6,10.3,11.3,13.5c0.7,0.5,1.5,0.9,2.3,1.2c1.7,0.6,2.7-0.2,2.8-1.9
			c0-0.3,0-0.6-0.1-0.9c-1.1-3.9-2.1-7.9-3.4-11.8c-1.3-3.8-3.2-7.4-6.3-10.1c-1-0.9-1.7-2-2.6-3c-0.7-0.8-1.6-1.4-2.5-2
			c-0.7-0.5-1.5-0.3-2.2,0.2C797.6,665.3,797.3,667.2,797.4,669.3z M787.8,721.7c-0.3-1.9-0.5-3.8-0.8-5.7c-0.5-3.3-2-5.8-5-7.5
			c-2.2-1.2-4.3-2.4-6.5-3.6c-1.8-1-3.6-2.1-4.6-4.1c-0.3-0.5-0.8-1-1.3-1.4c-0.7-0.7-1.5-1-2.5-0.5c-1,0.5-1.6,1.2-1.3,2.4
			c0.2,0.9,0.3,1.8,0.7,2.5c1.9,3.9,3.8,7.9,5.9,11.7c1.6,3,3.8,5.6,6.6,7.5c1.4,0.9,3,1.7,4.6,2C786,725.7,788,725,787.8,721.7z
			 M704.7,754.3c0-0.3,0.1-0.5,0.1-0.8c-0.1-5.1-0.6-10.2-1.7-15.2c-0.9-3.9-1.9-7.7-3.7-11.2c-1.1-2.1-2.6-3.9-4.4-5.6
			C697.3,732.7,699.6,743.8,704.7,754.3z M677.5,783.8c0.2,0.1,0.3,0.1,0.5,0.2c0.6-1,1.4-1.9,1.8-2.9c0.4-1.1,0.6-2.4,0.5-3.5
			c-0.4-2.9-0.7-5.9-2.2-8.5c-0.3-0.6-0.9-1.1-1.3-1.7c-0.1,0.1-0.2,0.1-0.3,0.2C676.8,773,675.2,778.5,677.5,783.8z"/>
		<path d="M117.6,742.2c-2.8,0.7-5.5,0.9-8.2,0.1c-5.3-1.6-8.9-5.1-10.9-10.2c-1.1-2.7-0.5-5.5,0.8-8c2.1-4,5.1-7.1,8.9-9.5
			c6.4-3.9,13.4-5.9,20.7-7.3c1.6-0.3,3.3-0.1,4.9,0c1.6,0.1,3,0.9,4.1,2c2.7,2.8,4.5,6,5.4,9.9c0.8,3.5-1.9,7.8-4.9,8
			c-1.5,0.1-2.7-0.3-3.8-1.3c-0.6-0.5-0.4-1.1-0.2-1.7c0.5-1.3,1-2.6,1.4-3.9c0.2-0.6,0.1-1.3-0.1-1.9c-0.4-1.7-1-2.1-2.6-1.6
			c-7.5,2.4-15.2,4.6-21.5,9.7c-1.2,1-2.4,2-3.4,3.2c-0.6,0.8-1.1,1.9-1.3,2.9c-0.2,1.7,1.1,3.1,2.8,3c4.8-0.2,9.5-1.2,13.6-4
			c1.9-1.3,4-2.4,5.9-3.7c0.5-0.3,1-0.8,1.3-1.3c0.6-0.7,1.2-0.4,1.7,0c0.9,0.7,1.8,1.5,2.5,2.4c1.1,1.4,2,2.9,3,4.4
			c0.8,1.2,0.6,1.5-0.6,2c-3.4,1.3-6.2,3.7-8.8,6.1c-1.5,1.4-2.2,3.3-2.3,5.4c-0.1,1.1,0.3,1.6,1.5,1.5c5.7-0.4,11.4-1.2,16.7-3.4
			c3.3-1.4,6.7-2.7,10.1-4.1c1-0.4,2-0.9,2.9-1.3c1.6-0.8,3.3-1.2,4.8-0.2c1.5,1,3.1,2,4.3,3.4c1.6,1.8,1.7,4.3,0.1,6.2
			c-1.7,2-3.6,4-5.7,5.6c-3.4,2.4-5.8,5.5-8.1,9c1-0.6,2.1-1,3.1-1.7c3.7-2.4,7.3-4.8,11-7.1c2.7-1.7,5.6-3,8.8-3.5
			c4.2-0.6,7.6,0.8,10.2,4.2c1.2,1.6,1.5,3.5,0.9,5.4c-0.6,1.6-1.4,3.3-2.6,4.6c-3.5,3.8-7.2,7.4-10,11.8c-0.2,0.3-0.4,0.6-0.8,1.2
			c0.8-0.2,1.3-0.3,1.8-0.4c1.4-0.5,2.8-1,4.1-1.7c5.7-3,11.1-6.6,16.3-10.6c0.4-0.3,0.9-0.7,1.2-1.2c1.2-1.6,2.6-2.1,4.5-1.3
			c1.6,0.7,3.2,1.4,4.5,2.5c1.7,1.4,3,3.1,4.5,4.6c0.7,0.8,0.7,1.4-0.2,2.2c-4.5,3.7-8.8,7.7-12.3,12.4c-1.5,2.1-2.9,4.4-3.9,6.8
			c-1.1,2.5-0.3,3.5,2.3,3.1c2.1-0.3,4.2-0.9,6.1-1.8c2.5-1.2,5-2.6,7.3-4.2c4.7-3.2,9.4-6.6,14-10.1c0.9-0.7,1.6-2.2,1.8-3.4
			c0.3-1.6,0.7-2.4,2.3-2.6c2.4-0.3,6.4,2,7.4,4.2c0.7,1.6,0.2,3.7-1.2,5c-0.3,0.2-0.5,0.5-0.8,0.7c1.9-0.7,3.7-1.4,5.5-2.1
			c3.2-1.2,6.2-1,9,0.9c1.8,1.2,3.7,2.3,5.3,3.6c2.9,2.4,4.1,5.6,2.9,9.1c-3.5,10.4-9.3,19.1-19.8,23.5c-5.8,2.5-11.7,1.9-17.3-0.9
			c-2.8-1.4-4.9-3.6-6.2-6.7c-0.3,0.3-0.6,0.5-0.8,0.8c-5.1,5.5-9.3,11.6-12.6,18.3c-1.1,2.3-1.8,4.8-2.4,7.2
			c-0.2,0.9,0.1,2.1,0.2,3.1c0.2,1.3-0.4,2-1.7,1.9c-6.5-0.4-10.8-6.3-8.8-12.5c0.9-2.7,2.2-5.3,3.7-7.7c3.9-6.3,8.8-11.8,13.6-17.4
			c1.1-1.3,2.2-2.6,3.2-3.9c-2.7,1.1-5.3,1.9-8.2,2.1c-4,0.2-7.5-1.1-10.5-3.6c-3.4-2.9-4.2-6.6-3.2-10.9c0.4-1.5,1-2.9,1.5-4.4
			c-1.3,0.7-2.7,1.5-4.1,2.2c-2.8,1.4-5.7,2.4-8.9,2.4c-3.9,0-7-1.8-9.4-4.7c-2.3-2.7-2-6.5,0.6-9.4c1.5-1.7,3.2-3.2,4.7-4.8
			c1.8-1.9,3.5-4,5.2-6c-0.1-0.1-0.1-0.2-0.2-0.3c-0.5,0.3-0.9,0.6-1.4,0.9c-3.7,2.5-7.4,5.1-11.1,7.5c-2.7,1.8-5.6,2.8-8.8,3.2
			c-3.2,0.3-6-0.4-8.6-2.2c-3.2-2.3-4.4-5.4-2.8-9c1-2.3,2.5-4.3,4-6.4c1.2-1.7,2.7-3.1,4.3-4.9c-1,0.4-1.6,0.7-2.3,1
			c-5.8,2.4-11.8,3.8-18.1,3.4c-1.3-0.1-2.8-0.5-3.9-1.2c-3.8-2.4-6.6-5.7-6.9-10.5C117.7,743.5,117.6,742.9,117.6,742.2z
			 M219.4,801.4c0.7,0.9,1.2,1.4,1.7,2c1.2,1.4,1.1,3-1.3,3.2c-0.3,0-0.7,0.4-0.8,0.6c-0.4,1.3,0.5,3.5,1.6,4.2
			c2.2,1.4,4.5,1.2,6.7,0.3c5.5-2.2,10-5.8,13-10.8c1.8-3,3.2-6.2,4.5-9.4c0.5-1.3,0.5-2.8,0.4-4.2c-0.1-1.5-1.2-2-2.6-1.5
			c-0.7,0.3-1.4,0.6-2,1c-2.8,1.7-5.6,3.3-8.4,5.1c-2.7,1.7-5.4,3.4-8,5.2C222.5,798.5,221,800,219.4,801.4z"/>
		<path d="M339.5,856.7c-9.3-0.1-17.5-1.9-25.5-4.7c-10.8-3.7-21.3-8.1-30.8-14.5c-1.7-1.2-3.4-2.3-5-3.7c-0.9-0.7-1.6-1.7-2.1-2.7
			c-0.9-1.8,0.2-3.7,2.2-3.9c2.1-0.2,4-0.1,5.3,1.9c2.2,3,5.1,5,8.5,6.4c8.4,3.5,16.7,7.3,25.2,10.5c6.8,2.6,14.1,3.2,21.4,2.3
			c1.8-0.2,3.6-0.7,5.4-1.2c1.1-0.3,2.1-0.9,3-1.7c2.1-1.7,3-4.3,1.1-6.7c-1.7-2.1-3.6-4.1-5.6-5.9c-3-2.8-6.6-4.7-10.4-6.3
			c-9.1-3.8-17.5-8.5-25-15c-2.8-2.4-5-5.2-7.1-8.2c-2.4-3.5-2.7-7.2-1.7-11.1c1.1-4.4,3.6-7.8,6.9-10.7
			c7.8-6.7,16.7-10.9,27.1-10.9c12.2,0,22.2,4.9,29.5,14.8c2.5,3.4,3.5,7.4,2.5,11.7c-0.5,2.2-0.8,4.4-1.5,6.5
			c-1.7,5-7.8,6.1-11.2,2.1c-0.9-1-1-2.2-0.8-3.4c0.4-2.7,0.7-5.4,1.1-8.1c0.7-4.3-1.2-7.7-4.3-10.2c-5.6-4.4-11.9-5.7-18.9-3.8
			c-6.5,1.8-11.8,5.3-14.9,11.5c-0.9,1.9-1.4,4-1.8,6c-0.4,1.9,0.3,3.7,1.3,5.3c3.4,5.7,8.4,9.4,14.5,11.9c7.1,3,14,6.4,20.7,10.3
			c4.6,2.7,8.9,5.7,12.2,10c5,6.4,3.2,14.3-3.9,18.1c-3.3,1.8-7,2.5-10.7,2.8C343.5,856.5,341.2,856.6,339.5,856.7z"/>
	</g>
</g>
<g id="heart_fire_deep_xA0_Image_1_">
	<g>
		<path d="M199.9,615.1c0-8.8,0-17.6,0-26.4c0.3-2.3,0.6-4.6,0.9-6.8c0.7-5.2,1.1-10.5,2.3-15.6c6.9-27.6,17.5-53.6,34.1-76.9
			c5.1-7.2,9.8-14.6,14.6-22c5.9-9.3,10.4-19.2,13.6-29.8c3.6-11.8,6.2-23.8,7.2-36.1c0.7-8.3,0.5-16.6-1.2-24.8
			c-2.1-10.1-3.4-20.3-6.8-30.1c-0.6-1.7-1.1-3.5-1.6-5.3c-0.1-0.5-0.2-1-0.4-1.8c0.8,0.2,1.3,0.2,1.8,0.4
			c6.6,2.4,13.3,4.7,19.8,7.3c8.8,3.5,17.2,7.7,24.7,13.6c4.7,3.6,9.3,7.4,13.7,11.2c21.2,18.4,38,40.1,48.8,66.2
			c0.1,0.3,0.3,0.6,0.5,0.9c0.3-0.8,0.2-1.5,0.1-2.2c-1.3-6.4-2.5-12.9-3.1-19.4c-0.5-5.7-1.3-11.4-1.7-17.2
			c-0.4-5.3-0.5-10.5-0.8-15.8c-0.5-9.3-0.1-18.5,1.1-27.8c0.8-5.9,1.8-11.8,2.7-17.8c1.2-8.9,2.8-17.6,5.7-26.2
			c8.1-23.9,19.2-46.1,35.5-65.7c3.3-4,6.9-7.8,11-11c3-2.4,5.9-4.9,8.9-7.3c7.6-6.2,15.4-12.2,24.1-16.9
			c6.6-3.6,13.1-7.4,19.6-11.1c0.8-0.4,1.5-0.9,2.2-1.4c0.2,0,0.3,0,0.5,0c0.8,0.9,0.1,1.6-0.2,2.4c-1.5,4.4-3.3,8.7-4.6,13.1
			c-5.9,19.1-9.1,38.7-10.2,58.7c-1.1,19.8,0.7,39.2,6.4,58.3c8.6,29,23.6,53.9,45.4,74.7c2.1,2,4.4,3.7,6.7,5.4
			c0.7,0.5,1.6,0.8,2.6,1.2c0.2-0.8,0.3-1.3,0.4-1.7c0.5-4.4,2-8.6,4.1-12.5c8.7-16.9,20.6-31,36.8-41.1c13.9-8.7,29-14.6,44.9-18.3
			c11-2.5,22.2-3.9,33.3-5.8c1.9-0.3,3.9-0.4,6,0.4c-0.2,1-0.4,1.8-0.6,2.7c-3.6,13-7,26.1-9.8,39.3c-1.7,8.3-3,16.7-2.8,25.2
			c0.3,15.4,3.4,30.1,8.6,44.5c4.6,12.7,10.2,25,15.8,37.3c5.9,12.9,11.8,25.9,16.4,39.4c6.5,19.1,10.9,38.6,11.4,58.9
			c0,0.8,0.2,1.5,0.4,2.3c0,4,0,8,0,12c-0.1,0.9-0.3,1.9-0.4,2.8c-0.2,2.9-0.2,5.8-0.5,8.6c-1.3,12.7-4.2,25.1-9.2,36.8
			c-8.8,20.9-22.8,37.2-42.9,48.1c-1.9,1-3.7,2.2-5.6,3.3c-14.6,9.1-29.2,18.2-43.8,27.3c-5.6,3.5-11.3,7-17.3,9.7
			c-8.1,3.6-16.2,7.3-24.8,9.5c-1.7,0.4-3.5,0.7-5.2,0.8c-2.7,0.1-3.6-1.3-2-3.6c1.3-1.9,2.8-3.8,4.5-5.2
			c16.6-14,30.2-30.6,40.8-49.6c14-25.1,22.1-52,24.1-80.7c1-14.9,0.1-29.7-3.5-44.3c-2.5-9.9-6.2-19.3-12-27.8
			c-3.9-5.7-8.7-10.7-14.6-14.4c-10.8-6.8-22.5-7.8-34.6-5c-9.8,2.2-18.7,6.6-27.1,12c-9.6,6.1-18.3,13.4-26.5,21.3
			c-12.6,12.1-23.8,25.4-34.4,39.4c-0.5,0.7-1.1,1.3-1.6,2c-3.4-3.8-6.7-7.5-10-11.1c-12.8-13.9-26.3-27.1-41.3-38.7
			c-10.9-8.4-22.5-15.9-35.3-21.1c-9.2-3.7-18.7-6-28.7-5.6c-9.8,0.5-18.4,3.8-25.9,10.1c-5.3,4.5-9.4,10-12.7,16.1
			c-4.8,9-7.5,18.6-9.2,28.6c-2.4,15-2.2,30-0.4,45c2,16.4,6,32.4,11.9,47.8c11.9,31.4,29.7,58.9,54.9,81.3c0.2,0.2,0.5,0.4,0.7,0.6
			c1,1,0.8,2-0.3,2.8c-0.3,0.2-0.7,0.4-1.1,0.5c-0.8,0-1.6,0-2.4,0c-0.2-0.1-0.4-0.3-0.6-0.4c-4-1.2-8-2.2-11.9-3.7
			c-11.6-4.5-22.7-10.2-33.8-15.9c-0.4-0.2-0.9-0.4-1.2-0.8c-1.6-1.8-3.7-2.7-5.8-3.7c-1.7-0.8-3.5-1.5-5.1-2.6
			c-12.3-8-24.4-16.1-36.1-25c-9.7-7.3-19.4-14.7-28.2-23.1c-7.2-6.9-13.8-14.4-19-23.1c-4-6.8-7.1-14-8.3-21.8
			c-0.3-2.1-0.7-4.3-1.1-6.4C200.8,616.3,200.3,615.7,199.9,615.1z"/>
	</g>
</g>
<g id="_x39__x2022_10_x2022_16">
	<rect x="257.7" y="717.6" class="st0" width="373.3" height="34.6"/>
	<text transform="matrix(1 0 0 1 359.3696 750.3359)"><tspan x="0" y="0" class="st1 st2">9</tspan><tspan x="36.7" y="-6" class="st1 st3">•</tspan><tspan x="45.5" y="0" class="st1 st2">10</tspan><tspan x="104.5" y="-6" class="st1 st3">•</tspan><tspan x="113.3" y="0" class="st1 st2">16</tspan></text>
</g>
<g id="S_2_">
	<g id="S_stick_tip_xA0_Image_1_">
	</g>
	<g id="Layer_1_xA0_Image_1_">
		<g>
			<path class="st0" d="M418.6,63.5c-0.8,0.1-1.5,0.2-2.3,0.3c-3.6,0.5-7.2,1-10.8,1.6c-1,0.2-1.7,0-2.4-0.8
				c-1.1-1.4-2.3-2.6-3.6-4.1c3-1.1,5.1-3.5,8.6-3.5c2,0,4.1-0.1,6.1-0.2c-4.8-6.8-10.2-13-15.7-19.1c-1.8-2-3.8-3.8-5.8-5.5
				c-0.7-0.6-1.8-0.9-2.7-1c-2.2-0.3-4.5-0.4-6.7-0.6c-7.2-0.5-14.3-1.2-21.5-1.6c-5.8-0.3-11.7-0.1-17.5,0.7
				c-3.6,0.5-7.2,1.2-10.8,1.7c-5.5,0.7-11.2,1-16.6,2.1c-8.1,1.6-16.1,3.6-24.1,5.6c-19,4.9-36.6,13-53.2,23.5
				c-4,2.5-7.6,5.6-10.2,9.6c-0.5,0.8-0.6,1.4,0,2.3c3.6,5.4,7.2,10.8,10.7,16.4c5.6,9,10.5,18.3,13.6,28.5
				c3.4,11.3,4.4,22.9,4.5,34.6c0.1,10.5-1.9,20.8-2.7,31.2c-0.2,2.8-0.5,5.6-0.8,8.5c2.8,0.2,5.4,0.3,8.1,0.4
				c6.6,0.3,13.2,0.9,19.8,0.9c5.2,0.1,10.5-0.5,15.7-0.7c2.4-0.1,4.7,0,7.1-0.3c6-0.6,12-1.3,18-2c3.7-0.4,7.4-0.6,11.1-1.3
				c6.1-1.2,12.2-2.7,18.2-4.2c14.5-3.6,28.7-8.1,42.2-14.4c12.2-5.7,23.6-12.6,34.7-20.1c0.8-0.5,1.2-1.1,1.3-2.1
				c0.8-7.3,1.9-14.7,2.5-22c0.7-8.1,0.8-16.2-0.4-24.3C430.7,89.3,426.1,75.9,418.6,63.5z"/>
			<path class="st0" d="M229,85.1c-1.3-2-2.8-3.8-4.3-5.6c-0.6-0.8-1.5-1.4-2.4-2.1c-1.3,3.2-2.4,6.2-3.6,9.2
				c-2.8,7.1-4.7,14.4-4.4,22.2c0.1,4.1,0.6,8.3,0.9,12.4c0.2,2.7,0.2,5.4,0.7,8c1.8,8.8,4.2,17.5,7.1,26
				c4.9,14.3,12.7,26.7,24,36.8c0.1,0.1,0.2,0.1,0.6,0.3c0.1-0.7,0.2-1.3,0.3-1.9c0.2-1.4,0.4-2.8,0.6-4.2
				c1.6-10.7,3.2-21.3,3.8-32.1c1-16.4-2-31.9-9.3-46.7C239.1,99.5,233.9,92.5,229,85.1z"/>
			<path d="M432.5,61.4c2-0.3,3.8-1.2,5.8-1.8c0-0.2-0.1-0.3-0.1-0.5c-2.7-1.3-5.6-1.7-8.6-2c-2.1-0.2-4.2-0.3-6.3-0.4
				c1.1,1.8,2.1,3.7,3.1,5.6C428.4,62,430.4,61.7,432.5,61.4z"/>
			<path d="M436.1,89.2c-2.2-9.5-5.4-18.5-9.7-26.9c-1-1.9-2-3.8-3.1-5.6c-3.6-6.1-7.8-11.9-12.8-17.3c-4.8-5.3-9.4-10.8-14.1-16.2
				c-0.3-0.3-0.9-0.5-1.3-0.5c-6.8-0.1-13.7-0.2-20.5-0.3c-0.9,0-1.8-0.1-2.7-0.2c-3.5,0-7,0-10.6,0c-0.7,0.1-1.4,0.2-2.1,0.2
				c-4,0.2-8,0.3-12,0.7c-5.8,0.5-11.6,1.3-17.4,2c-3.6,0.4-7.2,0.6-10.7,1.3c-6.3,1.3-12.5,2.8-18.6,4.4
				c-16.4,4.3-32.5,9.6-47.8,16.9C239.4,54.2,227,62,214.2,69c-0.4,0.2-0.7,0.7-0.8,1.1c-2.3,9.4-4.7,18.9-5.3,28.6
				c-0.5,7.2-0.8,14.3,0.1,21.4c0.7,5.7,1.8,11.4,2.9,17.1c4.7,24,15.5,45.1,30.5,64.2c1.2,1.6,2.8,2.2,4.6,2.3
				c2.6,0.1,5.2,0.2,7.8,0.2c9.2-0.1,18.4-0.1,27.6-0.5c8.7-0.4,17.4-0.8,26-2.6c15.1-3.1,30.3-5.8,45.4-9
				c15.2-3.2,30-7.7,44.4-13.6c14.4-5.9,28.5-12.5,41.3-21.5c0.4-0.3,0.9-0.8,1-1.3c0.4-7.3,0.9-14.5,0.9-21.8
				C440.7,118.7,439.5,103.9,436.1,89.2z M252.3,154.1c-0.7,10.8-2.3,21.4-3.8,32.1c-0.2,1.4-0.4,2.8-0.6,4.2
				c-0.1,0.6-0.2,1.1-0.3,1.9c-0.4-0.2-0.5-0.2-0.6-0.3c-11.3-10.1-19.1-22.5-24-36.8c-2.9-8.5-5.3-17.2-7.1-26
				c-0.5-2.6-0.5-5.3-0.7-8c-0.3-4.1-0.7-8.3-0.9-12.4c-0.3-7.7,1.6-15,4.4-22.2c1.2-3,2.4-6,3.6-9.2c0.9,0.8,1.7,1.3,2.4,2.1
				c1.5,1.8,3,3.6,4.3,5.6c4.9,7.3,10.1,14.4,14,22.3C250.3,122.2,253.3,137.7,252.3,154.1z M433.3,127.8c-0.7,7.4-1.7,14.7-2.5,22
				c-0.1,0.9-0.5,1.5-1.3,2.1c-11.1,7.4-22.6,14.4-34.7,20.1c-13.6,6.3-27.7,10.8-42.2,14.4c-6,1.5-12.1,3-18.2,4.2
				c-3.6,0.7-7.4,0.9-11.1,1.3c-6,0.7-12,1.4-18,2c-2.3,0.2-4.7,0.1-7.1,0.3c-5.2,0.2-10.5,0.8-15.7,0.7c-6.6-0.1-13.2-0.6-19.8-0.9
				c-2.7-0.1-5.3-0.3-8.1-0.4c0.3-2.9,0.6-5.7,0.8-8.5c0.8-10.4,2.8-20.7,2.7-31.2c-0.1-11.7-1.1-23.3-4.5-34.6
				c-3.1-10.2-8-19.5-13.6-28.5c-3.5-5.5-7.1-10.9-10.7-16.4c-0.6-0.9-0.5-1.5,0-2.3c2.6-4.1,6.2-7.1,10.2-9.6
				c16.5-10.5,34.2-18.6,53.2-23.5c8-2.1,16-4,24.1-5.6c5.5-1.1,11.1-1.4,16.6-2.1c3.6-0.5,7.2-1.1,10.8-1.7
				c5.8-0.9,11.6-1,17.5-0.7c7.2,0.4,14.3,1,21.5,1.6c2.2,0.2,4.5,0.3,6.7,0.6c0.9,0.1,2,0.4,2.7,1c2,1.7,4,3.5,5.8,5.5
				c5.5,6.1,11,12.4,15.7,19.1c1.2,1.7,2.3,3.4,3.4,5.1c0.3,0.5,0.6,1,0.9,1.5c7.4,12.4,12.1,25.8,14.2,40.1
				C434.1,111.6,434,119.7,433.3,127.8z"/>
		</g>
	</g>
	<g id="S_stick_xA0_Image_1_">
		<g>
			<path d="M82.3,404.9c0.1-1.7,0.3-3.4,0.4-5.1c0.5-10.1,1-20.1,1.6-30.2c0.3-4.5,0.9-9,1.4-13.5c0.6-5.6,1.1-11.2,1.6-16.8
				c0.7-8,2.6-15.8,4.5-23.5c6-24.1,15-47,24.6-69.9c5.2-12.5,12.1-23.8,20.4-34.4c8.4-10.6,16.4-21.4,24.9-31.8
				c9-11.1,19-21.2,30.6-29.6c9.4-6.8,19.5-12.3,30-17.3c2.3-1.1,4.5-2.2,6.9-3.4c-2.1-7-1.5-14-0.5-20.6c0.5,3.8,1.2,7.9,1.6,12.1
				c0.8,7.2,3.2,14,5.7,20.7c1.4,3.6,2.9,7.1,4.3,10.7c0.1,0.4,0.3,0.7,0.4,1.1c-0.1,0.1-0.2,0.1-0.3,0.2c-1.1-1.9-2.2-3.7-3.3-5.6
				c-1.2-2-2.4-3.9-3.4-5.9c-1-2-1.8-4.1-2.9-6.4c-5.5,3.2-11.1,6.3-16.5,9.7c-19.6,12.7-35.5,29.2-48.5,48.5
				c-10.6,15.7-19.2,32.5-27,49.8c-1.3,2.8-2,5.9-2.9,8.9c-0.1,0.4-0.2,0.9-0.2,1.4c-0.1,1.9,0.5,2.5,2.4,2c1.4-0.4,2.7-1.1,3.9-1.8
				c2-1.1,3.9-2.5,5.9-3.6c1.1-0.6,2.4-0.9,3.9-1.4c-0.5,2.5-1.4,4.4-2.5,6.3c-2.4,3.9-5.7,6.8-9.3,9.6c-2.5,2-5,3.9-7.6,5.9
				c-4.5,3.6-7.7,8-9.7,13.4c-4.6,12.7-9.8,25.1-13.7,38.1c-2,6.7-4,13.3-5,20.2c-0.7,4.6-1.1,9.2-0.4,13.7c0.7,5.2,0.1,10.3-1,15.4
				c-1.5,7.4-3,14.8-2.5,22.3c0.3,4.4,1,8.8,1.7,13.2c1.3,8.4,2.4,16.9,4,25.2c1.8,9.1,3.9,18.2,6.1,27.2
				c3.7,15.7,7.5,31.3,11.4,46.9c7.3,29.1,19.6,56.1,35.2,81.6c8.9,14.6,18.6,28.6,30.3,41.2c10.8,11.7,22.6,22.2,35.1,32
				c6.5,5.1,12.8,10.3,19.4,15.3c3,2.3,6.2,4.4,9.5,6.2c5.7,3.3,11,7,15.6,11.6c9.7,9.8,21.3,16.5,34,21.5
				c11.5,4.5,22.8,9.4,34.2,14.1c3.5,1.4,7.1,2.5,10.7,3.7c2.8,0.9,5.2,2.4,7.1,4.6c0.5,0.6,1,1.3,1.4,2.1c1,2.1,0.2,3.9-2.1,4.2
				c-1.8,0.3-3.6,0.4-5.4,0.2c-5.9-0.8-11.8-1.8-17.8-2.8c-4.6-0.8-9.2-1.5-13.6-2.7c-3.7-1-7.4-2.3-10.9-3.9
				c-9.5-4.3-18.9-8.7-28.3-13.2c-8.7-4.2-17.1-9-25-14.6c-11.1-7.9-22.7-15.2-33-24.3c-5.8-5.1-11.4-10.4-17.2-15.5
				c-5.2-4.6-10.8-8.8-16-13.4c-22.1-19.9-39.4-43.5-52.3-70.2c-1.8-3.8-3.7-7.5-5.4-11.3c-4-8.8-8.9-17.2-14.1-25.3
				c-1.4-2.1-2.6-4.3-3.8-6.5c-4.2-7.2-6.7-14.9-7.4-23.3c-0.6-6.4-1.8-12.8-2.7-19.2c-2.1-14.3-6.3-28.1-9.1-42.1
				c-3-14.7-5.7-29.4-8.6-44.1c-0.3-1.6-0.6-3.1-0.9-4.7C82.3,407,82.3,405.9,82.3,404.9z"/>
		</g>
	</g>
	<g id="S_xA0_Image_1_">
		<g>
			<path d="M364.3,40.6c2.3,0.2,4.7,0.4,7,0.5c6.2,0.1,11.9,2.1,17.2,5.3c5.5,3.3,9,8,10,14.5c0.5,3.4,0.3,6.8-0.7,10.1
				c-1.2,4-2.6,8-3.9,11.9c-0.1,0-0.2,0-0.3,0c0-0.5,0.1-1.1,0.1-1.6c0.3-4.7,0-9.3-1.4-13.8c-2.6-8.5-8.3-13.9-16.7-16.6
				c-5.3-1.7-10.7-2.3-16.2-2c-4.9,0.3-9.8,0.9-14.7,1.4c-4.2,0.4-8.5,0.6-12.6,1.3c-5.7,0.9-11.3,2.2-16.9,3.5
				c-14.1,3.3-26.9,9.5-38.4,18.4c-1.9,1.5-3.7,3.2-5.2,5.1c-3.8,4.5-5.1,9.6-3.6,15.3c0.6,2.2,1.3,4.4,2.2,6.4
				c3.4,7.5,9.1,11.7,17.4,12.8c7.7,1,15.2,0.4,22.8-1c14.5-2.7,29.1-5.5,43.2-9.6c7.5-2.2,15.2-3.5,22.8-5
				c6.1-1.2,12.1-0.2,17.9,2.1c10.7,4.3,19.5,11,26,20.6c2.7,4,4.2,8.4,3.8,13.3c-0.3,3.1-1.6,5.7-3.6,8.1
				c-3.6,4.3-8.3,7.2-13.2,9.6c-20.7,9.9-42,18-64.5,22.6c-5.3,1.1-10.7,1.4-16,2c-5.7,0.6-11.4,1.4-17,1.8
				c-6,0.4-12.1,0.5-18.1,0.3c-4.8-0.1-9.6-1-14.4-1.4c-2-0.2-4.1-0.1-6.1-0.2c-4.4-0.3-6.4-1.4-6.9-7.3c-0.3-3.6,0.4-7.2,1.4-10.6
				c2-6.9,4.4-13.5,8-19.7c1.5-2.7,3.3-5.2,6-7.4c0,0.7,0,1.1,0,1.5c-0.2,5.1-0.5,10.2-0.7,15.3c-0.1,3.7,0.2,7.4,1.4,11
				c1.5,4.2,4.2,7.1,8.4,8.6c4.9,1.8,10,2.6,15.1,3.1c6.1,0.6,12.1,1,18.2,0.2c4.8-0.6,9.6-1.6,14.4-2.6c13-2.8,25.7-6.3,38-11.5
				c8.2-3.5,16.1-7.6,23.3-12.9c3.6-2.6,6.4-5.8,8-10.1c1.1-3,1.3-5.9,0.2-8.9c-2-5.2-4.7-9.9-9-13.6c-5.7-5-12.5-6.8-19.8-6.1
				c-6.2,0.6-12.3,1.7-18.4,2.8c-14.4,2.5-28.8,5.2-43.2,7.8c-5.2,0.9-10.4,1.9-15.6,2.7c-11.6,1.9-22.3-0.4-32-7.3
				c-5.2-3.7-10.2-7.8-14.1-12.9c-1.9-2.4-3.4-5.1-4-8.1c-1-4.7,0.5-8.7,3.5-12.2c2.8-3.3,6.3-5.8,9.9-8.1
				c9.6-6.1,19.9-10.6,30.7-13.8c11.9-3.6,24-6.8,36-9.9c7.8-2,15.8-3.4,23.7-5c1.9-0.4,3.8-0.4,5.7-0.6c0.4,0,0.8-0.2,1.3-0.2
				C361.9,40.6,363.1,40.6,364.3,40.6z"/>
		</g>
	</g>
</g>
<g id="J_2_">
	<g id="J_stick_tip_xA0_Image_1_">
	</g>
	<g id="J_mallow_xA0_Image_1_">
		<g>
			<path class="st0" d="M633.8,148c-0.4-11.3,1-22.3,4-33.2c3.4-12.5,9-24,15.5-35.1c3.8-6.4,7.8-12.6,11.8-19.1
				c-0.3-0.2-0.6-0.3-0.9-0.5c-14.9-7.3-30.1-13.8-45.5-20.1c-11.5-4.7-23.3-8.4-35.5-10.6c-10.5-1.8-21-3-31.7-3.5
				c-14.7-0.7-29.4-1.7-44.1,0.3c-6.6,0.9-13.2,1.5-19.8,2.4c-0.6,0.1-1.3,0.4-1.6,0.8c-1.5,1.8-3.2,3.6-4.3,5.6
				c-3.9,7.1-7.8,14.2-11.2,21.6c4.2,0.5,8.3,1,12.4,1.6c0.4,0,0.8,0.2,1,0.5c1,1.8,1.9,3.7,2.9,5.7c-3.2,0.3-5.8,2-9.1,1.2
				c-3.4-0.8-6.7-1.6-10.1-2.4c-5.1,12.9-8,26.4-9,40.4c-0.6,7.6-0.5,15.3,0.9,22.8c1.1,6.1,2.6,12.2,4,18.2
				c0.7,2.8,1.6,5.5,2.5,8.2c0.3,0.9,1,2,1.9,2.5c4.4,2.4,8.9,4.8,13.5,7c18.5,8.7,37.7,15.2,57.6,19.5c19.4,4.2,38.9,6.9,58.7,6.7
				c11.2-0.1,22.2-1.2,33-4.2c2.9-0.8,5.7-1.8,8.6-2.8c-1.1-5.3-2.1-10.3-3.1-15.4C635.3,160.3,634.1,154.3,633.8,148z"/>
			<path class="st0" d="M672.7,67c-0.3-0.9-0.8-1.7-1.4-2.8c-1.3,1.8-2.4,3.4-3.6,4.9c-7.4,9.7-14,19.8-19.2,30.9
				c-6.1,13-10,26.6-10.1,41.1c-0.1,10.7,2.1,21,4.7,31.3c0.7,2.8,1.6,5.4,3.4,7.8c4.1-3.3,6.6-7.8,9.4-12.1
				c0.4-0.6,0.8-1.3,1.2-1.9c6.5-9.9,11.5-20.5,15.3-31.8c2.3-6.8,3.4-13.8,4.5-20.8c0.6-3.7,1.3-7.4,1.4-11.2
				c0.3-7.5-0.8-14.9-2.3-22.3C675.2,75.8,673.9,71.4,672.7,67z"/>
			<path d="M458.7,55.3c-3.1-0.3-6.3-0.6-9.4,0.4c0,0.1,0,0.2,0,0.2c0.2,0.1,0.4,0.1,0.5,0.2c2.2,1.2,4.3,2.6,6.5,3.5
				c2.1,0.9,4.3,1.6,6.5,2.2c0.7-2,1.4-3.9,2.1-5.9C462.8,55.8,460.7,55.5,458.7,55.3z"/>
			<path d="M682.8,75.6c-0.7-5.5-1.9-10.8-4.2-15.9c-1-2.1-2.5-3.6-4.6-4.4c-2.4-0.9-4.8-1.8-7.1-2.8c-13.5-6-27.1-11.7-41.1-16.5
				c-33.4-11.6-67.6-18.1-103-18.1c0-0.1,0-0.2,0-0.3c-7.3,0.4-14.6,0.7-21.9,1.3c-6.4,0.5-12.9,1.5-19.3,2.2
				c-0.7,0.1-1.2,0.2-1.6,0.9c-5.5,11.2-10.6,22.5-14.9,34.1c-0.7,1.9-1.4,3.9-2.1,5.9c-1.4,3.9-2.6,7.9-3.8,11.9
				c-1.8,6.4-3.6,12.8-4.1,19.4c-0.4,4.7-0.8,9.5-1.5,14.2c-1,7.2-1.3,14.4-0.2,21.6c1.7,10.4,3.6,20.8,5.5,31.2
				c0.1,0.4,0.5,1,0.9,1.2c15.7,7.3,31.6,14.2,48.2,19.3c9.7,2.9,19.2,6.2,29.2,7.9c7.8,1.3,15.7,2.5,23.6,3.7
				c4.6,0.7,9.2,1.3,13.8,1.8c3.6,0.3,7.2,0.3,10.8,0.5c5.8,0.3,11.7,0.8,17.5,0.7c4.1,0,8.1-0.8,12.2-1.1c4.7-0.4,9.4-0.4,14-0.9
				c5.8-0.6,11.6-1.7,17.4-2.1c4.1-0.2,6.4-2.3,8.2-5.5c0.1-0.1,0.1-0.2,0.2-0.3c1.8-3.1,3.6-6.1,5.5-9.2c6.8-10.8,12-22.4,16-34.5
				c2.6-8.1,5.2-16.2,6.3-24.7C684.4,103.3,684.6,89.4,682.8,75.6z M631.1,184.5c-10.8,3-21.8,4.1-33,4.2
				c-19.9,0.2-39.4-2.5-58.7-6.7c-19.9-4.3-39.2-10.8-57.6-19.5c-4.6-2.2-9.1-4.6-13.5-7c-0.8-0.5-1.5-1.5-1.9-2.5
				c-1-2.7-1.9-5.4-2.5-8.2c-1.4-6.1-2.9-12.1-4-18.2c-1.4-7.5-1.5-15.2-0.9-22.8c1-14,3.9-27.5,9-40.4c0.9-2.2,1.8-4.3,2.7-6.4
				c0,0,0-0.1,0-0.1c3.4-7.4,7.3-14.5,11.2-21.6c1.1-2,2.8-3.8,4.3-5.6c0.4-0.4,1.1-0.7,1.6-0.8c6.6-0.8,13.2-1.5,19.8-2.4
				c14.7-1.9,29.4-1,44.1-0.3c10.6,0.5,21.2,1.7,31.7,3.5c12.2,2.2,24,5.9,35.5,10.6c15.4,6.2,30.6,12.8,45.5,20.1
				c0.3,0.1,0.6,0.3,0.9,0.5c-4,6.4-8.1,12.7-11.8,19.1c-6.5,11.1-12.2,22.6-15.5,35.1c-3,10.9-4.4,21.9-4,33.2
				c0.2,6.2,1.5,12.3,2.7,18.4c1,5,2.1,10.1,3.1,15.4C636.8,182.7,634,183.7,631.1,184.5z M678.4,102.5c-0.1,3.7-0.8,7.5-1.4,11.2
				c-1.1,7-2.2,14-4.5,20.8c-3.8,11.2-8.8,21.8-15.3,31.8c-0.4,0.6-0.8,1.3-1.2,1.9c-2.8,4.3-5.3,8.8-9.4,12.1
				c-1.8-2.3-2.7-5-3.4-7.8c-2.5-10.3-4.8-20.6-4.7-31.3c0.2-14.5,4.1-28.1,10.1-41.1c5.2-11.1,11.8-21.2,19.2-30.9
				c1.2-1.5,2.3-3.1,3.6-4.9c0.5,1.1,1.1,1.9,1.4,2.8c1.2,4.4,2.5,8.7,3.4,13.2C677.7,87.6,678.7,95,678.4,102.5z"/>
		</g>
	</g>
	<g id="J_stick_xA0_Image_1_">
		<g>
			<path d="M682.6,199.8c2.3-0.6,4.6-0.1,6.8,0.3c6.6,1.3,13.1,2.7,19.7,4c2.9,0.6,5.8,0.8,8.7,0.1c2.5-0.6,3.1-1.5,2-3.9
				c-1.3-2.9-2.7-5.9-4.4-8.6c-7.1-11.9-14.6-23.6-23.5-34.3c-6-7.2-12.8-13.6-19.9-19.7c-2.6-2.2-5-4.4-7.6-6.7
				c-0.3-0.3-0.6-0.5-1.1-0.9c-1.9,7.3-5.5,13.3-11.9,17.4c3.9-7.1,7.8-14.2,10-22.1c2.2-7.9,3.4-15.9,3.5-24.1
				c0.1,0,0.3-0.1,0.4-0.1c0.4,1.9,1,3.8,1.2,5.7c0.7,4.8,0.6,9.6-1,14.3c-0.1,0.2-0.1,0.4-0.2,0.6c-0.7,3-0.7,3,2,4.4
				c3.7,1.9,6.7,4.7,9.7,7.6c6.4,6.2,12.7,12.5,19.2,18.6c3.5,3.3,7.4,6.1,10.9,9.4c3.7,3.6,7.2,7.5,10.7,11.3
				c4.4,4.8,8.7,9.7,13.2,14.4c6.6,6.9,11.9,14.6,16.4,22.9c7,13.2,12.9,26.9,18.8,40.7c6.8,15.9,13.8,31.8,20.6,47.7
				c2.1,4.9,3.8,9.9,5.7,14.9c2.4,6.3,3.5,12.8,3.7,19.5c0.3,7.7,1.5,15.3,2.8,22.8c3,17.8,4.4,35.8,3.2,53.9
				c-0.4,6.2-1.5,12.4-2.1,18.6c-0.5,5.5-0.9,11-1.2,16.5c-0.3,5.8-0.4,11.6-0.6,17.4c-0.3,7.3-2.1,14.4-3.8,21.4
				c-9.3,38.1-24.3,74-44.1,107.9c-5.4,9.3-10.4,18.8-15.7,28.2c-3.7,6.5-7.7,13-13.2,18.2c-3.8,3.6-8,6.9-12.1,10.2
				c-17.2,13.8-34.6,27.4-51.8,41.3c-18.2,14.7-37.9,27-59,36.9c-11.1,5.2-22.8,8.8-34.6,12.1c-7,1.9-14,3.4-21.1,4.9
				c-2.6,0.6-5.2,0.5-7.8-0.3c-1.1-0.3-1.5-1-1-1.9c0.6-1.3,1.2-2.8,2.3-3.7c2.2-1.9,4.6-3.9,7.2-5.2c7.2-3.6,14.6-6.9,22-10.1
				c8.8-3.9,17.9-7.4,26.6-11.5c10.4-4.8,19.9-11.3,29.6-17.4c6.8-4.3,13.8-8.3,19.9-13.5c3.9-3.4,7.8-6.7,11.5-10.3
				c9.8-9.7,20.4-18.4,31.6-26.5c7.4-5.4,14.5-11.3,20.9-17.9c4.3-4.5,7.7-9.5,10.8-14.9c5.8-10.3,11.9-20.3,18-30.4
				c4.8-8,9.9-16,13.6-24.6c4.6-10.6,8.3-21.5,11.5-32.6c4.8-16,9.6-32,14.1-48c1.8-6.3,3.1-12.8,4.1-19.3c0.7-4.3,0.5-8.7,0.5-13
				c0-10.1-0.2-20.2-0.3-30.4c0-2.5,0.5-4.9,0.7-7.4c0.6-6.8,0.5-13.7,0.1-20.5c-0.6-10.8-2.6-21.4-4.1-32.1
				c-0.9-6.3-1.7-12.7-2.6-19c-1.4-10-4-19.6-7.1-29.2c-4.3-13.5-8.6-26.9-13.2-40.3c-4.1-11.9-10.5-22.6-17.2-33.1
				c-5.3-8.4-12.9-13.6-22.5-16.3c-6.5-1.8-12.8-3.9-19.1-6.3c-2.8-1-5.4-2.8-8.1-4.4C684,202.6,683.1,201.3,682.6,199.8z"/>
		</g>
	</g>
	<g id="J_xA0_Image_1_">
		<g>
			<path d="M475.2,129.1c0.3-1.4,0.5-2.9,0.9-4.3c1.4-5.1,4-9.6,7.5-13.5c5.5-6.4,12-11.4,20-14.1c0.6-0.2,1.3-0.4,2.1-0.3
				c-0.6,0.8-1.3,1.6-1.9,2.5c-2.8,3.7-5.8,7.3-8.2,11.2c-3.1,4.9-4.6,10.4-4.9,16.1c-0.4,8.4,3.1,15.1,9.3,20.6
				c5.6,4.9,12.1,8.2,19,10.7c11.5,4.3,23.5,7.1,35.7,8.5c7.1,0.8,14.2,1.2,21.3,0.7c5.6-0.4,11.2-1.3,16.5-3.4
				c9.1-3.5,13.5-10.4,14.1-20c0.4-7.9-1.2-15.4-3.7-22.8c-6.8-19.7-15.8-38.2-27.3-55.6c-1.5-2.2-2.8-4.5-4.3-6.8c-1-1.5-2-3-3-4.5
				c-1.8-2.5-4-4.1-7.2-4.7c-5.6-1-11.1-2.7-16.7-3.5c-12.8-1.9-25.4-1.1-37.6,3.6c-3.8,1.5-7.1,3.6-9.9,6.5
				c-1.1,1.2-2.1,2.5-3.2,3.7c-0.2-0.1-0.4-0.2-0.5-0.3c-0.4-1.3-0.7-2.6-1.1-4c-0.3-1.2-0.7-2.5-0.9-3.7c-0.5-3.9,0.9-7.1,4.2-9.3
				c4-2.6,8.4-3.5,13.1-4c11.9-1.2,23.8-0.4,35.6,1.4c10.9,1.6,21.6,3.9,32.4,5.9c8.1,1.4,16.1,2.8,24.2,4.2
				c11.2,2,22.1,5.1,32.4,10c3.4,1.6,6.6,3.6,9.3,6.3c2.2,2.3,3.6,4.9,3,8.2c-0.2,0.9-0.4,1.9-0.9,2.7c-1.6,2.2-3.3,4.3-5.1,6.5
				c-0.3-0.5-0.5-0.6-0.5-0.9c-1.4-5.3-4.9-9.1-9.1-12.3c-5.5-4.3-11.8-7.2-18.3-9.7c-9.7-3.7-19.7-6.5-29.9-8.7
				c-1.7-0.4-3.4-0.3-5.1-0.4c-0.6,0-1.6,0.3-1.7,0.6c-0.2,0.7,0,1.6,0.4,2.2c3.1,4.3,6.3,8.5,9.5,12.8
				c16.4,22.7,28.9,47.4,36.1,74.5c1.4,5.1,2.4,10.4,2.5,15.7c0,2-0.2,4-0.5,6c-1,5.3-4.2,8.6-9.5,9.8c-6.7,1.5-13.5,1.8-20.4,1.8
				c-8.6,0.1-17.2-0.8-25.6-2.4c-10.6-2-21.3-3.8-31.9-6c-14.9-3.1-29.1-8.4-43-14.6c-3.6-1.6-7-3.6-9.9-6.3
				c-3.7-3.5-6.1-7.8-6.7-12.9c0-0.2-0.1-0.5-0.2-0.7C475.2,131.4,475.2,130.2,475.2,129.1z"/>
		</g>
	</g>
</g>
</svg>
