<?xml version="1.0" encoding="utf-8"?>
<!-- Generator: Adobe Illustrator 17.0.2, SVG Export Plug-In . SVG Version: 6.00 Build 0)  -->
<!DOCTYPE svg PUBLIC "-//W3C//DTD SVG 1.1//EN" "http://www.w3.org/Graphics/SVG/1.1/DTD/svg11.dtd">
<svg version="1.1" id="Layer_1" xmlns="http://www.w3.org/2000/svg" xmlns:xlink="http://www.w3.org/1999/xlink" x="0px" y="0px"
	 width="2304px" height="1728px" viewBox="0 0 2304 1728" enable-background="new 0 0 2304 1728" xml:space="preserve">
<path fill-rule="evenodd" clip-rule="evenodd" fill="#6C3916" d="M128,170c95.762-1.128,181.087,7.726,256,24
	c17.332,1.333,1670.336,247.667,1696,250c44.071,11.173,102.617,31.72,128,63c19.614,24.171,69.608,94.145,61,141
	c-6.426,34.979-131.937,728.658-174,796c-42.011,67.258-111.751,106.633-201,127c-86.658,0-1263.676,0-1358,0
	c-61.415-14.956-111.958-39.479-156-71c-22.21-15.896-67.766-86.116-77-116C294.276,1355.765,19.999,351.149,20,290
	c0.667-12.665,1.333-25.335,2-38c11.016-30.676,40.411-58.814,70-71C103.999,177.334,116.001,173.666,128,170z"/>
</svg>
